<?xml version="1.0" encoding="UTF-8" standalone="no"?>
<svg
   xmlns:dc="http://purl.org/dc/elements/1.1/"
   xmlns:cc="http://creativecommons.org/ns#"
   xmlns:rdf="http://www.w3.org/1999/02/22-rdf-syntax-ns#"
   xmlns:svg="http://www.w3.org/2000/svg"
   xmlns="http://www.w3.org/2000/svg"
   xmlns:sodipodi="http://sodipodi.sourceforge.net/DTD/sodipodi-0.dtd"
   xmlns:inkscape="http://www.inkscape.org/namespaces/inkscape"
   version="1.1"
   id="PyAr_Asociacion_Civil"
   x="0px"
   y="0px"
   viewBox="0 0 501.7 228.2"
   sodipodi:docname="Blanco y negro horizontal.svg"
   inkscape:export-filename="/home/facundo/devel/reps/asoc/isologos/asoccivil/Blanco y negro horizontal.png"
   inkscape:export-xdpi="299"
   inkscape:export-ydpi="299"
   inkscape:version="0.92.3 (2405546, 2018-03-11)">
  <metadata
     id="metadata77">
    <rdf:RDF>
      <cc:Work
         rdf:about="">
        <dc:format>image/svg+xml</dc:format>
        <dc:type
           rdf:resource="http://purl.org/dc/dcmitype/StillImage" />
      </cc:Work>
    </rdf:RDF>
  </metadata>
  <defs
     id="defs75" />
  <sodipodi:namedview
     pagecolor="#ffffff"
     bordercolor="#666666"
     borderopacity="1"
     objecttolerance="10"
     gridtolerance="10"
     guidetolerance="10"
     inkscape:pageopacity="0"
     inkscape:pageshadow="2"
     inkscape:window-width="1137"
     inkscape:window-height="480"
     id="namedview73"
     showgrid="false"
     inkscape:zoom="0.78134341"
     inkscape:cx="250.85001"
     inkscape:cy="114.1"
     inkscape:window-x="0"
     inkscape:window-y="30"
     inkscape:window-maximized="0"
     inkscape:current-layer="PyAr_Asociacion_Civil" />
  <style
     type="text/css"
     id="style2">
	.st0{fill:none;}
</style>
  <rect
     x="0.1"
     y="0"
     class="st0"
     width="501.6"
     height="228.2"
     id="rect4" />
  <g
     id="g26">
    <g
       id="g24">
      <path
         d="M189.8,79.1c-0.6,14.2-8.2,27.3-20.2,34.9c12,7.6,19.6,20.7,20.2,34.9c11.9-7.5,19.2-20.7,19.2-34.9    C209,99.9,201.7,86.7,189.8,79.1z"
         id="path6" />
      <path
         d="M103.3,75.7c0.6-14.2,8.1-27.3,20.1-34.9c-5.9-3.1-12.5-4.7-19.2-4.7C82,36.1,63.8,53.7,63,75.7c6.2-3.2,13.1-5,20.1-5    C90.2,70.7,97.1,72.4,103.3,75.7z"
         id="path8" />
      <path
         d="M105.3,75.7c6.2-3.3,13.1-5,20.1-5c7.6,0,15.1,2,21.6,5.8c12.8,7.4,21,21,21.6,35.7c11.9-7.5,19.2-20.7,19.2-34.9l0,0    c0-22.8-18.5-41.3-41.3-41.3c-7.2,0-14.4,1.9-20.6,5.5C113.7,48.7,105.9,61.6,105.3,75.7z"
         id="path10" />
      <path
         d="M103.3,152.3c-6.2,3.3-13.1,5-20.2,5c-7,0-13.9-1.7-20.1-5c0.9,22,19.1,39.6,41.2,39.6c6.7,0,13.3-1.6,19.1-4.7    C111.4,179.5,103.9,166.4,103.3,152.3z"
         id="path12" />
      <path
         d="M168.7,115.7c-0.6,14.7-8.8,28.3-21.6,35.7c-6.6,3.8-14,5.8-21.6,5.8c-7,0-13.9-1.7-20.1-5c0.6,14,8.4,27,20.6,34    c6.3,3.6,13.4,5.5,20.6,5.5c22.8,0,41.3-18.5,41.3-41.3l0,0C187.8,136.5,180.5,123.3,168.7,115.7z"
         id="path14" />
      <path
         d="M102.3,150.5c-12.5-7.9-20.1-21.8-20.1-36.6s7.7-28.7,20.1-36.6c-5.9-3.1-12.5-4.7-19.2-4.7c-7.2,0-14.4,1.9-20.6,5.5    c-12.7,7.4-20.6,21.1-20.6,35.7c0,14.7,7.9,28.4,20.6,35.7c6.3,3.6,13.4,5.5,20.6,5.5C89.8,155.3,96.4,153.6,102.3,150.5z"
         id="path16" />
      <path
         d="M161.8,94.5c0.3,1.3,0.2,2.7-0.5,4c-1.4,2.5-4.6,3.4-7.1,1.9c-2.5-1.4-3.4-4.6-1.9-7.1s4.6-3.4,7.1-1.9    c0.4,0.3,0.8,0.6,1.1,0.9c-3.5-5.7-8.4-10.6-14.4-14.1c-6.3-3.6-13.4-5.5-20.6-5.5c-6.7,0-13.3,1.6-19.2,4.7    c12.3,7.8,19.9,21.4,20.1,36c5.3,3,11.3,4.7,17.4,5.2c0,0,0,0-0.1,0c-2.5-1.4-3.4-4.6-1.9-7.1c1.4-2.5,4.6-3.4,7.1-1.9    c2.5,1.4,3.4,4.6,1.9,7.1c-0.5,0.9-1.2,1.5-2.1,2c6.3-0.3,12.4-2.1,17.9-5.2C166.6,106.7,164.9,100.3,161.8,94.5z"
         id="path18" />
      <path
         d="M124.2,155.2c-0.5-0.1-1-0.3-1.4-0.5c-2.5-1.4-3.4-4.6-1.9-7.1s4.6-3.4,7.1-1.9c2.5,1.4,3.4,4.6,1.9,7.1    c-0.7,1.3-1.9,2.1-3.2,2.4c6.8-0.2,13.5-2.1,19.3-5.5c12.2-7.1,20-20,20.6-34c-6.2,3.2-13.1,5-20.1,5c-7.4,0-14.7-1.9-21.1-5.5    c-5.3,3.2-9.8,7.5-13.2,12.5c1.6-0.9,3.6-1.1,5.3-0.1c2.5,1.4,3.4,4.6,1.9,7.1c-1.4,2.5-4.6,3.4-7.1,1.9c-1.7-1-2.6-2.8-2.6-4.7    c-2.8,5.5-4.4,11.7-4.5,18.1C111.1,153.2,117.6,155,124.2,155.2z"
         id="path20" />
      <path
         d="M112.4,100.4c-2.5-1.4-3.4-4.6-1.9-7.1s4.6-3.4,7.1-1.9c0.1,0,0.1,0.1,0.2,0.1c-3.4-5.3-8.1-9.8-13.5-13    c-5.8,3.4-10.5,8.2-13.9,13.7c1.6-1.7,4.2-2.1,6.3-0.9c2.5,1.4,3.4,4.6,1.9,7.1s-4.6,3.4-7.1,1.9c-2.1-1.2-3-3.7-2.4-5.9    c-3.2,5.9-4.9,12.6-4.9,19.5c0,7.2,1.9,14.4,5.5,20.6c3.3,5.8,8,10.7,13.7,14.2c0.6-14.6,8.6-28,21.1-35.4    c-0.1-6.1-1.5-12.2-4.2-17.7c0,0.9-0.2,1.9-0.7,2.8C118.1,101,114.9,101.9,112.4,100.4z"
         id="path22" />
    </g>
  </g>
  <g
     id="g70">
    <g
       id="g36">
      <path
         d="M251,109V36.1h22.8c7.9,0,14.7,1.8,20.4,5.4c5.6,3.6,8.5,9.6,8.5,18c-0.1,8.3-3.1,14.4-9.2,18.3c-6,3.9-12.9,5.8-20.6,5.8    h-8V109H251z M273.4,47.7h-8.6v24.4h8.8c4.1,0,7.5-0.9,10.1-2.8c2.6-1.9,4-4.9,4.3-9c0-4.7-1.3-8-3.9-9.9    C281.6,48.6,278,47.7,273.4,47.7z"
         id="path28" />
      <path
         d="M326,111.5l2.5-6.1l-18.5-46.4l14.4-1.9l12,31.5L347.6,57h14.7l-20.5,52l-2.8,6.9c-1.6,4.2-4.5,7.8-8.7,10.8    c-4.1,3-8.5,5-13.1,6.1l-4.9-11.5c2.5-1.1,5.2-2.4,8-3.9C323.2,115.9,325.1,113.9,326,111.5z"
         id="path30" />
      <path
         d="M393,36.1l28.3,71l-13.9,1.9l-6.5-17.2h-27.7l-6.4,17.2h-13.9l28.4-72.9H393z M386.8,55.2l-9.5,25.4h19.3L386.8,55.2z"
         id="path32" />
      <path
         d="M457.1,57l2.8,11.2c-2.4,0-5.1,0.7-8.2,2c-3.1,1.4-6.2,3.4-9.2,6V109h-13.9V57h7.3l4.6,7.6c2.1-1.9,4.8-3.6,7.8-5.2    C451.4,57.8,454.3,57,457.1,57z"
         id="path34" />
    </g>
    <g
       id="g68">
      <path
         d="M264.3,138.7l9,22.5l-4.4,0.6l-2.1-5.4H258l-2,5.4h-4.4l9-23.1H264.3z M262.3,144.8l-3,8.1h6.1L262.3,144.8z"
         id="path38" />
      <path
         d="M288.5,149.8c-0.8-0.4-1.5-0.6-2.2-0.8c-0.7-0.2-1.4-0.3-2.2-0.3c-0.6,0-1,0.1-1.3,0.3c-0.3,0.2-0.5,0.5-0.5,0.9    c0,0.3,0.2,0.5,0.6,0.8c0.4,0.3,1,0.5,1.8,0.8c1.4,0.5,2.7,1.2,3.8,2.1c1.2,0.9,1.8,2.1,1.8,3.5c0,1.6-0.6,2.9-1.8,3.8    c-1.2,0.9-2.9,1.4-5.1,1.4c-0.7,0-1.6-0.1-2.8-0.4c-1.2-0.3-2.1-0.7-2.9-1.3l1.3-3.2c0.8,0.4,1.6,0.6,2.3,0.8    c0.7,0.2,1.4,0.3,2,0.3c0.8,0,1.4-0.1,1.9-0.3s0.6-0.5,0.6-0.9c0-0.5-0.2-0.9-0.6-1.2c-0.4-0.4-1.1-0.7-2-1    c-1.3-0.4-2.6-1-3.7-1.9c-1.2-0.8-1.8-1.9-1.8-3.2c0-1.6,0.6-2.8,1.7-3.7c1.2-0.9,2.7-1.3,4.7-1.3c0.7,0,1.6,0.1,2.7,0.4    c1.1,0.3,2.1,0.7,2.9,1.3L288.5,149.8z"
         id="path40" />
      <path
         d="M304.3,162.2c-2.6,0-4.6-0.8-6.1-2.4c-1.5-1.6-2.2-3.7-2.2-6.3c0-2.6,0.8-4.7,2.3-6.3c1.5-1.6,3.6-2.3,6.3-2.3    c2.7,0,4.9,0.8,6.4,2.4c1.5,1.6,2.3,3.7,2.3,6.4c0,2.6-0.8,4.7-2.4,6.2C309.1,161.5,306.9,162.2,304.3,162.2z M308.6,153.7    c0-1.6-0.3-2.8-1-3.7c-0.7-0.9-1.7-1.3-2.9-1.3c-1.3,0-2.3,0.4-3,1.2c-0.7,0.8-1.1,2-1.1,3.6s0.3,2.9,0.9,3.7    c0.6,0.8,1.6,1.3,2.9,1.3c1.3,0,2.3-0.4,3.1-1.1C308.2,156.6,308.6,155.4,308.6,153.7z"
         id="path42" />
      <path
         d="M327.8,148.7c-1.2,0-2.2,0.5-2.9,1.4c-0.7,0.9-1.1,2.1-1.1,3.5c0,1.4,0.4,2.6,1.1,3.5c0.7,0.9,1.7,1.4,2.9,1.4    c0.8,0,1.5-0.1,2.1-0.3c0.6-0.2,1.3-0.5,2.1-0.8l1.3,3.2c-0.8,0.6-1.7,1-2.8,1.3c-1.1,0.3-2,0.4-2.7,0.4c-2.7,0-4.8-0.8-6.3-2.3    c-1.5-1.6-2.2-3.7-2.2-6.3c0-2.6,0.7-4.7,2.2-6.3s3.6-2.4,6.3-2.4c0.7,0,1.6,0.1,2.7,0.4c1.1,0.3,2,0.7,2.8,1.3l-1.3,3.2    c-0.8-0.4-1.5-0.6-2.1-0.8C329.2,148.8,328.5,148.7,327.8,148.7z"
         id="path44" />
      <path
         d="M341.8,138c0.7,0,1.3,0.2,1.8,0.7s0.7,1.1,0.7,1.8c0,0.7-0.2,1.3-0.7,1.8c-0.5,0.5-1.1,0.7-1.8,0.7    c-0.7,0-1.3-0.2-1.7-0.7c-0.5-0.5-0.7-1.1-0.7-1.8c0-0.7,0.2-1.3,0.7-1.8C340.6,138.3,341.2,138,341.8,138z M344,145.3v16.5h-4.4    v-16.5H344z"
         id="path46" />
      <path
         d="M357,162.2c-2,0-3.5-0.5-4.5-1.5c-1-1-1.5-2.3-1.5-3.9c0-1.7,0.6-3,1.7-3.9s2.7-1.4,4.5-1.4h3.2c0-0.8-0.3-1.5-0.7-2    c-0.5-0.5-1.1-0.7-1.9-0.7c-0.8,0-1.6,0.1-2.5,0.3c-0.9,0.2-1.7,0.5-2.3,0.8l-1.2-3.7c0.6-0.4,1.6-0.8,2.9-1.1    c1.3-0.3,2.3-0.4,3-0.4c2,0,3.7,0.6,5.1,1.7s2.1,2.6,2.1,4.4v10.8h-2.3l-1.1-1.4c-0.6,0.5-1.3,0.9-2.2,1.3S357.8,162.2,357,162.2z     M354.8,156.9c0,0.5,0.2,0.9,0.6,1.3c0.4,0.4,0.9,0.6,1.5,0.6c0.6,0,1.2-0.1,1.9-0.4c0.6-0.3,1.2-0.7,1.8-1.2v-2.5h-3.3    c-0.8,0-1.4,0.2-1.8,0.7C355,155.8,354.8,156.3,354.8,156.9z"
         id="path48" />
      <path
         d="M380.1,148.7c-1.2,0-2.2,0.5-2.9,1.4c-0.7,0.9-1.1,2.1-1.1,3.5c0,1.4,0.4,2.6,1.1,3.5c0.7,0.9,1.7,1.4,2.9,1.4    c0.8,0,1.5-0.1,2.1-0.3c0.6-0.2,1.3-0.5,2.1-0.8l1.3,3.2c-0.8,0.6-1.7,1-2.8,1.3c-1.1,0.3-2,0.4-2.7,0.4c-2.7,0-4.8-0.8-6.3-2.3    c-1.5-1.6-2.2-3.7-2.2-6.3c0-2.6,0.7-4.7,2.2-6.3s3.6-2.4,6.3-2.4c0.7,0,1.6,0.1,2.7,0.4c1.1,0.3,2,0.7,2.8,1.3l-1.3,3.2    c-0.8-0.4-1.5-0.6-2.1-0.8C381.6,148.8,380.9,148.7,380.1,148.7z"
         id="path50" />
      <path
         d="M394.2,138c0.7,0,1.3,0.2,1.8,0.7s0.7,1.1,0.7,1.8c0,0.7-0.2,1.3-0.7,1.8c-0.5,0.5-1.1,0.7-1.8,0.7    c-0.7,0-1.3-0.2-1.7-0.7c-0.5-0.5-0.7-1.1-0.7-1.8c0-0.7,0.2-1.3,0.7-1.8C392.9,138.3,393.5,138,394.2,138z M396.4,145.3v16.5H392    v-16.5H396.4z"
         id="path52" />
      <path
         d="M411.5,162.2c-2.6,0-4.6-0.8-6.1-2.4c-1.5-1.6-2.2-3.7-2.2-6.3c0-2.6,0.8-4.7,2.3-6.3c1.5-1.6,3.6-2.3,6.3-2.3    c2.7,0,4.9,0.8,6.4,2.4c1.5,1.6,2.3,3.7,2.3,6.4c0,2.6-0.8,4.7-2.4,6.2C416.3,161.5,414.2,162.2,411.5,162.2z M415.9,153.7    c0-1.6-0.3-2.8-1-3.7c-0.7-0.9-1.7-1.3-2.9-1.3c-1.3,0-2.3,0.4-3,1.2c-0.7,0.8-1.1,2-1.1,3.6s0.3,2.9,0.9,3.7    c0.6,0.8,1.6,1.3,2.9,1.3c1.3,0,2.3-0.4,3.1-1.1C415.5,156.6,415.9,155.4,415.9,153.7z M411.2,136.2h4.5l-3.2,5.6h-3.4    L411.2,136.2z"
         id="path54" />
      <path
         d="M430.8,147.1c0.7-0.7,1.7-1.3,2.8-1.8c1.1-0.4,2.1-0.6,3-0.6c2.2,0,3.8,0.7,4.8,2s1.4,2.9,1.4,4.8v10.3h-4.4v-10.1    c0-1-0.3-1.8-0.7-2.4c-0.5-0.6-1.2-0.8-2.2-0.8c-0.6,0-1.3,0.2-2,0.5c-0.7,0.3-1.3,0.7-1.9,1.1v11.7h-4.4v-16.5h2.3L430.8,147.1z"
         id="path56" />
      <path
         d="M327,172.9c-1-0.3-1.8-0.5-2.4-0.7s-1.5-0.3-2.4-0.3c-1.8,0-3.3,0.7-4.3,2.2c-1,1.5-1.5,3.5-1.5,6.2    c0,2.2,0.4,4.2,1.3,5.8c0.8,1.6,2.2,2.4,4.2,2.4c1,0,1.9-0.1,2.7-0.3c0.9-0.2,1.6-0.5,2.3-0.7l1.7,3.3c-0.9,0.5-1.9,0.8-3.2,1.1    c-1.2,0.3-2.3,0.4-3.3,0.4c-3.6,0-6.2-1.2-7.9-3.5c-1.6-2.3-2.4-5.1-2.4-8.5c0-3.6,0.9-6.5,2.7-8.7c1.8-2.3,4.4-3.4,7.8-3.4    c0.7,0,1.6,0.1,2.8,0.3s2.3,0.6,3.3,1.2L327,172.9z"
         id="path58" />
      <path
         d="M337.5,168c0.7,0,1.3,0.2,1.8,0.7s0.7,1.1,0.7,1.8c0,0.7-0.2,1.3-0.7,1.8c-0.5,0.5-1.1,0.7-1.8,0.7    c-0.7,0-1.3-0.2-1.7-0.7c-0.5-0.5-0.7-1.1-0.7-1.8c0-0.7,0.2-1.3,0.7-1.8C336.3,168.3,336.8,168,337.5,168z M339.7,175.3v16.5    h-4.4v-16.5H339.7z"
         id="path60" />
      <path
         d="M351.6,191.8l-6.3-15.9l4.6-0.6l3.8,10l3.6-10h4.7l-6.5,16.5H351.6z"
         id="path62" />
      <path
         d="M369.6,168c0.7,0,1.3,0.2,1.8,0.7c0.5,0.5,0.7,1.1,0.7,1.8c0,0.7-0.2,1.3-0.7,1.8c-0.5,0.5-1.1,0.7-1.8,0.7    c-0.7,0-1.3-0.2-1.7-0.7c-0.5-0.5-0.7-1.1-0.7-1.8c0-0.7,0.2-1.3,0.7-1.8C368.4,168.3,368.9,168,369.6,168z M371.8,175.3v16.5    h-4.4v-16.5H371.8z"
         id="path64" />
      <path
         d="M383.9,167.8v24h-4.4v-23.6L383.9,167.8z"
         id="path66" />
    </g>
  </g>
</svg>
