<?xml version="1.0" encoding="UTF-8" standalone="no"?>
<svg
   xmlns:dc="http://purl.org/dc/elements/1.1/"
   xmlns:cc="http://creativecommons.org/ns#"
   xmlns:rdf="http://www.w3.org/1999/02/22-rdf-syntax-ns#"
   xmlns:svg="http://www.w3.org/2000/svg"
   xmlns="http://www.w3.org/2000/svg"
   xmlns:sodipodi="http://sodipodi.sourceforge.net/DTD/sodipodi-0.dtd"
   xmlns:inkscape="http://www.inkscape.org/namespaces/inkscape"
   version="1.1"
   id="PyAr_Asociacion_Civil"
   x="0px"
   y="0px"
   viewBox="0 0 250.6 437.1"
   sodipodi:docname="Blanco y negro vertical.svg"
   inkscape:export-filename="/home/facundo/devel/reps/asoc/isologos/asoccivil/Blanco y negro vertical.png"
   inkscape:export-xdpi="299"
   inkscape:export-ydpi="299"
   inkscape:version="0.92.3 (2405546, 2018-03-11)">
  <metadata
     id="metadata79">
    <rdf:RDF>
      <cc:Work
         rdf:about="">
        <dc:format>image/svg+xml</dc:format>
        <dc:type
           rdf:resource="http://purl.org/dc/dcmitype/StillImage" />
      </cc:Work>
    </rdf:RDF>
  </metadata>
  <defs
     id="defs77" />
  <sodipodi:namedview
     pagecolor="#ffffff"
     bordercolor="#666666"
     borderopacity="1"
     objecttolerance="10"
     gridtolerance="10"
     guidetolerance="10"
     inkscape:pageopacity="0"
     inkscape:pageshadow="2"
     inkscape:window-width="1137"
     inkscape:window-height="480"
     id="namedview75"
     showgrid="false"
     inkscape:zoom="0.53992221"
     inkscape:cx="125.3"
     inkscape:cy="218.55"
     inkscape:window-x="0"
     inkscape:window-y="30"
     inkscape:window-maximized="0"
     inkscape:current-layer="PyAr_Asociacion_Civil" />
  <g
     id="g72">
    <g
       id="g14">
      <g
         id="g12">
        <g
           id="g10">
          <path
             d="M41.6,83.5V25H60c6.4,0,11.8,1.5,16.4,4.4c4.5,2.9,6.8,7.7,6.8,14.4c-0.1,6.7-2.5,11.6-7.4,14.7s-10.4,4.7-16.6,4.7      h-6.5v20.4L41.6,83.5L41.6,83.5z M59.6,34.3h-6.9v19.6h7.1c3.3,0,6-0.8,8.1-2.3s3.2-3.9,3.4-7.2c0-3.8-1-6.4-3.1-7.9      C66.2,35,63.3,34.3,59.6,34.3z"
             id="path2" />
          <path
             d="M101.8,85.5l2-4.9L88.9,43.3l11.5-1.6l9.7,25.3l9.1-25.3H131l-16.5,41.8l-2.2,5.5c-1.3,3.4-3.6,6.3-7,8.7      c-3.3,2.4-6.8,4-10.5,4.9l-4-9.2c2-0.9,4.1-1.9,6.4-3.1C99.6,89.1,101.1,87.5,101.8,85.5z"
             id="path4" />
          <path
             d="M155.7,25l22.7,57l-11.2,1.6L162,69.8h-22.2l-5.2,13.8h-11.2L146.2,25H155.7z M150.7,40.3L143,60.7h15.5L150.7,40.3z"
             id="path6" />
          <path
             d="M207.2,41.8l2.2,9c-1.9,0-4.1,0.5-6.6,1.6s-5,2.7-7.4,4.8v26.4h-11.2V41.8h5.9l3.7,6.1c1.7-1.5,3.8-2.9,6.3-4.2      C202.6,42.4,205,41.8,207.2,41.8z"
             id="path8" />
        </g>
      </g>
    </g>
    <g
       id="g50">
      <g
         id="g36">
        <path
           d="M56.8,305.6l10,25.1l-4.9,0.7l-2.3-6.1h-9.8l-2.3,6.1h-4.9l10.1-25.8L56.8,305.6L56.8,305.6z M54.6,312.3l-3.4,9H58     L54.6,312.3z"
           id="path16" />
        <path
           d="M80.4,317.9c-0.9-0.4-1.7-0.7-2.5-0.9c-0.8-0.2-1.6-0.3-2.4-0.3c-0.6,0-1.1,0.1-1.5,0.4c-0.3,0.2-0.5,0.6-0.5,1     c0,0.3,0.2,0.6,0.6,0.9s1.1,0.6,2,0.9c1.5,0.6,3,1.3,4.3,2.3s2,2.3,2,3.9c0,1.8-0.7,3.2-2,4.3c-1.3,1-3.2,1.5-5.7,1.5     c-0.8,0-1.8-0.2-3.1-0.5c-1.3-0.3-2.4-0.8-3.2-1.4l1.5-3.6c0.9,0.4,1.7,0.7,2.6,0.9c0.8,0.2,1.6,0.3,2.3,0.3     c0.9,0,1.6-0.1,2.1-0.4s0.7-0.6,0.7-1c0-0.5-0.2-1-0.7-1.4s-1.2-0.8-2.3-1.1c-1.5-0.5-2.9-1.2-4.2-2.1c-1.3-0.9-2-2.1-2-3.6     c0-1.7,0.6-3.1,1.9-4.1s3-1.5,5.2-1.5c0.8,0,1.8,0.2,3,0.5s2.3,0.8,3.3,1.4L80.4,317.9z"
           id="path18" />
        <path
           d="M92.5,331.8c-2.9,0-5.2-0.9-6.8-2.7s-2.4-4.1-2.4-7.1c0-2.9,0.9-5.3,2.6-7s4-2.6,7-2.6c3.1,0,5.4,0.9,7.1,2.7     c1.7,1.8,2.5,4.2,2.5,7.1s-0.9,5.2-2.7,6.9C97.9,331,95.5,331.8,92.5,331.8z M97.4,322.3c0-1.7-0.4-3.1-1.2-4.1     c-0.8-1-1.9-1.5-3.3-1.5s-2.6,0.4-3.4,1.3s-1.2,2.2-1.2,4.1s0.3,3.2,1,4.1s1.8,1.4,3.2,1.4c1.4,0,2.6-0.4,3.5-1.3     C96.9,325.5,97.4,324.2,97.4,322.3z"
           id="path20" />
        <path
           d="M113.3,316.7c-1.4,0-2.5,0.5-3.3,1.6c-0.8,1-1.2,2.4-1.2,3.9c0,1.6,0.4,2.9,1.2,3.9c0.8,1,1.9,1.5,3.3,1.5     c0.9,0,1.6-0.1,2.3-0.3s1.5-0.5,2.4-0.9l1.4,3.6c-0.9,0.7-1.9,1.1-3.1,1.4s-2.2,0.5-3,0.5c-3,0-5.3-0.9-7-2.6s-2.5-4.1-2.5-7     s0.8-5.3,2.5-7.1c1.7-1.8,4-2.7,7-2.7c0.8,0,1.8,0.2,3,0.5s2.3,0.8,3.2,1.4l-1.4,3.5c-0.9-0.4-1.7-0.7-2.4-0.9     C114.9,316.8,114.2,316.7,113.3,316.7z"
           id="path22" />
        <path
           d="M123.5,304.8c0.8,0,1.4,0.3,2,0.8c0.5,0.5,0.8,1.2,0.8,2s-0.3,1.4-0.8,2c-0.5,0.5-1.2,0.8-2,0.8s-1.4-0.3-1.9-0.8     s-0.8-1.2-0.8-2s0.3-1.4,0.8-2C122.1,305.1,122.8,304.8,123.5,304.8z M126,313v18.4h-4.9V313H126z"
           id="path24" />
        <path
           d="M135,331.8c-2.3,0-3.9-0.5-5-1.7c-1.1-1.1-1.6-2.5-1.6-4.3c0-1.9,0.6-3.4,1.9-4.4c1.3-1,3-1.5,5-1.5h3.6     c0-0.9-0.3-1.7-0.8-2.2s-1.2-0.8-2.1-0.8c-0.9,0-1.8,0.1-2.8,0.4c-1,0.2-1.9,0.5-2.5,0.9l-1.3-4.1c0.7-0.5,1.8-0.9,3.2-1.2     c1.5-0.3,2.6-0.5,3.4-0.5c2.2,0,4.1,0.6,5.7,1.9c1.6,1.3,2.4,2.9,2.4,4.9v12.1h-2.5l-1.2-1.6c-0.7,0.5-1.5,1-2.4,1.4     S135.9,331.8,135,331.8z M132.6,325.9c0,0.5,0.2,1,0.6,1.4c0.4,0.4,1,0.6,1.7,0.6s1.4-0.2,2.1-0.5c0.7-0.3,1.4-0.8,2-1.4v-2.8     h-3.7c-0.9,0-1.5,0.3-2,0.8C132.8,324.6,132.6,325.2,132.6,325.9z"
           id="path26" />
        <path
           d="M155.3,316.7c-1.4,0-2.5,0.5-3.3,1.6c-0.8,1-1.2,2.4-1.2,3.9c0,1.6,0.4,2.9,1.2,3.9s1.9,1.5,3.3,1.5     c0.9,0,1.6-0.1,2.3-0.3c0.7-0.2,1.5-0.5,2.4-0.9l1.4,3.6c-0.9,0.7-1.9,1.1-3.1,1.4c-1.2,0.3-2.2,0.5-3,0.5c-3,0-5.3-0.9-7-2.6     s-2.5-4.1-2.5-7s0.8-5.3,2.5-7.1c1.7-1.8,4-2.7,7-2.7c0.8,0,1.8,0.2,3,0.5s2.3,0.8,3.2,1.4l-1.4,3.5c-0.9-0.4-1.7-0.7-2.4-0.9     C157,316.8,156.2,316.7,155.3,316.7z"
           id="path28" />
        <path
           d="M165.6,304.8c0.8,0,1.4,0.3,2,0.8c0.5,0.5,0.8,1.2,0.8,2s-0.3,1.4-0.8,2c-0.5,0.5-1.2,0.8-2,0.8s-1.4-0.3-1.9-0.8     s-0.8-1.2-0.8-2s0.3-1.4,0.8-2C164.2,305.1,164.8,304.8,165.6,304.8z M168,313v18.4h-4.9V313H168z"
           id="path30" />
        <path
           d="M179.4,331.8c-2.9,0-5.2-0.9-6.8-2.7s-2.4-4.1-2.4-7.1c0-2.9,0.9-5.3,2.6-7c1.7-1.7,4-2.6,7-2.6c3.1,0,5.4,0.9,7.1,2.7     c1.7,1.8,2.5,4.2,2.5,7.1s-0.9,5.2-2.7,6.9C184.8,331,182.4,331.8,179.4,331.8z M184.3,322.3c0-1.7-0.4-3.1-1.2-4.1     s-1.9-1.5-3.3-1.5c-1.4,0-2.6,0.4-3.4,1.3c-0.8,0.9-1.2,2.2-1.2,4.1s0.3,3.2,1,4.1s1.8,1.4,3.2,1.4s2.6-0.4,3.5-1.3     C183.8,325.5,184.3,324.2,184.3,322.3z M179,302.8h5l-3.6,6.2h-3.8L179,302.8z"
           id="path32" />
        <path
           d="M195.5,315c0.8-0.8,1.9-1.5,3.1-2c1.3-0.5,2.4-0.7,3.4-0.7c2.5,0,4.3,0.7,5.3,2.2s1.6,3.3,1.6,5.4v11.5H204v-11.3     c0-1.2-0.3-2.1-0.8-2.7c-0.6-0.6-1.4-0.9-2.4-0.9c-0.7,0-1.4,0.2-2.2,0.5c-0.8,0.4-1.5,0.8-2.1,1.3v13.1h-4.9V313h2.6L195.5,315z     "
           id="path34" />
      </g>
      <g
         id="g48">
        <path
           d="M78.3,349.8c-2.4-0.7-4.3-1.3-5.9-1.7c-1.5-0.4-3.5-0.6-5.9-0.6c-4.4,0-7.8,1.8-10.2,5.4s-3.6,8.5-3.6,14.7     c0,5.4,1,10,3,13.9s5.4,5.9,10.1,5.9c2.3,0,4.5-0.2,6.6-0.7s3.9-1.1,5.6-1.8l4,7.8c-2.1,1.1-4.7,2-7.7,2.6c-3,0.7-5.6,1-7.9,1     c-8.6,0-14.9-2.8-18.8-8.3s-5.9-12.3-5.9-20.3c0-8.5,2.2-15.5,6.5-20.9s10.5-8.1,18.6-8.1c1.6,0,3.9,0.3,6.8,0.8s5.5,1.5,7.9,2.8     L78.3,349.8z"
           id="path38" />
        <path
           d="M101.9,338.1c1.7,0,3.1,0.6,4.3,1.7c1.2,1.1,1.8,2.6,1.8,4.2c0,1.7-0.6,3.1-1.8,4.2c-1.2,1.1-2.6,1.7-4.3,1.7     c-1.6,0-3-0.6-4.2-1.7c-1.1-1.1-1.7-2.6-1.7-4.2c0-1.7,0.6-3.1,1.7-4.2S100.3,338.1,101.9,338.1z M107.2,355.6v39.5H96.6v-39.5     H107.2z"
           id="path40" />
        <path
           d="M134.1,395.1l-15.1-38l10.9-1.5l9.1,23.9l8.6-23.9h11.2l-15.6,39.5H134.1z"
           id="path42" />
        <path
           d="M175.7,338.1c1.7,0,3.1,0.6,4.3,1.7s1.8,2.6,1.8,4.2c0,1.7-0.6,3.1-1.8,4.2s-2.6,1.7-4.3,1.7c-1.6,0-3-0.6-4.2-1.7     c-1.1-1.1-1.7-2.6-1.7-4.2c0-1.7,0.6-3.1,1.7-4.2S174.1,338.1,175.7,338.1z M181,355.6v39.5h-10.6v-39.5H181z"
           id="path44" />
        <path
           d="M208.4,337.6v57.5h-10.5v-56.6L208.4,337.6z"
           id="path46" />
      </g>
    </g>
    <g
       id="g70">
      <path
         d="M189.6,162.8c-0.6,14.2-8.2,27.3-20.2,34.9c12,7.6,19.6,20.7,20.2,34.9c11.9-7.5,19.2-20.7,19.2-34.9    C208.8,183.6,201.6,170.4,189.6,162.8z"
         id="path52" />
      <path
         d="M103.1,159.4c0.6-14.2,8.1-27.3,20.1-34.9c-5.9-3.1-12.5-4.7-19.2-4.7c-22.2,0-40.4,17.6-41.2,39.6c6.2-3.2,13.1-5,20.1-5    C90,154.4,96.9,156.1,103.1,159.4z"
         id="path54" />
      <path
         d="M105.1,159.4c6.2-3.3,13.1-5,20.1-5c7.6,0,15.1,2,21.6,5.8c12.8,7.4,21,21,21.6,35.7c11.9-7.5,19.2-20.7,19.2-34.9l0,0    c0-22.8-18.5-41.3-41.3-41.3c-7.2,0-14.4,1.9-20.6,5.5C113.5,132.4,105.8,145.3,105.1,159.4z"
         id="path56" />
      <path
         d="M103.1,236c-6.2,3.3-13.1,5-20.2,5c-7,0-13.9-1.7-20.1-5c0.9,22,19.1,39.6,41.2,39.6c6.7,0,13.3-1.6,19.1-4.7    C111.3,263.2,103.8,250.1,103.1,236z"
         id="path58" />
      <path
         d="M168.6,199.4c-0.6,14.7-8.8,28.3-21.6,35.7c-6.6,3.8-14,5.8-21.6,5.8c-7,0-13.9-1.7-20.1-5c0.6,14,8.4,27,20.6,34    c6.3,3.6,13.4,5.5,20.6,5.5c22.8,0,41.3-18.5,41.3-41.3l0,0C187.6,220.2,180.3,207,168.6,199.4z"
         id="path60" />
      <path
         d="M102.1,234.2C89.6,226.3,82,212.4,82,197.6c0-14.8,7.7-28.7,20.1-36.6c-5.9-3.1-12.5-4.7-19.2-4.7    c-7.2,0-14.4,1.9-20.6,5.5c-12.7,7.4-20.6,21.1-20.6,35.7c0,14.7,7.9,28.4,20.6,35.7c6.3,3.6,13.4,5.5,20.6,5.5    C89.6,239,96.3,237.3,102.1,234.2z"
         id="path62" />
      <path
         d="M161.6,178.2c0.3,1.3,0.2,2.7-0.5,4c-1.4,2.5-4.6,3.4-7.1,1.9c-2.5-1.4-3.4-4.6-1.9-7.1s4.6-3.4,7.1-1.9    c0.4,0.3,0.8,0.6,1.1,0.9c-3.5-5.7-8.4-10.6-14.4-14.1c-6.3-3.6-13.4-5.5-20.6-5.5c-6.7,0-13.3,1.6-19.2,4.7    c12.3,7.8,19.9,21.4,20.1,36c5.3,3,11.3,4.7,17.4,5.2c0,0,0,0-0.1,0c-2.5-1.4-3.4-4.6-1.9-7.1c1.4-2.5,4.6-3.4,7.1-1.9    c2.5,1.4,3.4,4.6,1.9,7.1c-0.5,0.9-1.2,1.5-2.1,2c6.3-0.3,12.4-2.1,17.9-5.2C166.4,190.4,164.8,184,161.6,178.2z"
         id="path64" />
      <path
         d="M124,238.9c-0.5-0.1-1-0.3-1.4-0.5c-2.5-1.4-3.4-4.6-1.9-7.1s4.6-3.4,7.1-1.9c2.5,1.4,3.4,4.6,1.9,7.1    c-0.7,1.3-1.9,2.1-3.2,2.4c6.8-0.2,13.5-2.1,19.3-5.5c12.2-7.1,20-20,20.6-34c-6.2,3.2-13.1,5-20.1,5c-7.4,0-14.7-1.9-21.1-5.5    c-5.3,3.2-9.8,7.5-13.2,12.5c1.6-0.9,3.6-1.1,5.3-0.1c2.5,1.4,3.4,4.6,1.9,7.1c-1.4,2.5-4.6,3.4-7.1,1.9c-1.7-1-2.6-2.8-2.6-4.7    c-2.8,5.5-4.4,11.7-4.5,18.1C110.9,236.9,117.4,238.7,124,238.9z"
         id="path66" />
      <path
         d="M112.3,184.1c-2.5-1.4-3.4-4.6-1.9-7.1s4.6-3.4,7.1-1.9c0.1,0,0.1,0.1,0.2,0.1c-3.4-5.3-8.1-9.8-13.5-13    c-5.8,3.4-10.5,8.2-13.9,13.7c1.6-1.7,4.2-2.1,6.3-0.9c2.5,1.4,3.4,4.6,1.9,7.1s-4.6,3.4-7.1,1.9c-2.1-1.2-3-3.7-2.4-5.9    c-3.2,5.9-4.9,12.6-4.9,19.5c0,7.2,1.9,14.4,5.5,20.6c3.3,5.8,8,10.7,13.7,14.2c0.6-14.6,8.6-28,21.1-35.4    c-0.1-6.1-1.5-12.2-4.2-17.7c0,0.9-0.2,1.9-0.7,2.8C117.9,184.7,114.8,185.6,112.3,184.1z"
         id="path68" />
    </g>
  </g>
</svg>
