<?xml version="1.0" encoding="UTF-8" standalone="no"?>
<svg
   xmlns:dc="http://purl.org/dc/elements/1.1/"
   xmlns:cc="http://creativecommons.org/ns#"
   xmlns:rdf="http://www.w3.org/1999/02/22-rdf-syntax-ns#"
   xmlns:svg="http://www.w3.org/2000/svg"
   xmlns="http://www.w3.org/2000/svg"
   xmlns:sodipodi="http://sodipodi.sourceforge.net/DTD/sodipodi-0.dtd"
   xmlns:inkscape="http://www.inkscape.org/namespaces/inkscape"
   version="1.1"
   id="PyAr_Asociacion_Civil"
   x="0px"
   y="0px"
   viewBox="0 0 501.6 228.2"
   sodipodi:docname="Color horizontal.svg"
   inkscape:export-filename="/home/facundo/devel/reps/asoc/isologos/asoccivil/Color horizontal.png"
   inkscape:export-xdpi="299"
   inkscape:export-ydpi="299"
   inkscape:version="0.92.3 (2405546, 2018-03-11)">
  <metadata
     id="metadata99">
    <rdf:RDF>
      <cc:Work
         rdf:about="">
        <dc:format>image/svg+xml</dc:format>
        <dc:type
           rdf:resource="http://purl.org/dc/dcmitype/StillImage" />
      </cc:Work>
    </rdf:RDF>
  </metadata>
  <defs
     id="defs97" />
  <sodipodi:namedview
     pagecolor="#ffffff"
     bordercolor="#666666"
     borderopacity="1"
     objecttolerance="10"
     gridtolerance="10"
     guidetolerance="10"
     inkscape:pageopacity="0"
     inkscape:pageshadow="2"
     inkscape:window-width="1920"
     inkscape:window-height="993"
     id="namedview95"
     showgrid="false"
     inkscape:zoom="0.78149919"
     inkscape:cx="250.8"
     inkscape:cy="114.1"
     inkscape:window-x="0"
     inkscape:window-y="30"
     inkscape:window-maximized="1"
     inkscape:current-layer="PyAr_Asociacion_Civil" />
  <style
     type="text/css"
     id="style2">
	.st0{fill:none;}
	.st1{fill:#FFC709;}
	.st2{fill:#00AEEF;}
	.st3{fill:#EC008C;}
	.st4{fill:#FFFFFF;}
</style>
  <g
     id="g92">
    <rect
       y="0"
       class="st0"
       width="501.6"
       height="228.2"
       id="rect4" />
    <g
       id="g48">
      <path
         class="st1"
         d="M208.9,114c0-15.5-8.4-28.9-20.9-36.2c0,15.5-8.4,28.9-20.9,36.2l0,0l0,0c12.5,7.2,20.9,20.7,20.9,36.2    C200.5,142.9,208.9,129.4,208.9,114z"
         id="path6" />
      <path
         class="st2"
         d="M104.5,150.2L104.5,150.2c-6.1,3.6-13.3,5.6-20.9,5.6s-14.7-2-20.9-5.6l0,0c0,23.1,18.7,41.8,41.8,41.8    c7.6,0,14.7-2,20.9-5.6C112.9,179.1,104.5,165.6,104.5,150.2z"
         id="path8" />
      <path
         class="st3"
         d="M188,150.2c0-15.5-8.4-28.9-20.9-36.2c0,15.5-8.4,28.9-20.9,36.2l0,0l0,0c-6.1,3.6-13.3,5.6-20.9,5.6    s-14.7-2-20.9-5.6l0,0l0,0c0,15.5,8.4,29,20.9,36.2c6.1,3.6,13.3,5.6,20.9,5.6C169.3,191.9,188,173.2,188,150.2L188,150.2z"
         id="path10" />
      <path
         class="st3"
         d="M104.5,77.8L104.5,77.8c0-15.5,8.4-29,20.9-36.2c-6.1-3.6-13.3-5.6-20.9-5.6c-23.1,0-41.8,18.7-41.8,41.8l0,0    c6.1-3.6,13.3-5.6,20.9-5.6C91.2,72.2,98.3,74.3,104.5,77.8z"
         id="path12" />
      <path
         class="st2"
         d="M146.2,36c-7.6,0-14.7,2-20.9,5.6c-12.5,7.2-20.9,20.7-20.9,36.2l0,0l0,0c6.1-3.6,13.3-5.6,20.9-5.6    s14.7,2,20.9,5.6l0,0l0,0c12.5,7.2,20.9,20.7,20.9,36.2c12.5-7.2,20.9-20.7,20.9-36.2l0,0C188,54.7,169.3,36,146.2,36z"
         id="path14" />
      <path
         class="st1"
         d="M83.6,114L83.6,114L83.6,114c0-15.5,8.4-29,20.9-36.2l0,0c-6.1-3.6-13.3-5.6-20.9-5.6s-14.7,2-20.9,5.6    C50.2,85,41.8,98.5,41.8,114s8.4,28.9,20.9,36.2c6.1,3.6,13.3,5.6,20.9,5.6s14.7-2,20.9-5.6l0,0C92,142.9,83.6,129.4,83.6,114z"
         id="path16" />
      <g
         id="g26">
        <path
           class="st1"
           d="M167.1,114c-6.1,3.6-13.3,5.6-20.9,5.6c-7.6,0-14.7-2-20.9-5.6l0,0l0,0l0,0l0,0     c-12.5,7.2-20.9,20.7-20.9,36.2l0,0c6.1,3.6,13.3,5.6,20.9,5.6s14.7-2,20.9-5.6l0,0C158.7,142.9,167.1,129.4,167.1,114L167.1,114     z"
           id="path18" />
        <g
           id="g24">
          <ellipse
             transform="matrix(0.5 -0.866 0.866 0.5 -67.3319 183.6724)"
             class="st4"
             cx="125.4"
             cy="150.1"
             rx="5.2"
             ry="5.2"
             id="ellipse20" />
          <ellipse
             transform="matrix(0.5 -0.866 0.866 0.5 -56.9735 165.5565)"
             class="st4"
             cx="114.9"
             cy="132.1"
             rx="5.2"
             ry="5.2"
             id="ellipse22" />
        </g>
      </g>
      <g
         id="g36">
        <path
           class="st2"
           d="M125.3,114L125.3,114c0-15.5-8.4-28.9-20.9-36.2l0,0C92,85,83.6,98.5,83.6,114l0,0l0,0     c0,15.5,8.4,28.9,20.9,36.2C104.5,134.7,112.9,121.2,125.3,114L125.3,114L125.3,114z"
           id="path28" />
        <g
           id="g34">
          <ellipse
             transform="matrix(0.5 -0.866 0.866 0.5 -25.6009 147.4441)"
             class="st4"
             cx="114.9"
             cy="95.9"
             rx="5.2"
             ry="5.2"
             id="ellipse30" />
          <ellipse
             transform="matrix(0.5 -0.866 0.866 0.5 -36.0569 129.334)"
             class="st4"
             cx="94"
             cy="95.9"
             rx="5.2"
             ry="5.2"
             id="ellipse32" />
        </g>
      </g>
      <g
         id="g46">
        <path
           class="st3"
           d="M146.2,77.8L146.2,77.8c-6.1-3.6-13.3-5.6-20.9-5.6s-14.7,2-20.9,5.6c12.5,7.2,20.9,20.7,20.9,36.2l0,0l0,0     l0,0c6.1,3.6,13.3,5.6,20.9,5.6s14.7-2,20.9-5.6l0,0C167.1,98.5,158.7,85,146.2,77.8z"
           id="path38" />
        <g
           id="g44">
          <ellipse
             transform="matrix(0.5 -0.866 0.866 0.5 -25.6502 183.5802)"
             class="st4"
             cx="146.2"
             cy="114"
             rx="5.2"
             ry="5.2"
             id="ellipse40" />
          <ellipse
             transform="matrix(0.5 -0.866 0.866 0.5 -4.6907 183.6634)"
             class="st4"
             cx="156.7"
             cy="95.9"
             rx="5.2"
             ry="5.2"
             id="ellipse42" />
        </g>
      </g>
    </g>
    <g
       id="g58">
      <path
         class="st2"
         d="M250.9,109V36.1h22.8c7.9,0,14.7,1.8,20.4,5.4c5.6,3.6,8.5,9.6,8.5,18c-0.1,8.3-3.1,14.4-9.2,18.3    c-6,3.9-12.9,5.8-20.6,5.8h-8V109H250.9z M273.3,47.7h-8.6v24.4h8.8c4.1,0,7.5-0.9,10.1-2.8c2.6-1.9,4-4.9,4.3-9    c0-4.7-1.3-8-3.9-9.9C281.5,48.6,277.9,47.7,273.3,47.7z"
         id="path50" />
      <path
         class="st2"
         d="M325.9,111.5l2.5-6.1l-18.5-46.4l14.4-1.9l12,31.5L347.5,57h14.7l-20.5,52l-2.8,6.9    c-1.6,4.2-4.5,7.8-8.7,10.8c-4.1,3-8.5,5-13.1,6.1l-4.9-11.5c2.5-1.1,5.2-2.4,8-3.9C323.1,115.9,324.9,113.9,325.9,111.5z"
         id="path52" />
      <path
         class="st2"
         d="M392.9,36.1l28.3,71l-13.9,1.9l-6.5-17.2H373l-6.4,17.2h-13.9l28.4-72.9H392.9z M386.7,55.2l-9.5,25.4h19.3    L386.7,55.2z"
         id="path54" />
      <path
         class="st2"
         d="M457,57l2.8,11.2c-2.4,0-5.1,0.7-8.2,2c-3.1,1.4-6.2,3.4-9.2,6V109h-13.9V57h7.3l4.6,7.6    c2.1-1.9,4.8-3.6,7.8-5.2C451.3,57.8,454.2,57,457,57z"
         id="path56" />
    </g>
    <g
       id="g90">
      <path
         class="st2"
         d="M264.2,138.7l9,22.5l-4.4,0.6l-2.1-5.4h-8.8l-2,5.4h-4.4l9-23.1H264.2z M262.2,144.8l-3,8.1h6.1L262.2,144.8z    "
         id="path60" />
      <path
         class="st2"
         d="M288.3,149.8c-0.8-0.4-1.5-0.6-2.2-0.8c-0.7-0.2-1.4-0.3-2.2-0.3c-0.6,0-1,0.1-1.3,0.3    c-0.3,0.2-0.5,0.5-0.5,0.9c0,0.3,0.2,0.5,0.6,0.8c0.4,0.3,1,0.5,1.8,0.8c1.4,0.5,2.7,1.2,3.8,2.1c1.2,0.9,1.8,2.1,1.8,3.5    c0,1.6-0.6,2.9-1.8,3.8c-1.2,0.9-2.9,1.4-5.1,1.4c-0.7,0-1.6-0.1-2.8-0.4c-1.2-0.3-2.1-0.7-2.9-1.3l1.3-3.2    c0.8,0.4,1.6,0.6,2.3,0.8c0.7,0.2,1.4,0.3,2,0.3c0.8,0,1.4-0.1,1.9-0.3s0.6-0.5,0.6-0.9c0-0.5-0.2-0.9-0.6-1.2    c-0.4-0.4-1.1-0.7-2-1c-1.3-0.4-2.6-1-3.7-1.9c-1.2-0.8-1.8-1.9-1.8-3.2c0-1.6,0.6-2.8,1.7-3.7c1.2-0.9,2.7-1.3,4.7-1.3    c0.7,0,1.6,0.1,2.7,0.4c1.1,0.3,2.1,0.7,2.9,1.3L288.3,149.8z"
         id="path62" />
      <path
         class="st2"
         d="M304.1,162.2c-2.6,0-4.6-0.8-6.1-2.4c-1.5-1.6-2.2-3.7-2.2-6.3c0-2.6,0.8-4.7,2.3-6.3    c1.5-1.6,3.6-2.3,6.3-2.3c2.7,0,4.9,0.8,6.4,2.4c1.5,1.6,2.3,3.7,2.3,6.4c0,2.6-0.8,4.7-2.4,6.2    C309,161.4,306.8,162.2,304.1,162.2z M308.5,153.7c0-1.6-0.3-2.8-1-3.7c-0.7-0.9-1.7-1.3-2.9-1.3c-1.3,0-2.3,0.4-3,1.2    c-0.7,0.8-1.1,2-1.1,3.6s0.3,2.9,0.9,3.7c0.6,0.8,1.6,1.3,2.9,1.3c1.3,0,2.3-0.4,3.1-1.1C308.1,156.6,308.5,155.4,308.5,153.7z"
         id="path64" />
      <path
         class="st2"
         d="M327.6,148.7c-1.2,0-2.2,0.5-2.9,1.4c-0.7,0.9-1.1,2.1-1.1,3.5c0,1.4,0.4,2.6,1.1,3.5    c0.7,0.9,1.7,1.4,2.9,1.4c0.8,0,1.5-0.1,2.1-0.3c0.6-0.2,1.3-0.5,2.1-0.8l1.3,3.2c-0.8,0.6-1.7,1-2.8,1.3c-1.1,0.3-2,0.4-2.7,0.4    c-2.7,0-4.8-0.8-6.3-2.3c-1.5-1.6-2.2-3.7-2.2-6.3c0-2.6,0.7-4.7,2.2-6.3s3.6-2.4,6.3-2.4c0.7,0,1.6,0.1,2.7,0.4    c1.1,0.3,2,0.7,2.8,1.3l-1.3,3.2c-0.8-0.4-1.5-0.6-2.1-0.8C329.1,148.8,328.4,148.7,327.6,148.7z"
         id="path66" />
      <path
         class="st2"
         d="M341.7,138c0.7,0,1.3,0.2,1.8,0.7s0.7,1.1,0.7,1.8c0,0.7-0.2,1.3-0.7,1.8c-0.5,0.5-1.1,0.7-1.8,0.7    c-0.7,0-1.3-0.2-1.7-0.7c-0.5-0.5-0.7-1.1-0.7-1.8c0-0.7,0.2-1.3,0.7-1.8C340.5,138.3,341,138,341.7,138z M343.9,145.3v16.5h-4.4    v-16.5H343.9z"
         id="path68" />
      <path
         class="st2"
         d="M356.9,162.2c-2,0-3.5-0.5-4.5-1.5c-1-1-1.5-2.3-1.5-3.9c0-1.7,0.6-3,1.7-3.9s2.7-1.4,4.5-1.4h3.2    c0-0.8-0.3-1.5-0.7-2c-0.5-0.5-1.1-0.7-1.9-0.7c-0.8,0-1.6,0.1-2.5,0.3c-0.9,0.2-1.7,0.5-2.3,0.8l-1.2-3.7    c0.6-0.4,1.6-0.8,2.9-1.1c1.3-0.3,2.3-0.4,3-0.4c2,0,3.7,0.6,5.1,1.7s2.1,2.6,2.1,4.4v10.8h-2.3l-1.1-1.4    c-0.6,0.5-1.3,0.9-2.2,1.3S357.7,162.2,356.9,162.2z M354.7,156.9c0,0.5,0.2,0.9,0.6,1.3c0.4,0.4,0.9,0.6,1.5,0.6    c0.6,0,1.2-0.1,1.9-0.4c0.6-0.3,1.2-0.7,1.8-1.2v-2.5h-3.3c-0.8,0-1.4,0.2-1.8,0.7C354.9,155.8,354.7,156.3,354.7,156.9z"
         id="path70" />
      <path
         class="st2"
         d="M380,148.7c-1.2,0-2.2,0.5-2.9,1.4c-0.7,0.9-1.1,2.1-1.1,3.5c0,1.4,0.4,2.6,1.1,3.5c0.7,0.9,1.7,1.4,2.9,1.4    c0.8,0,1.5-0.1,2.1-0.3c0.6-0.2,1.3-0.5,2.1-0.8l1.3,3.2c-0.8,0.6-1.7,1-2.8,1.3c-1.1,0.3-2,0.4-2.7,0.4c-2.7,0-4.8-0.8-6.3-2.3    c-1.5-1.6-2.2-3.7-2.2-6.3c0-2.6,0.7-4.7,2.2-6.3s3.6-2.4,6.3-2.4c0.7,0,1.6,0.1,2.7,0.4c1.1,0.3,2,0.7,2.8,1.3l-1.3,3.2    c-0.8-0.4-1.5-0.6-2.1-0.8C381.5,148.8,380.8,148.7,380,148.7z"
         id="path72" />
      <path
         class="st2"
         d="M394.1,138c0.7,0,1.3,0.2,1.8,0.7s0.7,1.1,0.7,1.8c0,0.7-0.2,1.3-0.7,1.8c-0.5,0.5-1.1,0.7-1.8,0.7    c-0.7,0-1.3-0.2-1.7-0.7c-0.5-0.5-0.7-1.1-0.7-1.8c0-0.7,0.2-1.3,0.7-1.8C392.8,138.3,393.4,138,394.1,138z M396.3,145.3v16.5    h-4.4v-16.5H396.3z"
         id="path74" />
      <path
         class="st2"
         d="M411.4,162.2c-2.6,0-4.6-0.8-6.1-2.4c-1.5-1.6-2.2-3.7-2.2-6.3c0-2.6,0.8-4.7,2.3-6.3    c1.5-1.6,3.6-2.3,6.3-2.3c2.7,0,4.9,0.8,6.4,2.4c1.5,1.6,2.3,3.7,2.3,6.4c0,2.6-0.8,4.7-2.4,6.2    C416.2,161.4,414.1,162.2,411.4,162.2z M415.7,153.7c0-1.6-0.3-2.8-1-3.7c-0.7-0.9-1.7-1.3-2.9-1.3c-1.3,0-2.3,0.4-3,1.2    c-0.7,0.8-1.1,2-1.1,3.6s0.3,2.9,0.9,3.7c0.6,0.8,1.6,1.3,2.9,1.3c1.3,0,2.3-0.4,3.1-1.1C415.3,156.6,415.7,155.4,415.7,153.7z     M411,136.2h4.5l-3.2,5.6H409L411,136.2z"
         id="path76" />
      <path
         class="st2"
         d="M430.7,147.1c0.7-0.7,1.7-1.3,2.8-1.8c1.1-0.4,2.1-0.6,3-0.6c2.2,0,3.8,0.7,4.8,2s1.4,2.9,1.4,4.8v10.3h-4.4    v-10.1c0-1-0.3-1.8-0.7-2.4c-0.5-0.6-1.2-0.8-2.2-0.8c-0.6,0-1.3,0.2-2,0.5c-0.7,0.3-1.3,0.7-1.9,1.1v11.7H427v-16.5h2.3    L430.7,147.1z"
         id="path78" />
      <path
         class="st2"
         d="M326.9,172.9c-1-0.3-1.8-0.5-2.4-0.7s-1.5-0.3-2.4-0.3c-1.8,0-3.3,0.7-4.3,2.2c-1,1.5-1.5,3.5-1.5,6.2    c0,2.2,0.4,4.2,1.3,5.8c0.8,1.6,2.2,2.4,4.2,2.4c1,0,1.9-0.1,2.7-0.3c0.9-0.2,1.6-0.5,2.3-0.7l1.7,3.3c-0.9,0.5-1.9,0.8-3.2,1.1    c-1.2,0.3-2.3,0.4-3.3,0.4c-3.6,0-6.2-1.2-7.9-3.5c-1.6-2.3-2.4-5.1-2.4-8.5c0-3.6,0.9-6.5,2.7-8.7c1.8-2.3,4.4-3.4,7.8-3.4    c0.7,0,1.6,0.1,2.8,0.3s2.3,0.6,3.3,1.2L326.9,172.9z"
         id="path80" />
      <path
         class="st2"
         d="M337.4,168c0.7,0,1.3,0.2,1.8,0.7s0.7,1.1,0.7,1.8c0,0.7-0.2,1.3-0.7,1.8c-0.5,0.5-1.1,0.7-1.8,0.7    c-0.7,0-1.3-0.2-1.7-0.7c-0.5-0.5-0.7-1.1-0.7-1.8c0-0.7,0.2-1.3,0.7-1.8C336.1,168.3,336.7,168,337.4,168z M339.6,175.3v16.5    h-4.4v-16.5H339.6z"
         id="path82" />
      <path
         class="st2"
         d="M351.5,191.8l-6.3-15.9l4.6-0.6l3.8,10l3.6-10h4.7l-6.5,16.5H351.5z"
         id="path84" />
      <path
         class="st2"
         d="M369.5,168c0.7,0,1.3,0.2,1.8,0.7c0.5,0.5,0.7,1.1,0.7,1.8c0,0.7-0.2,1.3-0.7,1.8c-0.5,0.5-1.1,0.7-1.8,0.7    c-0.7,0-1.3-0.2-1.7-0.7c-0.5-0.5-0.7-1.1-0.7-1.8c0-0.7,0.2-1.3,0.7-1.8C368.2,168.3,368.8,168,369.5,168z M371.7,175.3v16.5    h-4.4v-16.5H371.7z"
         id="path86" />
      <path
         class="st2"
         d="M383.8,167.8v24h-4.4v-23.6L383.8,167.8z"
         id="path88" />
    </g>
  </g>
</svg>
