<?xml version="1.0" encoding="UTF-8" standalone="no"?>
<svg
   xmlns:dc="http://purl.org/dc/elements/1.1/"
   xmlns:cc="http://creativecommons.org/ns#"
   xmlns:rdf="http://www.w3.org/1999/02/22-rdf-syntax-ns#"
   xmlns:svg="http://www.w3.org/2000/svg"
   xmlns="http://www.w3.org/2000/svg"
   xmlns:sodipodi="http://sodipodi.sourceforge.net/DTD/sodipodi-0.dtd"
   xmlns:inkscape="http://www.inkscape.org/namespaces/inkscape"
   version="1.1"
   id="PyAr Asociacion Civil"
   x="0px"
   y="0px"
   viewBox="0 0 227.19999 216"
   sodipodi:docname="Mergeado.svg"
   inkscape:export-filename="/home/facundo/devel/reps/asoc/isologos/asoccivil/Mergeado.png"
   inkscape:export-xdpi="300"
   inkscape:export-ydpi="300"
   inkscape:version="1.0.1 (1.0.1+r74)"
   width="227.2"
   height="216">
  <g
     id="g878"
     transform="translate(-0.80100553)">
    <g
       id="g1030"
       transform="translate(-10.898996,-89.7)">
      <path
         class="st4"
         d="m 208.9,197.7 c 0,-15.5 -8.4,-28.9 -20.9,-36.2 0,15.5 -8.4,28.9 -20.9,36.2 0,0 0,0 0,0 0,0 0,0 0,0 12.5,7.2 20.9,20.7 20.9,36.2 12.5,-7.3 20.9,-20.8 20.9,-36.2 z"
         id="path25" />
      <path
         class="st0"
         d="m 104.4,233.9 c 0,0 0,0 0,0 -6.1,3.6 -13.3,5.6 -20.9,5.6 -7.6,0 -14.7,-2 -20.9,-5.6 0,0 0,0 0,0 0,23.1 18.7,41.8 41.8,41.8 7.6,0 14.7,-2 20.9,-5.6 -12.5,-7.3 -20.9,-20.8 -20.9,-36.2 z"
         id="path27" />
      <path
         class="st5"
         d="m 188,233.9 c 0,-15.5 -8.4,-28.9 -20.9,-36.2 0,15.5 -8.4,28.9 -20.9,36.2 v 0 c 0,0 0,0 0,0 -6.1,3.6 -13.3,5.6 -20.9,5.6 -7.6,0 -14.7,-2 -20.9,-5.6 0,0 0,0 0,0 0,0 0,0 0,0 0,15.5 8.4,29 20.9,36.2 6.1,3.6 13.3,5.6 20.9,5.6 23.1,-0.1 41.8,-18.8 41.8,-41.8 0,0 0,0 0,0 z"
         id="path29" />
      <path
         class="st5"
         d="m 104.4,161.5 c 0,0 0,0 0,0 0,-15.5 8.4,-29 20.9,-36.2 -6.1,-3.6 -13.3,-5.6 -20.9,-5.6 -23.1,0 -41.8,18.7 -41.8,41.8 0,0 0,0 0,0 6.1,-3.6 13.3,-5.6 20.9,-5.6 7.7,0 14.8,2.1 20.9,5.6 z"
         id="path31" />
      <path
         class="st0"
         d="m 146.2,119.7 c -7.6,0 -14.7,2 -20.9,5.6 -12.5,7.2 -20.9,20.7 -20.9,36.2 0,0 0,0 0,0 v 0 c 6.1,-3.6 13.3,-5.6 20.9,-5.6 7.6,0 14.7,2 20.9,5.6 0,0 0,0 0,0 v 0 c 12.5,7.2 20.9,20.7 20.9,36.2 12.5,-7.2 20.9,-20.7 20.9,-36.2 0,0 0,0 0,0 0,-23.1 -18.7,-41.8 -41.8,-41.8 z"
         id="path33" />
      <path
         class="st4"
         d="m 83.5,197.7 c 0,0 0,0 0,0 0,0 0,0 0,0 0,-15.5 8.4,-29 20.9,-36.2 v 0 c -6.1,-3.6 -13.3,-5.6 -20.9,-5.6 -7.6,0 -14.7,2 -20.9,5.6 -12.5,7.2 -20.9,20.7 -20.9,36.2 0,15.5 8.4,28.9 20.9,36.2 6.1,3.6 13.3,5.6 20.9,5.6 7.6,0 14.7,-2 20.9,-5.6 v 0 C 92,226.6 83.6,213.2 83.5,197.7 Z"
         id="path35" />
      <path
         class="st4"
         d="m 167.1,197.7 c -6.1,3.6 -13.3,5.6 -20.9,5.6 -7.6,0 -14.7,-2 -20.9,-5.6 0,0 0,0 0,0 0,0 0,0 0,0 v 0 c 0,0 0,0 0,0 -12.5,7.2 -20.9,20.7 -20.9,36.2 0,0 0,0 0,0 6.1,3.6 13.3,5.6 20.9,5.6 7.6,0 14.7,-2 20.9,-5.6 0,0 0,0 0,0 12.5,-7.3 20.9,-20.7 20.9,-36.2 0,0 0,0 0,0 z"
         id="path37" />
      <g
         id="g43">
        <circle
           transform="matrix(0.5,-0.866,0.866,0.5,-139.8701,225.4657)"
           class="st3"
           cx="125.3"
           cy="233.89999"
           id="ellipse39"
           r="5.1999998" />
        <circle
           transform="matrix(0.5,-0.866,0.866,0.5,-129.4289,207.383)"
           class="st3"
           cx="114.9"
           cy="215.8"
           id="ellipse41"
           r="5.1999998" />
      </g>
      <path
         class="st0"
         d="m 125.3,197.7 c 0,0 0,0 0,0 0,-15.5 -8.4,-28.9 -20.9,-36.2 0,0 0,0 0,0 -12.5,7.2 -20.9,20.7 -20.9,36.2 0,0 0,0 0,0 0,0 0,0 0,0 0,15.5 8.4,28.9 20.9,36.2 0,-15.5 8.4,-29 20.9,-36.2 0,0 0,0 0,0 0,0 0,0 0,0 z"
         id="path47" />
      <g
         id="g53">
        <circle
           transform="matrix(0.5,-0.866,0.866,0.5,-98.103,189.297)"
           class="st3"
           cx="114.9"
           cy="179.60001"
           id="ellipse49"
           r="5.1999998" />
        <circle
           transform="matrix(0.5,-0.866,0.866,0.5,-108.5461,171.2083)"
           class="st3"
           cx="94"
           cy="179.60001"
           id="ellipse51"
           r="5.1999998" />
      </g>
      <path
         class="st5"
         d="m 146.2,161.5 c 0,0 0,0 0,0 -6.1,-3.6 -13.3,-5.6 -20.9,-5.6 -7.6,0 -14.7,2 -20.9,5.6 12.5,7.2 20.9,20.7 20.9,36.2 v 0 c 0,0 0,0 0,0 0,0 0,0 0,0 6.1,3.6 13.3,5.6 20.9,5.6 7.6,0 14.7,-2 20.9,-5.6 0,0 0,0 0,0 0,-15.5 -8.4,-29 -20.9,-36.2 z"
         id="path57" />
      <g
         id="g63">
        <circle
           transform="matrix(0.5,-0.866,0.866,0.5,-98.1045,225.4717)"
           class="st3"
           cx="146.2"
           cy="197.7"
           id="ellipse59"
           r="5.1999998" />
        <circle
           transform="matrix(0.5,-0.866,0.866,0.5,-77.2151,225.4752)"
           class="st3"
           cx="156.7"
           cy="179.60001"
           id="ellipse61"
           r="5.1999998" />
      </g>
    </g>
    <g
       id="g1056"
       transform="matrix(0.93486021,0,0,0.93486021,4.3446043,-76.522162)">
      <path
         class="st0"
         d="m 143.3737,243.08362 8.94618,22.45492 -4.38363,0.62623 -2.05762,-5.45717 h -8.76726 l -2.05762,5.45717 h -4.38363 l 9.03564,-23.08115 z m -1.96816,5.99394 -3.0417,8.05157 h 6.0834 z"
         id="path69"
         style="fill:#ffffff;fill-opacity:1;stroke-width:0.894618" />
      <path
         class="st0"
         d="m 167.83915,247.56763 c -0.96219,-0.28064 -1.72391,-0.52118 -2.36537,-0.68155 -0.60136,-0.16036 -1.40318,-0.24055 -2.36536,-0.24055 -1.76401,0 -3.1271,0.72163 -4.08929,2.16491 -0.96218,1.44328 -1.44327,3.40773 -1.44327,5.89338 0,2.16491 0.40091,4.00909 1.20273,5.57263 0.80182,1.56355 2.16491,2.36537 4.04918,2.36537 0.9221,0 1.8041,-0.0802 2.64601,-0.28063 0.84191,-0.20046 1.56355,-0.44101 2.2451,-0.72164 l 1.60363,3.12709 c -0.84191,0.441 -1.88428,0.80182 -3.087,1.04237 -1.20273,0.28064 -2.2451,0.4009 -3.16719,0.4009 -3.44782,0 -5.97355,-1.12254 -7.5371,-3.32755 -1.56355,-2.205 -2.36537,-4.93118 -2.36537,-8.13846 0,-3.40773 0.88201,-6.21409 2.60592,-8.379 1.72391,-2.16491 4.20955,-3.24737 7.45692,-3.24737 0.64145,0 1.56354,0.12027 2.72618,0.32073 1.16263,0.20045 2.205,0.60136 3.16719,1.12254 z"
         id="path91"
         style="fill:#ffffff;fill-opacity:1;stroke-width:0.40091" />
    </g>
  </g>
  <metadata
     id="metadata112">
    <rdf:RDF>
      <cc:Work
         rdf:about="">
        <dc:format>image/svg+xml</dc:format>
        <dc:type
           rdf:resource="http://purl.org/dc/dcmitype/StillImage" />
        <dc:title />
      </cc:Work>
    </rdf:RDF>
  </metadata>
  <defs
     id="defs110">
    <defs
       id="defs21">
      <filter
         id="Adobe_OpacityMaskFilter"
         filterUnits="userSpaceOnUse"
         x="41.599998"
         y="25"
         width="167.8"
         height="77.699997">
        <feColorMatrix
           type="matrix"
           values="-1 0 0 0 1  0 -1 0 0 1  0 0 -1 0 1  0 0 0 1 0"
           color-interpolation-filters="sRGB"
           result="source"
           id="feColorMatrix18" />
      </filter>
    </defs>
  </defs>
  <sodipodi:namedview
     pagecolor="#ffffff"
     bordercolor="#666666"
     borderopacity="1"
     objecttolerance="10"
     gridtolerance="10"
     guidetolerance="10"
     inkscape:pageopacity="0"
     inkscape:pageshadow="2"
     inkscape:window-width="1920"
     inkscape:window-height="997"
     id="namedview108"
     showgrid="false"
     inkscape:zoom="1.0798444"
     inkscape:cx="165.7937"
     inkscape:cy="210.25954"
     inkscape:window-x="0"
     inkscape:window-y="28"
     inkscape:window-maximized="1"
     inkscape:current-layer="PyAr Asociacion Civil"
     inkscape:document-rotation="0"
     showguides="true"
     inkscape:guide-bbox="true"
     inkscape:snap-global="false"
     lock-margins="true"
     fit-margin-top="30"
     fit-margin-left="30"
     fit-margin-right="30"
     fit-margin-bottom="30" />
  <style
     type="text/css"
     id="style2">
	.st0{fill:#00AEEF;}
	.st3{fill:#FFFFFF;}
	.st4{fill:#FFC709;}
	.st5{fill:#EC008C;}
	.st7{fill:none;}
</style>
</svg>
