<?xml version="1.0" encoding="UTF-8" standalone="no"?>
<svg
   xmlns:dc="http://purl.org/dc/elements/1.1/"
   xmlns:cc="http://creativecommons.org/ns#"
   xmlns:rdf="http://www.w3.org/1999/02/22-rdf-syntax-ns#"
   xmlns:svg="http://www.w3.org/2000/svg"
   xmlns="http://www.w3.org/2000/svg"
   xmlns:sodipodi="http://sodipodi.sourceforge.net/DTD/sodipodi-0.dtd"
   xmlns:inkscape="http://www.inkscape.org/namespaces/inkscape"
   version="1.1"
   id="PyAr_Asociacion_Civil"
   x="0px"
   y="0px"
   viewBox="0 0 250.6 437.1"
   sodipodi:docname="Monocromo vertical.svg"
   inkscape:export-filename="/home/facundo/devel/reps/asoc/isologos/asoccivil/Monocromo vertical.png"
   inkscape:export-xdpi="299"
   inkscape:export-ydpi="299"
   inkscape:version="0.92.3 (2405546, 2018-03-11)">
  <metadata
     id="metadata107">
    <rdf:RDF>
      <cc:Work
         rdf:about="">
        <dc:format>image/svg+xml</dc:format>
        <dc:type
           rdf:resource="http://purl.org/dc/dcmitype/StillImage" />
      </cc:Work>
    </rdf:RDF>
  </metadata>
  <defs
     id="defs105" />
  <sodipodi:namedview
     pagecolor="#ffffff"
     bordercolor="#666666"
     borderopacity="1"
     objecttolerance="10"
     gridtolerance="10"
     guidetolerance="10"
     inkscape:pageopacity="0"
     inkscape:pageshadow="2"
     inkscape:window-width="1137"
     inkscape:window-height="480"
     id="namedview103"
     showgrid="false"
     inkscape:zoom="0.53992221"
     inkscape:cx="125.3"
     inkscape:cy="218.55"
     inkscape:window-x="0"
     inkscape:window-y="30"
     inkscape:window-maximized="0"
     inkscape:current-layer="PyAr_Asociacion_Civil" />
  <style
     type="text/css"
     id="style2">
	.st0{fill:none;}
	.st1{fill:#6D6E71;}
	.st2{fill:#BCBEC0;}
	.st3{fill:#939598;}
	.st4{fill:#FFFFFF;}
</style>
  <g
     id="g100">
    <rect
       y="0"
       class="st0"
       width="250.6"
       height="437.1"
       id="rect4" />
    <g
       id="g18">
      <g
         id="g16">
        <g
           id="g14">
          <path
             class="st1"
             d="M41.6,83.5V25H60c6.4,0,11.8,1.5,16.4,4.4c4.5,2.9,6.8,7.7,6.8,14.4c-0.1,6.7-2.5,11.6-7.4,14.7      s-10.4,4.7-16.6,4.7h-6.5v20.4L41.6,83.5L41.6,83.5z M59.6,34.3h-6.9v19.6h7.1c3.3,0,6-0.8,8.1-2.3s3.2-3.9,3.4-7.2      c0-3.8-1-6.4-3.1-7.9C66.2,35,63.3,34.3,59.6,34.3z"
             id="path6" />
          <path
             class="st1"
             d="M101.8,85.5l2-4.9L88.9,43.3l11.5-1.6l9.7,25.3l9.1-25.3H131l-16.5,41.8l-2.2,5.5c-1.3,3.4-3.6,6.3-7,8.7      c-3.3,2.4-6.8,4-10.5,4.9l-4-9.2c2-0.9,4.1-1.9,6.4-3.1C99.6,89.1,101.1,87.5,101.8,85.5z"
             id="path8" />
          <path
             class="st1"
             d="M155.7,25l22.7,57l-11.2,1.6L162,69.8h-22.2l-5.2,13.8h-11.2L146.2,25H155.7z M150.7,40.3L143,60.7h15.5      L150.7,40.3z"
             id="path10" />
          <path
             class="st1"
             d="M207.2,41.8l2.2,9c-1.9,0-4.1,0.5-6.6,1.6s-5,2.7-7.4,4.8v26.4h-11.2V41.8h5.9l3.7,6.1      c1.7-1.5,3.8-2.9,6.3-4.2C202.6,42.4,205,41.8,207.2,41.8z"
             id="path12" />
        </g>
      </g>
    </g>
    <g
       id="g62">
      <path
         class="st2"
         d="M208.9,197.7c0-15.5-8.4-28.9-20.9-36.2c0,15.5-8.4,28.9-20.9,36.2l0,0l0,0c12.5,7.2,20.9,20.7,20.9,36.2    C200.5,226.6,208.9,213.1,208.9,197.7z"
         id="path20" />
      <path
         class="st1"
         d="M104.4,233.9L104.4,233.9c-6.1,3.6-13.3,5.6-20.9,5.6s-14.7-2-20.9-5.6l0,0c0,23.1,18.7,41.8,41.8,41.8    c7.6,0,14.7-2,20.9-5.6C112.8,262.8,104.4,249.3,104.4,233.9z"
         id="path22" />
      <path
         class="st3"
         d="M188,233.9c0-15.5-8.4-28.9-20.9-36.2c0,15.5-8.4,28.9-20.9,36.2l0,0l0,0c-6.1,3.6-13.3,5.6-20.9,5.6    s-14.7-2-20.9-5.6l0,0l0,0c0,15.5,8.4,29,20.9,36.2c6.1,3.6,13.3,5.6,20.9,5.6C169.3,275.6,188,256.9,188,233.9L188,233.9z"
         id="path24" />
      <path
         class="st3"
         d="M104.4,161.5L104.4,161.5c0-15.5,8.4-29,20.9-36.2c-6.1-3.6-13.3-5.6-20.9-5.6c-23.1,0-41.8,18.7-41.8,41.8    l0,0c6.1-3.6,13.3-5.6,20.9-5.6C91.2,155.9,98.3,158,104.4,161.5z"
         id="path26" />
      <path
         class="st1"
         d="M146.2,119.7c-7.6,0-14.7,2-20.9,5.6c-12.5,7.2-20.9,20.7-20.9,36.2l0,0l0,0c6.1-3.6,13.3-5.6,20.9-5.6    s14.7,2,20.9,5.6l0,0l0,0c12.5,7.2,20.9,20.7,20.9,36.2c12.5-7.2,20.9-20.7,20.9-36.2l0,0C188,138.4,169.3,119.7,146.2,119.7z"
         id="path28" />
      <path
         class="st2"
         d="M83.5,197.7L83.5,197.7L83.5,197.7c0-15.5,8.4-29,20.9-36.2l0,0c-6.1-3.6-13.3-5.6-20.9-5.6s-14.7,2-20.9,5.6    c-12.5,7.2-20.9,20.7-20.9,36.2s8.4,28.9,20.9,36.2c6.1,3.6,13.3,5.6,20.9,5.6s14.7-2,20.9-5.6l0,0    C92,226.6,83.6,213.2,83.5,197.7z"
         id="path30" />
      <g
         id="g40">
        <path
           class="st2"
           d="M167.1,197.7c-6.1,3.6-13.3,5.6-20.9,5.6c-7.6,0-14.7-2-20.9-5.6l0,0l0,0l0,0l0,0     c-12.5,7.2-20.9,20.7-20.9,36.2l0,0c6.1,3.6,13.3,5.6,20.9,5.6s14.7-2,20.9-5.6l0,0C158.7,226.6,167.1,213.2,167.1,197.7     L167.1,197.7z"
           id="path32" />
        <g
           id="g38">
          <ellipse
             transform="matrix(0.5 -0.866 0.866 0.5 -139.8997 225.4948)"
             class="st4"
             cx="125.3"
             cy="233.9"
             rx="5.2"
             ry="5.2"
             id="ellipse34" />
          <ellipse
             transform="matrix(0.5 -0.866 0.866 0.5 -129.4185 207.3964)"
             class="st4"
             cx="114.9"
             cy="215.8"
             rx="5.2"
             ry="5.2"
             id="ellipse36" />
        </g>
      </g>
      <g
         id="g50">
        <path
           class="st1"
           d="M125.3,197.7L125.3,197.7c0-15.5-8.4-28.9-20.9-36.2l0,0c-12.5,7.2-20.9,20.7-20.9,36.2l0,0l0,0     c0,15.5,8.4,28.9,20.9,36.2C104.4,218.4,112.8,204.9,125.3,197.7L125.3,197.7L125.3,197.7z"
           id="path42" />
        <g
           id="g48">
          <ellipse
             transform="matrix(0.5 -0.866 0.866 0.5 -98.0924 189.2836)"
             class="st4"
             cx="114.9"
             cy="179.6"
             rx="5.2"
             ry="5.2"
             id="ellipse44" />
          <ellipse
             transform="matrix(0.5 -0.866 0.866 0.5 -108.548 171.1951)"
             class="st4"
             cx="94"
             cy="179.6"
             rx="5.2"
             ry="5.2"
             id="ellipse46" />
        </g>
      </g>
      <g
         id="g60">
        <path
           class="st3"
           d="M146.2,161.5L146.2,161.5c-6.1-3.6-13.3-5.6-20.9-5.6s-14.7,2-20.9,5.6c12.5,7.2,20.9,20.7,20.9,36.2l0,0     l0,0l0,0c6.1,3.6,13.3,5.6,20.9,5.6s14.7-2,20.9-5.6l0,0C167.1,182.2,158.7,168.7,146.2,161.5z"
           id="path52" />
        <g
           id="g58">
          <ellipse
             transform="matrix(0.5 -0.866 0.866 0.5 -98.1225 225.4692)"
             class="st4"
             cx="146.2"
             cy="197.7"
             rx="5.2"
             ry="5.2"
             id="ellipse54" />
          <ellipse
             transform="matrix(0.5 -0.866 0.866 0.5 -77.1811 225.4624)"
             class="st4"
             cx="156.7"
             cy="179.6"
             rx="5.2"
             ry="5.2"
             id="ellipse56" />
        </g>
      </g>
    </g>
    <g
       id="g98">
      <g
         id="g84">
        <path
           class="st1"
           d="M56.8,305.6l10,25.1l-4.9,0.7l-2.3-6.1h-9.8l-2.3,6.1h-4.9l10.1-25.8L56.8,305.6L56.8,305.6z M54.6,312.3     l-3.4,9H58L54.6,312.3z"
           id="path64" />
        <path
           class="st1"
           d="M80.4,317.9c-0.9-0.4-1.7-0.7-2.5-0.9c-0.8-0.2-1.6-0.3-2.4-0.3c-0.6,0-1.1,0.1-1.5,0.4     c-0.3,0.2-0.5,0.6-0.5,1c0,0.3,0.2,0.6,0.6,0.9s1.1,0.6,2,0.9c1.5,0.6,3,1.3,4.3,2.3s2,2.3,2,3.9c0,1.8-0.7,3.2-2,4.3     c-1.3,1-3.2,1.5-5.7,1.5c-0.8,0-1.8-0.2-3.1-0.5c-1.3-0.3-2.4-0.8-3.2-1.4l1.5-3.6c0.9,0.4,1.7,0.7,2.6,0.9     c0.8,0.2,1.6,0.3,2.3,0.3c0.9,0,1.6-0.1,2.1-0.4s0.7-0.6,0.7-1c0-0.5-0.2-1-0.7-1.4s-1.2-0.8-2.3-1.1c-1.5-0.5-2.9-1.2-4.2-2.1     c-1.3-0.9-2-2.1-2-3.6c0-1.7,0.6-3.1,1.9-4.1s3-1.5,5.2-1.5c0.8,0,1.8,0.2,3,0.5s2.3,0.8,3.3,1.4L80.4,317.9z"
           id="path66" />
        <path
           class="st1"
           d="M92.5,331.8c-2.9,0-5.2-0.9-6.8-2.7s-2.4-4.1-2.4-7.1c0-2.9,0.9-5.3,2.6-7s4-2.6,7-2.6     c3.1,0,5.4,0.9,7.1,2.7c1.7,1.8,2.5,4.2,2.5,7.1s-0.9,5.2-2.7,6.9C97.9,331,95.5,331.8,92.5,331.8z M97.4,322.3     c0-1.7-0.4-3.1-1.2-4.1c-0.8-1-1.9-1.5-3.3-1.5s-2.6,0.4-3.4,1.3s-1.2,2.2-1.2,4.1s0.3,3.2,1,4.1s1.8,1.4,3.2,1.4     c1.4,0,2.6-0.4,3.5-1.3C96.9,325.5,97.4,324.2,97.4,322.3z"
           id="path68" />
        <path
           class="st1"
           d="M113.3,316.7c-1.4,0-2.5,0.5-3.3,1.6c-0.8,1-1.2,2.4-1.2,3.9c0,1.6,0.4,2.9,1.2,3.9c0.8,1,1.9,1.5,3.3,1.5     c0.9,0,1.6-0.1,2.3-0.3s1.5-0.5,2.4-0.9l1.4,3.6c-0.9,0.7-1.9,1.1-3.1,1.4s-2.2,0.5-3,0.5c-3,0-5.3-0.9-7-2.6s-2.5-4.1-2.5-7     s0.8-5.3,2.5-7.1c1.7-1.8,4-2.7,7-2.7c0.8,0,1.8,0.2,3,0.5s2.3,0.8,3.2,1.4l-1.4,3.5c-0.9-0.4-1.7-0.7-2.4-0.9     C114.9,316.8,114.2,316.7,113.3,316.7z"
           id="path70" />
        <path
           class="st1"
           d="M123.5,304.8c0.8,0,1.4,0.3,2,0.8c0.5,0.5,0.8,1.2,0.8,2s-0.3,1.4-0.8,2c-0.5,0.5-1.2,0.8-2,0.8     s-1.4-0.3-1.9-0.8s-0.8-1.2-0.8-2s0.3-1.4,0.8-2C122.1,305.1,122.8,304.8,123.5,304.8z M126,313v18.4h-4.9V313H126z"
           id="path72" />
        <path
           class="st1"
           d="M135,331.8c-2.3,0-3.9-0.5-5-1.7c-1.1-1.1-1.6-2.5-1.6-4.3c0-1.9,0.6-3.4,1.9-4.4c1.3-1,3-1.5,5-1.5h3.6     c0-0.9-0.3-1.7-0.8-2.2s-1.2-0.8-2.1-0.8c-0.9,0-1.8,0.1-2.8,0.4c-1,0.2-1.9,0.5-2.5,0.9l-1.3-4.1c0.7-0.5,1.8-0.9,3.2-1.2     c1.5-0.3,2.6-0.5,3.4-0.5c2.2,0,4.1,0.6,5.7,1.9c1.6,1.3,2.4,2.9,2.4,4.9v12.1h-2.5l-1.2-1.6c-0.7,0.5-1.5,1-2.4,1.4     S135.9,331.8,135,331.8z M132.6,325.9c0,0.5,0.2,1,0.6,1.4c0.4,0.4,1,0.6,1.7,0.6s1.4-0.2,2.1-0.5c0.7-0.3,1.4-0.8,2-1.4v-2.8     h-3.7c-0.9,0-1.5,0.3-2,0.8C132.8,324.6,132.6,325.2,132.6,325.9z"
           id="path74" />
        <path
           class="st1"
           d="M155.3,316.7c-1.4,0-2.5,0.5-3.3,1.6c-0.8,1-1.2,2.4-1.2,3.9c0,1.6,0.4,2.9,1.2,3.9s1.9,1.5,3.3,1.5     c0.9,0,1.6-0.1,2.3-0.3c0.7-0.2,1.5-0.5,2.4-0.9l1.4,3.6c-0.9,0.7-1.9,1.1-3.1,1.4c-1.2,0.3-2.2,0.5-3,0.5c-3,0-5.3-0.9-7-2.6     s-2.5-4.1-2.5-7s0.8-5.3,2.5-7.1c1.7-1.8,4-2.7,7-2.7c0.8,0,1.8,0.2,3,0.5s2.3,0.8,3.2,1.4l-1.4,3.5c-0.9-0.4-1.7-0.7-2.4-0.9     C157,316.8,156.2,316.7,155.3,316.7z"
           id="path76" />
        <path
           class="st1"
           d="M165.6,304.8c0.8,0,1.4,0.3,2,0.8c0.5,0.5,0.8,1.2,0.8,2s-0.3,1.4-0.8,2c-0.5,0.5-1.2,0.8-2,0.8     s-1.4-0.3-1.9-0.8s-0.8-1.2-0.8-2s0.3-1.4,0.8-2C164.2,305.1,164.8,304.8,165.6,304.8z M168,313v18.4h-4.9V313H168z"
           id="path78" />
        <path
           class="st1"
           d="M179.4,331.8c-2.9,0-5.2-0.9-6.8-2.7s-2.4-4.1-2.4-7.1c0-2.9,0.9-5.3,2.6-7c1.7-1.7,4-2.6,7-2.6     c3.1,0,5.4,0.9,7.1,2.7c1.7,1.8,2.5,4.2,2.5,7.1s-0.9,5.2-2.7,6.9C184.8,331,182.4,331.8,179.4,331.8z M184.3,322.3     c0-1.7-0.4-3.1-1.2-4.1s-1.9-1.5-3.3-1.5c-1.4,0-2.6,0.4-3.4,1.3c-0.8,0.9-1.2,2.2-1.2,4.1s0.3,3.2,1,4.1s1.8,1.4,3.2,1.4     s2.6-0.4,3.5-1.3C183.8,325.5,184.3,324.2,184.3,322.3z M179,302.8h5l-3.6,6.2h-3.8L179,302.8z"
           id="path80" />
        <path
           class="st1"
           d="M195.5,315c0.8-0.8,1.9-1.5,3.1-2c1.3-0.5,2.4-0.7,3.4-0.7c2.5,0,4.3,0.7,5.3,2.2s1.6,3.3,1.6,5.4v11.5H204     v-11.3c0-1.2-0.3-2.1-0.8-2.7c-0.6-0.6-1.4-0.9-2.4-0.9c-0.7,0-1.4,0.2-2.2,0.5c-0.8,0.4-1.5,0.8-2.1,1.3v13.1h-4.9V313h2.6     L195.5,315z"
           id="path82" />
      </g>
      <g
         id="g96">
        <path
           class="st1"
           d="M78.3,349.8c-2.4-0.7-4.3-1.3-5.9-1.7c-1.5-0.4-3.5-0.6-5.9-0.6c-4.4,0-7.8,1.8-10.2,5.4s-3.6,8.5-3.6,14.7     c0,5.4,1,10,3,13.9s5.4,5.9,10.1,5.9c2.3,0,4.5-0.2,6.6-0.7s3.9-1.1,5.6-1.8l4,7.8c-2.1,1.1-4.7,2-7.7,2.6c-3,0.7-5.6,1-7.9,1     c-8.6,0-14.9-2.8-18.8-8.3s-5.9-12.3-5.9-20.3c0-8.5,2.2-15.5,6.5-20.9s10.5-8.1,18.6-8.1c1.6,0,3.9,0.3,6.8,0.8s5.5,1.5,7.9,2.8     L78.3,349.8z"
           id="path86" />
        <path
           class="st1"
           d="M101.9,338.1c1.7,0,3.1,0.6,4.3,1.7c1.2,1.1,1.8,2.6,1.8,4.2c0,1.7-0.6,3.1-1.8,4.2     c-1.2,1.1-2.6,1.7-4.3,1.7c-1.6,0-3-0.6-4.2-1.7c-1.1-1.1-1.7-2.6-1.7-4.2c0-1.7,0.6-3.1,1.7-4.2S100.3,338.1,101.9,338.1z      M107.2,355.6v39.5H96.6v-39.5H107.2z"
           id="path88" />
        <path
           class="st1"
           d="M134.1,395.1l-15.1-38l10.9-1.5l9.1,23.9l8.6-23.9h11.2l-15.6,39.5H134.1z"
           id="path90" />
        <path
           class="st1"
           d="M175.7,338.1c1.7,0,3.1,0.6,4.3,1.7s1.8,2.6,1.8,4.2c0,1.7-0.6,3.1-1.8,4.2s-2.6,1.7-4.3,1.7     c-1.6,0-3-0.6-4.2-1.7c-1.1-1.1-1.7-2.6-1.7-4.2c0-1.7,0.6-3.1,1.7-4.2S174.1,338.1,175.7,338.1z M181,355.6v39.5h-10.6v-39.5     H181z"
           id="path92" />
        <path
           class="st1"
           d="M208.4,337.6v57.5h-10.5v-56.6L208.4,337.6z"
           id="path94" />
      </g>
    </g>
  </g>
</svg>
