<?xml version="1.0" encoding="UTF-8" standalone="no"?>
<svg
   xmlns:dc="http://purl.org/dc/elements/1.1/"
   xmlns:cc="http://creativecommons.org/ns#"
   xmlns:rdf="http://www.w3.org/1999/02/22-rdf-syntax-ns#"
   xmlns:svg="http://www.w3.org/2000/svg"
   xmlns="http://www.w3.org/2000/svg"
   xmlns:sodipodi="http://sodipodi.sourceforge.net/DTD/sodipodi-0.dtd"
   xmlns:inkscape="http://www.inkscape.org/namespaces/inkscape"
   version="1.1"
   id="PyAr_Asociacion_Civil"
   x="0px"
   y="0px"
   viewBox="0 0 501.7 228.2"
   sodipodi:docname="Monocromo horizontal.svg"
   inkscape:export-filename="/home/facundo/devel/reps/asoc/isologos/asoccivil/Monocromo horizontal.png"
   inkscape:export-xdpi="299"
   inkscape:export-ydpi="299"
   inkscape:version="0.92.3 (2405546, 2018-03-11)">
  <metadata
     id="metadata187">
    <rdf:RDF>
      <cc:Work
         rdf:about="">
        <dc:format>image/svg+xml</dc:format>
        <dc:type
           rdf:resource="http://purl.org/dc/dcmitype/StillImage" />
      </cc:Work>
    </rdf:RDF>
  </metadata>
  <defs
     id="defs185" />
  <sodipodi:namedview
     pagecolor="#ffffff"
     bordercolor="#666666"
     borderopacity="1"
     objecttolerance="10"
     gridtolerance="10"
     guidetolerance="10"
     inkscape:pageopacity="0"
     inkscape:pageshadow="2"
     inkscape:window-width="1137"
     inkscape:window-height="480"
     id="namedview183"
     showgrid="false"
     inkscape:zoom="0.78134341"
     inkscape:cx="250.85001"
     inkscape:cy="114.1"
     inkscape:window-x="0"
     inkscape:window-y="30"
     inkscape:window-maximized="0"
     inkscape:current-layer="PyAr_Asociacion_Civil" />
  <style
     type="text/css"
     id="style2">
	.st0{fill:#BCBEC0;}
	.st1{fill:#6D6E71;}
	.st2{fill:#939598;}
	.st3{fill:#FFFFFF;}
	.st4{fill:none;}
</style>
  <g
     id="g46">
    <path
       class="st0"
       d="M1107.8,1173.7c0-15.5-8.4-28.9-20.9-36.2c0,15.5-8.4,28.9-20.9,36.2l0,0l0,0c12.5,7.2,20.9,20.7,20.9,36.2   C1099.4,1202.6,1107.8,1189.2,1107.8,1173.7z"
       id="path4" />
    <path
       class="st1"
       d="M1003.4,1209.9L1003.4,1209.9c-6.1,3.6-13.3,5.6-20.9,5.6c-7.6,0-14.7-2-20.9-5.6l0,0   c0,23.1,18.7,41.8,41.8,41.8c7.6,0,14.7-2,20.9-5.6C1011.8,1238.8,1003.4,1225.3,1003.4,1209.9z"
       id="path6" />
    <path
       class="st2"
       d="M1086.9,1209.9c0-15.5-8.4-28.9-20.9-36.2c0,15.5-8.4,28.9-20.9,36.2l0,0l0,0c-6.1,3.6-13.3,5.6-20.9,5.6   s-14.7-2-20.9-5.6l0,0l0,0c0,15.5,8.4,29,20.9,36.2c6.1,3.6,13.3,5.6,20.9,5.6C1068.2,1251.6,1086.9,1232.9,1086.9,1209.9   L1086.9,1209.9z"
       id="path8" />
    <path
       class="st2"
       d="M1003.4,1137.5L1003.4,1137.5c0-15.5,8.4-29,20.9-36.2c-6.1-3.6-13.3-5.6-20.9-5.6   c-23.1,0-41.8,18.7-41.8,41.8l0,0c6.1-3.6,13.3-5.6,20.9-5.6C990.1,1131.9,997.2,1134,1003.4,1137.5z"
       id="path10" />
    <path
       class="st1"
       d="M1045.1,1095.7c-7.6,0-14.7,2-20.9,5.6c-12.5,7.2-20.9,20.7-20.9,36.2l0,0l0,0c6.1-3.6,13.3-5.6,20.9-5.6   c7.6,0,14.7,2,20.9,5.6l0,0l0,0c12.5,7.2,20.9,20.7,20.9,36.2c12.5-7.2,20.9-20.7,20.9-36.2l0,0   C1086.9,1114.4,1068.2,1095.7,1045.1,1095.7z"
       id="path12" />
    <path
       class="st0"
       d="M982.5,1173.7L982.5,1173.7L982.5,1173.7c0-15.5,8.4-29,20.9-36.2l0,0c-6.1-3.6-13.3-5.6-20.9-5.6   c-7.6,0-14.7,2-20.9,5.6c-12.5,7.2-20.9,20.7-20.9,36.2s8.4,28.9,20.9,36.2c6.1,3.6,13.3,5.6,20.9,5.6c7.6,0,14.7-2,20.9-5.6l0,0   C990.9,1202.6,982.5,1189.2,982.5,1173.7z"
       id="path14" />
    <g
       id="g24">
      <path
         class="st0"
         d="M1066,1173.7c-6.1,3.6-13.3,5.6-20.9,5.6s-14.7-2-20.9-5.6l0,0l0,0l0,0l0,0c-12.5,7.2-20.9,20.7-20.9,36.2    l0,0c6.1,3.6,13.3,5.6,20.9,5.6c7.6,0,14.7-2,20.9-5.6l0,0C1057.6,1202.6,1066,1189.2,1066,1173.7L1066,1173.7z"
         id="path16" />
      <g
         id="g22">
        <ellipse
           transform="matrix(0.5 -0.866 0.866 0.5 -535.7414 1491.9528)"
           class="st3"
           cx="1024.2"
           cy="1209.9"
           rx="5.2"
           ry="5.2"
           id="ellipse18" />
        <ellipse
           transform="matrix(0.5 -0.866 0.866 0.5 -525.2601 1473.8542)"
           class="st3"
           cx="1013.8"
           cy="1191.8"
           rx="5.2"
           ry="5.2"
           id="ellipse20" />
      </g>
    </g>
    <g
       id="g34">
      <path
         class="st1"
         d="M1024.2,1173.7L1024.2,1173.7c0-15.5-8.4-28.9-20.9-36.2l0,0c-12.5,7.2-20.9,20.7-20.9,36.2l0,0l0,0    c0,15.5,8.4,28.9,20.9,36.2C1003.4,1194.4,1011.8,1180.9,1024.2,1173.7L1024.2,1173.7L1024.2,1173.7z"
         id="path26" />
      <g
         id="g32">
        <ellipse
           transform="matrix(0.5 -0.866 0.866 0.5 -493.934 1455.7415)"
           class="st3"
           cx="1013.8"
           cy="1155.6"
           rx="5.2"
           ry="5.2"
           id="ellipse28" />
        <ellipse
           transform="matrix(0.5 -0.866 0.866 0.5 -504.3896 1437.653)"
           class="st3"
           cx="992.9"
           cy="1155.6"
           rx="5.2"
           ry="5.2"
           id="ellipse30" />
      </g>
    </g>
    <g
       id="g44">
      <path
         class="st2"
         d="M1045.1,1137.5L1045.1,1137.5c-6.1-3.6-13.3-5.6-20.9-5.6s-14.7,2-20.9,5.6c12.5,7.2,20.9,20.7,20.9,36.2l0,0    l0,0l0,0c6.1,3.6,13.3,5.6,20.9,5.6s14.7-2,20.9-5.6l0,0C1066,1158.2,1057.6,1144.7,1045.1,1137.5z"
         id="path36" />
      <g
         id="g42">
        <ellipse
           transform="matrix(0.5 -0.866 0.866 0.5 -493.9642 1491.9271)"
           class="st3"
           cx="1045.1"
           cy="1173.8"
           rx="5.2"
           ry="5.2"
           id="ellipse38" />
        <ellipse
           transform="matrix(0.5 -0.866 0.866 0.5 -473.0227 1491.9203)"
           class="st3"
           cx="1055.5"
           cy="1155.6"
           rx="5.2"
           ry="5.2"
           id="ellipse40" />
      </g>
    </g>
  </g>
  <g
     id="g78">
    <path
       class="st1"
       d="M979.5,1255.9l12.4,31.1l-6.1,0.8l-2.9-7.5h-12.1l-2.8,7.5h-6.1l12.5-32L979.5,1255.9L979.5,1255.9z    M976.8,1264.2l-4.2,11.1h8.5L976.8,1264.2z"
       id="path48" />
    <path
       class="st1"
       d="M1014.6,1271.2c-1.1-0.5-2.1-0.9-3.1-1.2c-0.9-0.3-1.9-0.4-3-0.4c-0.8,0-1.4,0.1-1.8,0.4s-0.6,0.7-0.6,1.2   c0,0.4,0.3,0.7,0.8,1.1c0.5,0.3,1.4,0.7,2.5,1.1c1.9,0.7,3.7,1.7,5.3,2.9c1.6,1.2,2.4,2.8,2.4,4.8c0,2.3-0.8,4-2.4,5.3   c-1.6,1.3-4,1.9-7.1,1.9c-1,0-2.3-0.2-3.9-0.6c-1.6-0.4-3-1-4-1.8l1.8-4.4c1.1,0.5,2.2,0.9,3.2,1.2c1,0.3,2,0.4,2.8,0.4   c1.1,0,2-0.2,2.6-0.5s0.9-0.7,0.9-1.2c0-0.6-0.3-1.2-0.9-1.7c-0.6-0.5-1.5-1-2.8-1.4c-1.8-0.6-3.5-1.4-5.1-2.6   c-1.6-1.1-2.4-2.6-2.4-4.5c0-2.2,0.8-3.9,2.4-5.1c1.6-1.2,3.8-1.9,6.5-1.9c1,0,2.2,0.2,3.8,0.6s2.9,1,4,1.8L1014.6,1271.2z"
       id="path50" />
    <path
       class="st1"
       d="M1038.1,1288.4c-3.6,0-6.4-1.1-8.4-3.3c-2-2.2-3-5.1-3-8.7s1.1-6.5,3.2-8.7s5-3.2,8.7-3.2   c3.8,0,6.7,1.1,8.8,3.4c2.1,2.2,3.1,5.2,3.1,8.8c0,3.6-1.1,6.5-3.4,8.6C1044.8,1287.3,1041.8,1288.4,1038.1,1288.4z M1044.2,1276.6   c0-2.2-0.5-3.9-1.4-5.1c-1-1.2-2.3-1.9-4.1-1.9c-1.8,0-3.2,0.5-4.2,1.6s-1.5,2.8-1.5,5c0,2.3,0.4,4,1.3,5.1c0.9,1.2,2.2,1.7,4,1.7   s3.2-0.5,4.3-1.6C1043.6,1280.5,1044.2,1278.9,1044.2,1276.6z"
       id="path52" />
    <path
       class="st1"
       d="M1072.3,1269.6c-1.7,0-3.1,0.7-4,2c-1,1.3-1.5,2.9-1.5,4.9s0.5,3.6,1.5,4.8c1,1.3,2.3,1.9,4,1.9   c1.1,0,2-0.1,2.9-0.4s1.8-0.6,2.9-1.2l1.7,4.4c-1.1,0.8-2.4,1.4-3.9,1.8s-2.8,0.6-3.7,0.6c-3.7,0-6.6-1.1-8.6-3.2   c-2.1-2.2-3.1-5.1-3.1-8.7s1-6.5,3.1-8.7s5-3.3,8.6-3.3c1,0,2.2,0.2,3.7,0.6s2.8,1,3.9,1.8l-1.7,4.4c-1.1-0.5-2.1-0.9-2.9-1.2   S1073.4,1269.6,1072.3,1269.6z"
       id="path54" />
    <path
       class="st1"
       d="M1093.5,1254.9c1,0,1.8,0.3,2.5,1s1,1.5,1,2.4c0,1-0.3,1.8-1,2.4c-0.7,0.7-1.5,1-2.5,1c-0.9,0-1.7-0.3-2.4-1   c-0.7-0.7-1-1.5-1-2.4c0-1,0.3-1.8,1-2.4S1092.5,1254.9,1093.5,1254.9z M1096.5,1265v22.8h-6.1V1265H1096.5z"
       id="path56" />
    <path
       class="st1"
       d="M1116.1,1288.4c-2.8,0-4.9-0.7-6.2-2c-1.3-1.4-2-3.1-2-5.3c0-2.3,0.8-4.2,2.4-5.4c1.6-1.3,3.7-1.9,6.3-1.9h4.5   c0-1.2-0.4-2.1-1-2.7s-1.5-1-2.7-1c-1.1,0-2.2,0.1-3.5,0.4s-2.3,0.7-3.1,1.1l-1.6-5.1c0.9-0.6,2.2-1.1,4-1.5s3.2-0.6,4.2-0.6   c2.7,0,5.1,0.8,7,2.4s2.9,3.6,2.9,6v15h-3.1l-1.5-1.9c-0.8,0.7-1.8,1.2-3,1.7C1118.4,1288.1,1117.2,1288.4,1116.1,1288.4z    M1113.1,1281c0,0.7,0.3,1.2,0.8,1.8c0.5,0.5,1.2,0.8,2.1,0.8c0.8,0,1.7-0.2,2.6-0.6s1.7-0.9,2.5-1.7v-3.5h-4.6   c-1.1,0-1.9,0.3-2.5,1C1113.4,1279.5,1113.1,1280.2,1113.1,1281z"
       id="path58" />
    <path
       class="st1"
       d="M1149.8,1269.6c-1.7,0-3.1,0.7-4,2c-1,1.3-1.5,2.9-1.5,4.9s0.5,3.6,1.5,4.8c1,1.3,2.3,1.9,4,1.9   c1.1,0,2-0.1,2.9-0.4s1.8-0.6,2.9-1.2l1.7,4.4c-1.1,0.8-2.4,1.4-3.9,1.8s-2.8,0.6-3.7,0.6c-3.7,0-6.6-1.1-8.6-3.2   c-2.1-2.2-3.1-5.1-3.1-8.7s1-6.5,3.1-8.7s5-3.3,8.6-3.3c1,0,2.2,0.2,3.7,0.6s2.8,1,3.9,1.8l-1.7,4.4c-1.1-0.5-2.1-0.9-2.9-1.2   S1150.8,1269.6,1149.8,1269.6z"
       id="path60" />
    <path
       class="st1"
       d="M1170.9,1254.9c1,0,1.8,0.3,2.5,1s1,1.5,1,2.4c0,1-0.3,1.8-1,2.4c-0.7,0.7-1.5,1-2.5,1c-0.9,0-1.7-0.3-2.4-1   c-0.7-0.7-1-1.5-1-2.4c0-1,0.3-1.8,1-2.4S1170,1254.9,1170.9,1254.9z M1174,1265v22.8h-6.1V1265H1174z"
       id="path62" />
    <path
       class="st1"
       d="M1196.5,1288.4c-3.6,0-6.4-1.1-8.4-3.3c-2-2.2-3-5.1-3-8.7s1.1-6.5,3.2-8.7s5-3.2,8.7-3.2   c3.8,0,6.7,1.1,8.8,3.4c2.1,2.2,3.1,5.2,3.1,8.8c0,3.6-1.1,6.5-3.4,8.6C1203.2,1287.3,1200.2,1288.4,1196.5,1288.4z M1202.5,1276.6   c0-2.2-0.5-3.9-1.4-5.1c-1-1.2-2.3-1.9-4.1-1.9c-1.8,0-3.2,0.5-4.2,1.6s-1.5,2.8-1.5,5c0,2.3,0.4,4,1.3,5.1c0.9,1.2,2.2,1.7,4,1.7   s3.2-0.5,4.3-1.6C1202,1280.5,1202.5,1278.9,1202.5,1276.6z M1196.1,1252.4h6.3l-4.4,7.7h-4.7L1196.1,1252.4z"
       id="path64" />
    <path
       class="st1"
       d="M1224.9,1267.5c1-1,2.3-1.8,3.9-2.4s2.9-0.9,4.2-0.9c3.1,0,5.3,0.9,6.6,2.7c1.3,1.8,2,4,2,6.7v14.3h-6.1v-14   c0-1.4-0.3-2.5-1-3.3s-1.7-1.2-3-1.2c-0.9,0-1.8,0.2-2.7,0.7c-1,0.5-1.8,1-2.6,1.6v16.2h-6.1V1265h3.2L1224.9,1267.5z"
       id="path66" />
    <path
       class="st1"
       d="M1291.2,1261.6c-1.4-0.4-2.5-0.7-3.4-1s-2-0.4-3.4-0.4c-2.5,0-4.5,1-5.9,3.1s-2.1,4.9-2.1,8.5   c0,3.1,0.6,5.8,1.7,8c1.2,2.3,3.1,3.4,5.8,3.4c1.3,0,2.6-0.1,3.8-0.4c1.2-0.3,2.2-0.6,3.2-1l2.3,4.5c-1.2,0.6-2.7,1.1-4.4,1.5   c-1.7,0.4-3.2,0.6-4.6,0.6c-5,0-8.6-1.6-10.9-4.8c-2.3-3.2-3.4-7.1-3.4-11.7c0-4.9,1.2-8.9,3.7-12.1c2.5-3.1,6.1-4.7,10.7-4.7   c0.9,0,2.2,0.2,3.9,0.5c1.7,0.3,3.2,0.8,4.6,1.6L1291.2,1261.6z"
       id="path68" />
    <path
       class="st1"
       d="M1307.5,1254.9c1,0,1.8,0.3,2.5,1s1,1.5,1,2.4c0,1-0.3,1.8-1,2.4c-0.7,0.7-1.5,1-2.5,1c-0.9,0-1.7-0.3-2.4-1   c-0.7-0.7-1-1.5-1-2.4c0-1,0.3-1.8,1-2.4S1306.5,1254.9,1307.5,1254.9z M1310.5,1265v22.8h-6.1V1265H1310.5z"
       id="path70" />
    <path
       class="st1"
       d="M1328.6,1287.8l-8.7-21.9l6.3-0.8l5.3,13.8l5-13.8h6.4l-9,22.8L1328.6,1287.8L1328.6,1287.8z"
       id="path72" />
    <path
       class="st1"
       d="M1355.2,1254.9c1,0,1.8,0.3,2.5,1s1,1.5,1,2.4c0,1-0.3,1.8-1,2.4c-0.7,0.7-1.5,1-2.5,1c-0.9,0-1.7-0.3-2.4-1   c-0.7-0.7-1-1.5-1-2.4c0-1,0.3-1.8,1-2.4S1354.3,1254.9,1355.2,1254.9z M1358.3,1265v22.8h-6.1V1265H1358.3z"
       id="path74" />
    <path
       class="st1"
       d="M1376.7,1254.6v33.2h-6.1v-32.7L1376.7,1254.6z"
       id="path76" />
  </g>
  <g
     id="g90">
    <g
       id="g88">
      <path
         class="st1"
         d="M1149.8,1215.3v-83.4h26.1c9.1,0,16.8,2.1,23.3,6.2s9.7,11,9.7,20.5c-0.1,9.5-3.6,16.4-10.5,20.9    s-14.8,6.7-23.6,6.7h-9.2v29.1L1149.8,1215.3L1149.8,1215.3z M1175.4,1145.2h-9.8v28h10.1c4.7,0,8.6-1.1,11.5-3.2    c2.9-2.2,4.6-5.6,4.9-10.2c0-5.4-1.5-9.2-4.4-11.3C1184.8,1146.2,1180.7,1145.2,1175.4,1145.2z"
         id="path80" />
      <path
         class="st1"
         d="M1235.5,1218.1l2.8-7l-21.2-53.1l16.4-2.2l13.7,36l13-36h16.8l-23.4,59.5l-3.2,7.8c-1.9,4.8-5.2,9-9.9,12.4    c-4.7,3.4-9.7,5.8-15,7l-5.6-13.1c2.9-1.2,5.9-2.7,9.1-4.5C1232.3,1223.2,1234.5,1220.9,1235.5,1218.1z"
         id="path82" />
      <path
         class="st1"
         d="M1312.1,1131.9l32.4,81.2l-15.9,2.2l-7.5-19.6h-31.6l-7.4,19.6h-15.9l32.5-83.4L1312.1,1131.9L1312.1,1131.9z     M1305,1153.7l-10.9,29.1h22.1L1305,1153.7z"
         id="path84" />
      <path
         class="st1"
         d="M1385.5,1155.8l3.2,12.8c-2.7,0-5.8,0.8-9.4,2.3c-3.6,1.6-7,3.8-10.5,6.9v37.5h-15.9v-59.5h8.3l5.3,8.7    c2.5-2.1,5.4-4.1,9-5.9C1378.9,1156.7,1382.3,1155.8,1385.5,1155.8z"
         id="path86" />
    </g>
  </g>
  <g
     id="g180">
    <rect
       y="0"
       class="st4"
       width="501.7"
       height="228.2"
       id="rect92" />
    <g
       id="g136">
      <path
         class="st0"
         d="M208.9,114c0-15.5-8.4-28.9-20.9-36.2c0,15.5-8.4,28.9-20.9,36.2l0,0l0,0c12.5,7.2,20.9,20.7,20.9,36.2    C200.5,142.9,208.9,129.4,208.9,114z"
         id="path94" />
      <path
         class="st1"
         d="M104.5,150.2L104.5,150.2c-6.1,3.6-13.3,5.6-20.9,5.6s-14.7-2-20.9-5.6l0,0c0,23.1,18.7,41.8,41.8,41.8    c7.6,0,14.7-2,20.9-5.6C112.9,179.1,104.5,165.6,104.5,150.2z"
         id="path96" />
      <path
         class="st2"
         d="M188,150.2c0-15.5-8.4-28.9-20.9-36.2c0,15.5-8.4,28.9-20.9,36.2l0,0l0,0c-6.1,3.6-13.3,5.6-20.9,5.6    s-14.7-2-20.9-5.6l0,0l0,0c0,15.5,8.4,29,20.9,36.2c6.1,3.6,13.3,5.6,20.9,5.6C169.3,191.9,188,173.2,188,150.2L188,150.2z"
         id="path98" />
      <path
         class="st2"
         d="M104.5,77.8L104.5,77.8c0-15.5,8.4-29,20.9-36.2c-6.1-3.6-13.3-5.6-20.9-5.6c-23.1,0-41.8,18.7-41.8,41.8l0,0    c6.1-3.6,13.3-5.6,20.9-5.6C91.2,72.2,98.3,74.3,104.5,77.8z"
         id="path100" />
      <path
         class="st1"
         d="M146.2,36c-7.6,0-14.7,2-20.9,5.6c-12.5,7.2-20.9,20.7-20.9,36.2l0,0l0,0c6.1-3.6,13.3-5.6,20.9-5.6    s14.7,2,20.9,5.6l0,0l0,0c12.5,7.2,20.9,20.7,20.9,36.2c12.5-7.2,20.9-20.7,20.9-36.2l0,0C188,54.7,169.3,36,146.2,36z"
         id="path102" />
      <path
         class="st0"
         d="M83.6,114L83.6,114L83.6,114c0-15.5,8.4-29,20.9-36.2l0,0c-6.1-3.6-13.3-5.6-20.9-5.6s-14.7,2-20.9,5.6    C50.2,85,41.8,98.5,41.8,114s8.4,28.9,20.9,36.2c6.1,3.6,13.3,5.6,20.9,5.6s14.7-2,20.9-5.6l0,0C92,142.9,83.6,129.4,83.6,114z"
         id="path104" />
      <g
         id="g114">
        <path
           class="st0"
           d="M167.1,114c-6.1,3.6-13.3,5.6-20.9,5.6c-7.6,0-14.7-2-20.9-5.6l0,0l0,0l0,0l0,0     c-12.5,7.2-20.9,20.7-20.9,36.2l0,0c6.1,3.6,13.3,5.6,20.9,5.6s14.7-2,20.9-5.6l0,0C158.7,142.9,167.1,129.4,167.1,114L167.1,114     z"
           id="path106" />
        <g
           id="g112">
          <ellipse
             transform="matrix(0.5 -0.866 0.866 0.5 -67.336 183.6208)"
             class="st3"
             cx="125.4"
             cy="150.1"
             rx="5.2"
             ry="5.2"
             id="ellipse108" />
          <ellipse
             transform="matrix(0.5 -0.866 0.866 0.5 -56.9674 165.5341)"
             class="st3"
             cx="114.9"
             cy="132.1"
             rx="5.2"
             ry="5.2"
             id="ellipse110" />
        </g>
      </g>
      <g
         id="g124">
        <path
           class="st1"
           d="M125.3,114L125.3,114c0-15.5-8.4-28.9-20.9-36.2l0,0C92,85,83.6,98.5,83.6,114l0,0l0,0     c0,15.5,8.4,28.9,20.9,36.2C104.5,134.7,112.9,121.2,125.3,114L125.3,114L125.3,114z"
           id="path116" />
        <g
           id="g122">
          <ellipse
             transform="matrix(0.5 -0.866 0.866 0.5 -25.5952 147.4485)"
             class="st3"
             cx="114.9"
             cy="95.9"
             rx="5.2"
             ry="5.2"
             id="ellipse118" />
          <ellipse
             transform="matrix(0.5 -0.866 0.866 0.5 -36.0386 129.3382)"
             class="st3"
             cx="94"
             cy="95.9"
             rx="5.2"
             ry="5.2"
             id="ellipse120" />
        </g>
      </g>
      <g
         id="g134">
        <path
           class="st2"
           d="M146.2,77.8L146.2,77.8c-6.1-3.6-13.3-5.6-20.9-5.6s-14.7,2-20.9,5.6c12.5,7.2,20.9,20.7,20.9,36.2l0,0l0,0     l0,0c6.1,3.6,13.3,5.6,20.9,5.6s14.7-2,20.9-5.6l0,0C167.1,98.5,158.7,85,146.2,77.8z"
           id="path126" />
        <g
           id="g132">
          <ellipse
             transform="matrix(0.5 -0.866 0.866 0.5 -25.6157 183.5735)"
             class="st3"
             cx="146.2"
             cy="114"
             rx="5.2"
             ry="5.2"
             id="ellipse128" />
          <ellipse
             transform="matrix(0.5 -0.866 0.866 0.5 -4.7083 183.6673)"
             class="st3"
             cx="156.7"
             cy="95.9"
             rx="5.2"
             ry="5.2"
             id="ellipse130" />
        </g>
      </g>
    </g>
    <g
       id="g146">
      <path
         class="st1"
         d="M251,109V36.1h22.8c7.9,0,14.7,1.8,20.4,5.4c5.6,3.6,8.5,9.6,8.5,18c-0.1,8.3-3.1,14.4-9.2,18.3    c-6,3.9-12.9,5.8-20.6,5.8h-8V109H251z M273.4,47.7h-8.6v24.4h8.8c4.1,0,7.5-0.9,10.1-2.8c2.6-1.9,4-4.9,4.3-9    c0-4.7-1.3-8-3.9-9.9C281.6,48.6,278,47.7,273.4,47.7z"
         id="path138" />
      <path
         class="st1"
         d="M326,111.5l2.5-6.1l-18.5-46.4l14.4-1.9l12,31.5L347.6,57h14.7l-20.5,52l-2.8,6.9c-1.6,4.2-4.5,7.8-8.7,10.8    c-4.1,3-8.5,5-13.1,6.1l-4.9-11.5c2.5-1.1,5.2-2.4,8-3.9C323.2,115.9,325.1,113.9,326,111.5z"
         id="path140" />
      <path
         class="st1"
         d="M393,36.1l28.3,71l-13.9,1.9l-6.5-17.2h-27.7l-6.4,17.2h-13.9l28.4-72.9H393z M386.8,55.2l-9.5,25.4h19.3    L386.8,55.2z"
         id="path142" />
      <path
         class="st1"
         d="M457.1,57l2.8,11.2c-2.4,0-5.1,0.7-8.2,2c-3.1,1.4-6.2,3.4-9.2,6V109h-13.9V57h7.3l4.6,7.6    c2.1-1.9,4.8-3.6,7.8-5.2C451.4,57.8,454.3,57,457.1,57z"
         id="path144" />
    </g>
    <g
       id="g178">
      <path
         class="st1"
         d="M264.3,138.7l9,22.5l-4.4,0.6l-2.1-5.4H258l-2,5.4h-4.4l9-23.1H264.3z M262.3,144.8l-3,8.1h6.1L262.3,144.8z"
         id="path148" />
      <path
         class="st1"
         d="M288.5,149.8c-0.8-0.4-1.5-0.6-2.2-0.8c-0.7-0.2-1.4-0.3-2.2-0.3c-0.6,0-1,0.1-1.3,0.3    c-0.3,0.2-0.5,0.5-0.5,0.9c0,0.3,0.2,0.5,0.6,0.8c0.4,0.3,1,0.5,1.8,0.8c1.4,0.5,2.7,1.2,3.8,2.1c1.2,0.9,1.8,2.1,1.8,3.5    c0,1.6-0.6,2.9-1.8,3.8c-1.2,0.9-2.9,1.4-5.1,1.4c-0.7,0-1.6-0.1-2.8-0.4c-1.2-0.3-2.1-0.7-2.9-1.3l1.3-3.2    c0.8,0.4,1.6,0.6,2.3,0.8c0.7,0.2,1.4,0.3,2,0.3c0.8,0,1.4-0.1,1.9-0.3s0.6-0.5,0.6-0.9c0-0.5-0.2-0.9-0.6-1.2    c-0.4-0.4-1.1-0.7-2-1c-1.3-0.4-2.6-1-3.7-1.9c-1.2-0.8-1.8-1.9-1.8-3.2c0-1.6,0.6-2.8,1.7-3.7c1.2-0.9,2.7-1.3,4.7-1.3    c0.7,0,1.6,0.1,2.7,0.4c1.1,0.3,2.1,0.7,2.9,1.3L288.5,149.8z"
         id="path150" />
      <path
         class="st1"
         d="M304.3,162.2c-2.6,0-4.6-0.8-6.1-2.4c-1.5-1.6-2.2-3.7-2.2-6.3c0-2.6,0.8-4.7,2.3-6.3    c1.5-1.6,3.6-2.3,6.3-2.3c2.7,0,4.9,0.8,6.4,2.4c1.5,1.6,2.3,3.7,2.3,6.4c0,2.6-0.8,4.7-2.4,6.2    C309.1,161.5,306.9,162.2,304.3,162.2z M308.6,153.7c0-1.6-0.3-2.8-1-3.7c-0.7-0.9-1.7-1.3-2.9-1.3c-1.3,0-2.3,0.4-3,1.2    c-0.7,0.8-1.1,2-1.1,3.6s0.3,2.9,0.9,3.7c0.6,0.8,1.6,1.3,2.9,1.3c1.3,0,2.3-0.4,3.1-1.1C308.2,156.6,308.6,155.4,308.6,153.7z"
         id="path152" />
      <path
         class="st1"
         d="M327.8,148.7c-1.2,0-2.2,0.5-2.9,1.4c-0.7,0.9-1.1,2.1-1.1,3.5c0,1.4,0.4,2.6,1.1,3.5    c0.7,0.9,1.7,1.4,2.9,1.4c0.8,0,1.5-0.1,2.1-0.3c0.6-0.2,1.3-0.5,2.1-0.8l1.3,3.2c-0.8,0.6-1.7,1-2.8,1.3c-1.1,0.3-2,0.4-2.7,0.4    c-2.7,0-4.8-0.8-6.3-2.3c-1.5-1.6-2.2-3.7-2.2-6.3c0-2.6,0.7-4.7,2.2-6.3s3.6-2.4,6.3-2.4c0.7,0,1.6,0.1,2.7,0.4    c1.1,0.3,2,0.7,2.8,1.3l-1.3,3.2c-0.8-0.4-1.5-0.6-2.1-0.8C329.2,148.8,328.5,148.7,327.8,148.7z"
         id="path154" />
      <path
         class="st1"
         d="M341.8,138c0.7,0,1.3,0.2,1.8,0.7s0.7,1.1,0.7,1.8c0,0.7-0.2,1.3-0.7,1.8c-0.5,0.5-1.1,0.7-1.8,0.7    c-0.7,0-1.3-0.2-1.7-0.7c-0.5-0.5-0.7-1.1-0.7-1.8c0-0.7,0.2-1.3,0.7-1.8C340.6,138.3,341.2,138,341.8,138z M344,145.3v16.5h-4.4    v-16.5H344z"
         id="path156" />
      <path
         class="st1"
         d="M357,162.2c-2,0-3.5-0.5-4.5-1.5c-1-1-1.5-2.3-1.5-3.9c0-1.7,0.6-3,1.7-3.9s2.7-1.4,4.5-1.4h3.2    c0-0.8-0.3-1.5-0.7-2c-0.5-0.5-1.1-0.7-1.9-0.7c-0.8,0-1.6,0.1-2.5,0.3c-0.9,0.2-1.7,0.5-2.3,0.8l-1.2-3.7    c0.6-0.4,1.6-0.8,2.9-1.1c1.3-0.3,2.3-0.4,3-0.4c2,0,3.7,0.6,5.1,1.7s2.1,2.6,2.1,4.4v10.8h-2.3l-1.1-1.4    c-0.6,0.5-1.3,0.9-2.2,1.3S357.8,162.2,357,162.2z M354.8,156.9c0,0.5,0.2,0.9,0.6,1.3c0.4,0.4,0.9,0.6,1.5,0.6    c0.6,0,1.2-0.1,1.9-0.4c0.6-0.3,1.2-0.7,1.8-1.2v-2.5h-3.3c-0.8,0-1.4,0.2-1.8,0.7C355,155.8,354.8,156.3,354.8,156.9z"
         id="path158" />
      <path
         class="st1"
         d="M380.1,148.7c-1.2,0-2.2,0.5-2.9,1.4c-0.7,0.9-1.1,2.1-1.1,3.5c0,1.4,0.4,2.6,1.1,3.5    c0.7,0.9,1.7,1.4,2.9,1.4c0.8,0,1.5-0.1,2.1-0.3c0.6-0.2,1.3-0.5,2.1-0.8l1.3,3.2c-0.8,0.6-1.7,1-2.8,1.3c-1.1,0.3-2,0.4-2.7,0.4    c-2.7,0-4.8-0.8-6.3-2.3c-1.5-1.6-2.2-3.7-2.2-6.3c0-2.6,0.7-4.7,2.2-6.3s3.6-2.4,6.3-2.4c0.7,0,1.6,0.1,2.7,0.4    c1.1,0.3,2,0.7,2.8,1.3l-1.3,3.2c-0.8-0.4-1.5-0.6-2.1-0.8C381.6,148.8,380.9,148.7,380.1,148.7z"
         id="path160" />
      <path
         class="st1"
         d="M394.2,138c0.7,0,1.3,0.2,1.8,0.7s0.7,1.1,0.7,1.8c0,0.7-0.2,1.3-0.7,1.8c-0.5,0.5-1.1,0.7-1.8,0.7    c-0.7,0-1.3-0.2-1.7-0.7c-0.5-0.5-0.7-1.1-0.7-1.8c0-0.7,0.2-1.3,0.7-1.8C392.9,138.3,393.5,138,394.2,138z M396.4,145.3v16.5H392    v-16.5H396.4z"
         id="path162" />
      <path
         class="st1"
         d="M411.5,162.2c-2.6,0-4.6-0.8-6.1-2.4c-1.5-1.6-2.2-3.7-2.2-6.3c0-2.6,0.8-4.7,2.3-6.3    c1.5-1.6,3.6-2.3,6.3-2.3c2.7,0,4.9,0.8,6.4,2.4c1.5,1.6,2.3,3.7,2.3,6.4c0,2.6-0.8,4.7-2.4,6.2    C416.3,161.5,414.2,162.2,411.5,162.2z M415.9,153.7c0-1.6-0.3-2.8-1-3.7c-0.7-0.9-1.7-1.3-2.9-1.3c-1.3,0-2.3,0.4-3,1.2    c-0.7,0.8-1.1,2-1.1,3.6s0.3,2.9,0.9,3.7c0.6,0.8,1.6,1.3,2.9,1.3c1.3,0,2.3-0.4,3.1-1.1C415.5,156.6,415.9,155.4,415.9,153.7z     M411.2,136.2h4.5l-3.2,5.6h-3.4L411.2,136.2z"
         id="path164" />
      <path
         class="st1"
         d="M430.8,147.1c0.7-0.7,1.7-1.3,2.8-1.8c1.1-0.4,2.1-0.6,3-0.6c2.2,0,3.8,0.7,4.8,2s1.4,2.9,1.4,4.8v10.3h-4.4    v-10.1c0-1-0.3-1.8-0.7-2.4c-0.5-0.6-1.2-0.8-2.2-0.8c-0.6,0-1.3,0.2-2,0.5c-0.7,0.3-1.3,0.7-1.9,1.1v11.7h-4.4v-16.5h2.3    L430.8,147.1z"
         id="path166" />
      <path
         class="st1"
         d="M327,172.9c-1-0.3-1.8-0.5-2.4-0.7s-1.5-0.3-2.4-0.3c-1.8,0-3.3,0.7-4.3,2.2c-1,1.5-1.5,3.5-1.5,6.2    c0,2.2,0.4,4.2,1.3,5.8c0.8,1.6,2.2,2.4,4.2,2.4c1,0,1.9-0.1,2.7-0.3c0.9-0.2,1.6-0.5,2.3-0.7l1.7,3.3c-0.9,0.5-1.9,0.8-3.2,1.1    c-1.2,0.3-2.3,0.4-3.3,0.4c-3.6,0-6.2-1.2-7.9-3.5c-1.6-2.3-2.4-5.1-2.4-8.5c0-3.6,0.9-6.5,2.7-8.7c1.8-2.3,4.4-3.4,7.8-3.4    c0.7,0,1.6,0.1,2.8,0.3s2.3,0.6,3.3,1.2L327,172.9z"
         id="path168" />
      <path
         class="st1"
         d="M337.5,168c0.7,0,1.3,0.2,1.8,0.7s0.7,1.1,0.7,1.8c0,0.7-0.2,1.3-0.7,1.8c-0.5,0.5-1.1,0.7-1.8,0.7    c-0.7,0-1.3-0.2-1.7-0.7c-0.5-0.5-0.7-1.1-0.7-1.8c0-0.7,0.2-1.3,0.7-1.8C336.3,168.3,336.8,168,337.5,168z M339.7,175.3v16.5    h-4.4v-16.5H339.7z"
         id="path170" />
      <path
         class="st1"
         d="M351.6,191.8l-6.3-15.9l4.6-0.6l3.8,10l3.6-10h4.7l-6.5,16.5H351.6z"
         id="path172" />
      <path
         class="st1"
         d="M369.6,168c0.7,0,1.3,0.2,1.8,0.7c0.5,0.5,0.7,1.1,0.7,1.8c0,0.7-0.2,1.3-0.7,1.8c-0.5,0.5-1.1,0.7-1.8,0.7    c-0.7,0-1.3-0.2-1.7-0.7c-0.5-0.5-0.7-1.1-0.7-1.8c0-0.7,0.2-1.3,0.7-1.8C368.4,168.3,368.9,168,369.6,168z M371.8,175.3v16.5    h-4.4v-16.5H371.8z"
         id="path174" />
      <path
         class="st1"
         d="M383.9,167.8v24h-4.4v-23.6L383.9,167.8z"
         id="path176" />
    </g>
  </g>
</svg>
