<?xml version="1.0" encoding="UTF-8" standalone="no"?>
<svg
   id="svg2"
   version="1.1"
   inkscape:version="1.1.1 (3bf5ae0d25, 2021-09-20)"
   xml:space="preserve"
   width="305.67841"
   height="239.02037"
   viewBox="0 0 305.67841 239.02037"
   sodipodi:docname="pycamp-template.svg"
   inkscape:export-filename="/tmp/pycamp-template.png"
   inkscape:export-xdpi="400"
   inkscape:export-ydpi="400"
   xmlns:inkscape="http://www.inkscape.org/namespaces/inkscape"
   xmlns:sodipodi="http://sodipodi.sourceforge.net/DTD/sodipodi-0.dtd"
   xmlns="http://www.w3.org/2000/svg"
   xmlns:svg="http://www.w3.org/2000/svg"
   xmlns:rdf="http://www.w3.org/1999/02/22-rdf-syntax-ns#"
   xmlns:cc="http://creativecommons.org/ns#"
   xmlns:dc="http://purl.org/dc/elements/1.1/"><metadata
     id="metadata8"><rdf:RDF><cc:Work
         rdf:about=""><dc:format>image/svg+xml</dc:format><dc:type
           rdf:resource="http://purl.org/dc/dcmitype/StillImage" /></cc:Work></rdf:RDF></metadata><defs
     id="defs6"><clipPath
       clipPathUnits="userSpaceOnUse"
       id="clipPath20"><path
         d="m 643.191,1277.22 c 350.336,0 634.339,-284.001 634.339,-634.337 C 1277.53,292.547 993.527,8.54688 643.191,8.54688 292.855,8.54688 8.85156,292.547 8.85156,642.883 c 0,350.336 284.00344,634.337 634.33944,634.337 z"
         id="path22"
         inkscape:connector-curvature="0"
         style="clip-rule:evenodd" /></clipPath><clipPath
       clipPathUnits="userSpaceOnUse"
       id="clipPath32"><path
         d="m 452.039,582.723 c -0.937,-2.981 -2.019,-5.528 -3.07,-8.594 -0.504,-1.469 -1.086,-2.891 -1.492,-4.231 -0.789,-2.589 -0.965,-1.55 0.156,-3.281 -1.754,-0.578 -0.313,1.75 -2.672,-6.121 -14.41,-48.039 -19.547,-100.113 -8.953,-149.183 1.836,-8.512 4.297,-18.239 7.156,-26.422 5.231,-14.977 7.602,-21.782 14.84,-36.192 1.996,-3.969 4.144,-7.527 6.07,-11.426 0.867,-2.902 8.434,-14.519 10.969,-17.839 1.535,-2.012 2.18,-3.731 3.75,-5.844 5.559,-7.485 11.066,-14.09 17.625,-21.297 7.551,-8.297 13.301,-14.133 19.293,-19.566 -48.492,-20.836 -182.316,-16.782 -222.992,-5.875 2.558,6.074 9.789,20.105 12.781,26.253 5.816,11.946 22.855,52.645 22.848,62.036 2.89,7.91 6.527,27.922 8.496,36.996 0.894,4.14 1.328,9.816 1.898,14.164 3.414,25.926 3.707,50.418 2.086,75.285 -0.269,4.098 -0.629,7.262 -0.89,11.5 l -8.352,52.16 c -0.43,1.313 -0.035,0.484 -0.586,1.418 -0.926,1.57 0.707,-0.289 -1.062,1.301 1.796,1.84 1.054,1.695 0.105,5.398 -0.539,2.121 -0.895,3.825 -1.406,5.899 -0.973,3.941 -2.172,7.699 -3.063,11.613 3.192,0.582 6.512,1.027 9.774,1.668 2.992,0.586 6.343,1.836 9.113,1.918 0.734,-3.203 3.152,-7.77 4.437,-10.691 l 3.575,-7.692 c 0.914,-1.281 0.187,-0.875 1.871,-1.371 0.289,-3.562 -4.321,62.5 -2.258,58.293 1.148,-2.34 2.133,-4.086 3.254,-6.207 l 16.476,-30.297 c 0.364,-0.59 0.696,-1.09 1,-1.551 10.848,28.836 12.329,-5.531 26.215,19.258 1.852,1.004 25.035,-3.973 26.016,-1.508 3.422,-0.668 9.699,-3.882 13.629,-5.234 2.133,-0.738 4.871,-1.656 7.039,-2.273 5.89,-1.688 5.551,-0.532 6.324,-2.465 z"
         id="path34"
         inkscape:connector-curvature="0"
         style="clip-rule:evenodd" /></clipPath><linearGradient
       x1="463.83899"
       y1="154.711"
       x2="448.84799"
       y2="182.627"
       gradientUnits="userSpaceOnUse"
       gradientTransform="translate(-415.76099,-137.0251)"
       spreadMethod="pad"
       id="linearGradient36"><stop
         style="stop-opacity:1;stop-color:#336f9e"
         offset="0"
         id="stop38" /><stop
         style="stop-opacity:1;stop-color:#236194"
         offset="1"
         id="stop40" /></linearGradient><clipPath
       clipPathUnits="userSpaceOnUse"
       id="clipPath56"><path
         d="m 452.039,582.723 c -0.937,-2.981 -2.019,-5.528 -3.07,-8.594 -0.504,-1.469 -1.086,-2.891 -1.492,-4.231 -0.789,-2.589 -0.965,-1.55 0.156,-3.281 -1.754,-0.578 -0.313,1.75 -2.672,-6.121 -14.41,-48.039 -19.547,-100.113 -8.953,-149.183 1.836,-8.512 4.297,-18.239 7.156,-26.422 5.231,-14.977 7.602,-21.782 14.84,-36.192 1.996,-3.969 4.144,-7.527 6.07,-11.426 0.867,-2.902 8.434,-14.519 10.969,-17.839 1.535,-2.012 2.18,-3.731 3.75,-5.844 5.559,-7.485 11.066,-14.09 17.625,-21.297 7.551,-8.297 13.301,-14.133 19.293,-19.566 -48.492,-20.836 -182.316,-16.782 -222.992,-5.875 2.558,6.074 9.789,20.105 12.781,26.253 5.816,11.946 22.855,52.645 22.848,62.036 2.89,7.91 6.527,27.922 8.496,36.996 0.894,4.14 1.328,9.816 1.898,14.164 3.414,25.926 3.707,50.418 2.086,75.285 -0.269,4.098 -0.629,7.262 -0.89,11.5 l -8.352,52.16 c -0.43,1.313 -0.035,0.484 -0.586,1.418 -0.926,1.57 0.707,-0.289 -1.062,1.301 1.796,1.84 1.054,1.695 0.105,5.398 -0.539,2.121 -0.895,3.825 -1.406,5.899 -0.973,3.941 -2.172,7.699 -3.063,11.613 3.192,0.582 6.512,1.027 9.774,1.668 2.992,0.586 6.343,1.836 9.113,1.918 0.734,-3.203 3.152,-7.77 4.437,-10.691 l 3.575,-7.692 c 0.914,-1.281 0.187,-0.875 1.871,-1.371 0.289,-3.562 -4.321,62.5 -2.258,58.293 1.148,-2.34 2.133,-4.086 3.254,-6.207 l 16.476,-30.297 c 0.364,-0.59 0.696,-1.09 1,-1.551 10.848,28.836 12.329,-5.531 26.215,19.258 1.852,1.004 25.035,-3.973 26.016,-1.508 3.422,-0.668 9.699,-3.882 13.629,-5.234 2.133,-0.738 4.871,-1.656 7.039,-2.273 5.89,-1.688 5.551,-0.532 6.324,-2.465 z"
         id="path58"
         inkscape:connector-curvature="0"
         style="clip-rule:evenodd" /></clipPath><linearGradient
       x1="463.83899"
       y1="154.711"
       x2="448.84799"
       y2="182.627"
       gradientUnits="userSpaceOnUse"
       gradientTransform="translate(-415.76099,-137.0251)"
       spreadMethod="pad"
       id="linearGradient60"><stop
         style="stop-opacity:1;stop-color:#336f9e"
         offset="0"
         id="stop62" /><stop
         style="stop-opacity:1;stop-color:#236194"
         offset="1"
         id="stop64" /></linearGradient><clipPath
       clipPathUnits="userSpaceOnUse"
       id="clipPath72"><path
         d="m 411.957,585.402 c -3.695,0.879 -6.219,5.45 -9.769,6.946 -1.356,-0.672 -3.989,-3.41 -5.493,-4.723 -9.957,-8.711 -18.187,-14.32 -30.25,-19.703 -2.961,-1.317 -11.449,-5.25 -14.425,-5.211 -1.528,0.519 -4.118,-2.645 -4.911,-1.434 l -17.812,-3.882 c -11.817,-2.34 -23.32,-0.661 -34.914,0.007 -7.961,0.457 -27.285,6.715 -35.297,10.25 -6.254,2.758 -13.93,6.661 -19.129,10.387 -2.973,2.137 -5.371,3.652 -7.957,5.813 -7.766,6.488 -7.324,5.574 -14.793,13.449 -11.769,12.414 -19.273,25.851 -25.492,41.742 -10.762,27.496 -7.442,64.016 7.379,90.047 9.59,16.84 19.597,26.844 33.859,37.387 l 3.047,2.316 c 4.391,3.125 16.996,9.977 21.945,11.594 1.493,8.679 3.559,14.894 6.352,21.902 4.469,11.215 8.633,16.961 15.051,25.774 6.711,9.214 17.23,18.906 26.925,25.14 l 7.508,4.813 c 2.446,1.636 5.129,2.976 7.942,4.203 17.48,7.629 27,10.922 47.328,12.441 7.32,0.547 13.359,0.625 22.492,-0.949 l 24.547,-4.227 c 5.305,-1.367 10.828,-3.558 20.926,-8.339 11.851,-5.614 22.156,-13.247 31.406,-21.977 l 9.371,-10.012 c 3.801,-4.664 7.695,-9.582 10.625,-14.836 2.672,-4.797 9.578,-16.39 9.852,-21.097 171.093,-47.215 108.324,-246.27 -23.543,-232.219 -9.485,1.379 -9.649,0.187 -22.571,4.289 -2.554,0.809 -11.726,3.414 -13.754,4.988 z"
         id="path74"
         inkscape:connector-curvature="0"
         style="clip-rule:evenodd" /></clipPath><linearGradient
       x1="436.60001"
       y1="210.44"
       x2="469.995"
       y2="182.978"
       gradientUnits="userSpaceOnUse"
       gradientTransform="translate(-415.76099,-137.0251)"
       spreadMethod="pad"
       id="linearGradient76"><stop
         style="stop-opacity:1;stop-color:#239e4f"
         offset="0"
         id="stop78" /><stop
         style="stop-opacity:1;stop-color:#1f873f"
         offset="1"
         id="stop80" /></linearGradient><clipPath
       clipPathUnits="userSpaceOnUse"
       id="clipPath88"><path
         d="m 291.188,577.945 h 72.402 c 21.773,0 39.59,-34.039 39.59,-75.629 v -0.003 h -64.739 c -2.832,0 -5.156,-2.325 -5.156,-5.165 v 0 c 0,-2.832 2.32,-5.16 5.156,-5.16 h 31.262 33.102 51.824 c 23.258,0 42.289,-36.351 42.289,-80.781 v 0 c 0,-44.43 -19.031,-80.781 -42.289,-80.781 h -35.973 -9.324 -21.965 c -8.566,0 -15.578,13.39 -15.578,29.758 v 0 c 0,16.371 7.012,29.761 15.578,29.761 h 16.692 26.351 c 4.801,0 8.727,8.266 8.727,18.368 v 0 c 0,5.738 -1.27,10.886 -3.246,14.265 l -1.996,2.563 c -1.071,0.988 -2.25,1.539 -3.485,1.539 h -66.82 -18.129 -54.273 c -21.77,0 -39.594,34.035 -39.594,75.633 v 0.003 c 0,41.598 17.816,75.629 39.594,75.629 z"
         id="path90"
         inkscape:connector-curvature="0"
         style="clip-rule:evenodd" /></clipPath><linearGradient
       x1="462.535"
       y1="163.283"
       x2="442.168"
       y2="182.32401"
       gradientUnits="userSpaceOnUse"
       gradientTransform="translate(-415.76099,-137.0251)"
       spreadMethod="pad"
       id="linearGradient92"><stop
         style="stop-opacity:1;stop-color:#ffe773"
         offset="0"
         id="stop94" /><stop
         style="stop-opacity:1;stop-color:#ffd43b"
         offset="1"
         id="stop96" /></linearGradient><clipPath
       clipPathUnits="userSpaceOnUse"
       id="clipPath104"><path
         d="m 432.055,497.074 c -2.895,-27.543 -2.168,-55.39 3.254,-82.383 v -0.019 h -95.567 c 2.457,22.863 2.531,44.742 1.086,66.914 -0.269,4.098 -0.629,7.262 -0.89,11.5 l -0.637,3.988 z"
         id="path106"
         inkscape:connector-curvature="0"
         style="clip-rule:evenodd" /></clipPath><linearGradient
       x1="463.83899"
       y1="154.711"
       x2="448.84799"
       y2="182.627"
       gradientUnits="userSpaceOnUse"
       gradientTransform="translate(-415.76099,-137.0251)"
       spreadMethod="pad"
       id="linearGradient108"><stop
         style="stop-opacity:1;stop-color:#336f9e"
         offset="0"
         id="stop110" /><stop
         style="stop-opacity:1;stop-color:#236194"
         offset="1"
         id="stop112" /></linearGradient></defs><sodipodi:namedview
     pagecolor="#ffffff"
     bordercolor="#666666"
     borderopacity="1"
     objecttolerance="10"
     gridtolerance="10"
     guidetolerance="10"
     inkscape:pageopacity="0"
     inkscape:pageshadow="2"
     inkscape:window-width="2560"
     inkscape:window-height="1339"
     id="namedview4"
     showgrid="false"
     inkscape:zoom="2.8332956"
     inkscape:cx="46.412383"
     inkscape:cy="91.060037"
     inkscape:window-x="0"
     inkscape:window-y="38"
     inkscape:window-maximized="1"
     inkscape:current-layer="g883"
     inkscape:document-rotation="0"
     lock-margins="true"
     fit-margin-top="80"
     fit-margin-left="80"
     fit-margin-right="80"
     fit-margin-bottom="80"
     inkscape:pagecheckerboard="0" /><g
     id="g10"
     inkscape:groupmode="layer"
     inkscape:label="ink_ext_XXXXXX"
     transform="matrix(1.25,0,0,-1.25,74.641665,178.0956)"><g
       id="g883"><path
         inkscape:connector-curvature="0"
         id="path14"
         style="fill:#4f4c4c;fill-opacity:1;fill-rule:nonzero;stroke:none"
         d="m 66.322605,39.954998 c 0,-0.9278 -0.3227,-1.6555 -0.9684,-2.1832 -0.6093,-0.5 -1.4007,-0.75 -2.3738,-0.75 -0.3184,0 -0.6367,0.0269 -0.9551,0.0816 v -3.8062 h -1.3097 v 9.2359 c 0.6914,0.1641 1.455,0.2461 2.2922,0.2461 0.964,0 1.7417,-0.223 2.3328,-0.6688 0.6547,-0.5 0.982,-1.2187 0.982,-2.1554 z m -1.3777,0.0269 c 0,1.0918 -0.6504,1.6375 -1.9508,1.6375 -0.2821,0 -0.6051,-0.032 -0.9688,-0.0957 v -3.2742 c 0.3637,-0.0547 0.6731,-0.082 0.9278,-0.082 0.6093,0 1.0937,0.1523 1.4527,0.457 0.3594,0.3047 0.5391,0.7574 0.5391,1.3574 z m 8.8953,0.1368 -2.4285,-7.1083 c -0.2454,-0.7089 -0.5778,-1.3187 -0.9957,-1.8281 -0.4821,-0.5816 -1.0188,-0.9547 -1.6102,-1.1187 l -0.5863,0.9144 c 0.973,0.3 1.6734,1.0414 2.1008,2.2235 -0.2911,0.064 -0.5137,0.2914 -0.6688,0.6824 l -2.5375,6.2348 h 1.3918 l 2.1418,-5.6618 h 0.0137 l 1.8691,5.6618 z m 7.8582,1.9781 -0.4914,-0.9688 c -0.7,0.3367 -1.3735,0.5051 -2.0192,0.5051 -1.0093,0 -1.8187,-0.3594 -2.4281,-1.0777 -0.573,-0.6825 -0.8598,-1.5375 -0.8598,-2.5653 0,-1.0273 0.2914,-1.8871 0.8731,-2.5785 0.6277,-0.7367 1.4508,-1.1047 2.4699,-1.1047 0.6,0 1.2274,0.1317 1.8824,0.3953 l 0.4094,-1.023 c -0.7914,-0.3547 -1.5965,-0.532 -2.4148,-0.532 -1.3641,0 -2.4786,0.4773 -3.3426,1.4324 -0.8367,0.9277 -1.2551,2.0781 -1.2551,3.4516 0,1.3824 0.425,2.5171 1.2754,3.4039 0.8504,0.8867 1.9625,1.3304 3.3359,1.3304 0.8188,0 1.6735,-0.223 2.5649,-0.6687 z m 6.5347,-8.4449 c -1.0457,-0.3368 -1.9507,-0.5047 -2.7148,-0.5047 -0.8641,0 -1.5461,0.1679 -2.0465,0.5047 -0.5367,0.3546 -0.8047,0.8546 -0.8047,1.5007 0,0.6731 0.25,1.1871 0.75,1.5414 0.3547,0.2551 0.8867,0.4547 1.5965,0.6004 0.7094,0.1457 1.1461,0.25 1.3094,0.3141 0.382,0.1543 0.5734,0.3773 0.5734,0.6684 0,0.6183 -0.4457,0.9277 -1.3371,0.9277 -0.5187,0 -1.1187,-0.1457 -1.8012,-0.4367 l -0.4226,0.955 c 0.773,0.3637 1.5418,0.5458 2.3055,0.5458 1.6644,0 2.4968,-0.7278 2.4968,-2.1829 v -3.5605 c 0,-0.1731 0.0317,-0.4641 0.0953,-0.8734 z m -1.2961,0.7914 c -0.0179,0.1273 -0.0273,0.2183 -0.0273,0.2726 v 2.1422 c -0.1727,-0.1367 -0.6273,-0.2867 -1.3641,-0.4504 -0.4914,-0.1094 -0.8414,-0.2273 -1.0507,-0.3547 -0.309,-0.191 -0.4637,-0.4593 -0.4637,-0.8051 0,-0.691 0.4957,-1.0367 1.4871,-1.0367 0.5,0 0.973,0.0774 1.4187,0.2321 z m 12.47,-1.1461 h -1.2282 v 4.3929 c 0,1.0094 -0.4636,1.5145 -1.3914,1.5145 -0.4273,0 -0.9414,-0.141 -1.5418,-0.4231 0.0911,-0.2453 0.1364,-0.5593 0.1364,-0.9414 v -4.5429 h -1.2278 v 4.4066 c 0,1.0004 -0.464,1.5008 -1.3914,1.5008 -0.4004,0 -0.8871,-0.1184 -1.4597,-0.3547 0.0179,-0.1637 0.0273,-0.282 0.0273,-0.3547 v -5.198 h -1.2277 v 5.4023 c 0,0.182 -0.0278,0.4777 -0.0821,0.8867 1.1731,0.4551 2.1329,0.6825 2.8786,0.6825 0.855,0 1.4871,-0.209 1.8964,-0.6278 0.8188,0.4188 1.5782,0.6278 2.2782,0.6278 0.7367,0 1.3102,-0.2 1.7192,-0.6004 0.409,-0.4004 0.614,-0.9731 0.614,-1.7188 z m 7.831005,3.4242 c 0,-1.0367 -0.316,-1.8918 -0.948,-2.5649 -0.632,-0.673 -1.44,-1.0093 -2.422,-1.0093 -0.4,0 -0.818,0.0769 -1.255,0.232 v -3.1516 H 101.385 v 8.6903 c 0,0.182 -0.027,0.4687 -0.082,0.8593 0.874,0.3278 1.69701,0.4915 2.47001,0.4915 1.073,0 1.919,-0.3297 2.537,-0.9891 0.619,-0.6594 0.928,-1.5121 0.928,-2.5582 z m -1.364,0 c 0,0.7187 -0.16,1.2965 -0.478,1.7328 -0.373,0.5 -0.914,0.7504 -1.623,0.7504 -0.401,0 -0.801,-0.0774 -1.201,-0.232 0,-0.009 0.007,-0.0524 0.021,-0.1297 0.013,-0.077 0.02,-0.1387 0.02,-0.184 v -4.2293 c 0.3,-0.1457 0.65,-0.2184 1.051,-0.2184 1.473,0 2.21,0.8367 2.21,2.5102" /><path
         inkscape:connector-curvature="0"
         id="path24"
         style="fill:#115f32;fill-opacity:1;fill-rule:evenodd;stroke:none"
         d="m 62.768305,21.324498 c 32.182,-0.0914 58.176705,-1.5215 58.060705,-3.1945 -0.116,-1.6731 -26.298605,-2.9559 -58.480605,-2.8653 -32.1824,0.0911 -58.1773705,1.5211 -58.0613505,3.1946 0.11601,1.6734 26.2988505,2.9562 58.4812505,2.8652" /><path
         inkscape:connector-curvature="0"
         id="path42"
         style="fill:url(#linearGradient36);fill-opacity:1;fill-rule:nonzero;stroke:none"
         d="m 43.442905,49.247198 c -0.0937,-0.2981 -0.2019,-0.5528 -0.307,-0.8594 -0.0504,-0.1469 -0.1086,-0.2891 -0.1492,-0.4231 -0.0789,-0.2589 -0.0965,-0.155 0.0156,-0.3281 -0.1754,-0.0578 -0.0313,0.175 -0.2672,-0.6121 -1.441,-4.8039 -1.9547,-10.0113 -0.8953,-14.9183 0.1836,-0.8512 0.4297,-1.8239 0.7156,-2.6422 0.5231,-1.4977 0.7602,-2.1782 1.484,-3.6192 0.1996,-0.3969 0.4144,-0.7527 0.607,-1.1426 0.0867,-0.2902 0.8434,-1.4519 1.0969,-1.7839 0.1535,-0.2012 0.218,-0.3731 0.375,-0.5844 0.5559,-0.7485 1.1066,-1.409 1.7625,-2.1297 0.7551,-0.8297 1.3301,-1.4133 1.9293,-1.9566 -4.8492,-2.0836 -18.2316,-1.6782 -22.2992,-0.5875 0.2558,0.6074 0.9789,2.0105 1.2781,2.6253 0.5816,1.1946 2.2855,5.2645 2.2848,6.2036 0.289,0.791 0.6527,2.7922 0.8496,3.6996 0.0894,0.414 0.1328,0.9816 0.1898,1.4164 0.3414,2.5926 0.3707,5.0418 0.2086,7.5285 -0.0269,0.4098 -0.0629,0.7262 -0.089,1.15 l -0.8352,5.216 c -0.043,0.1313 -0.0035,0.0484 -0.0586,0.1418 -0.0926,0.157 0.0707,-0.0289 -0.1062,0.1301 0.1796,0.184 0.1054,0.1695 0.0105,0.5398 -0.0539,0.2121 -0.0895,0.3825 -0.1406,0.5899 -0.0973,0.3941 -0.2172,0.7699 -0.3063,1.1613 0.3192,0.0582 0.6512,0.1027 0.9774,0.1668 0.2992,0.0586 0.6343,0.1836 0.9113,0.1918 0.0734,-0.3203 0.3152,-0.777 0.4437,-1.0691 l 0.3575,-0.7692 c 0.0914,-0.1281 0.0187,-0.0875 0.1871,-0.1371 0.0289,-0.3562 -0.4321,6.25 -0.2258,5.8293 0.1148,-0.234 0.2133,-0.4086 0.3254,-0.6207 l 1.6476,-3.0297 c 0.0364,-0.059 0.0696,-0.109 0.1,-0.1551 1.0848,2.8836 1.2329,-0.5531 2.6215,1.9258 0.1852,0.1004 2.5035,-0.3973 2.6016,-0.1508 0.3422,-0.0668 0.9699,-0.3882 1.3629,-0.5234 0.2133,-0.0738 0.4871,-0.1656 0.7039,-0.2273 0.589,-0.1688 0.5551,-0.0532 0.6324,-0.2465" /><text
         xml:space="preserve"
         style="font-style:normal;font-weight:normal;font-size:5.38669px;line-height:1.25;font-family:sans-serif;font-variation-settings:normal;opacity:1;vector-effect:none;fill:#4f4c4c;fill-opacity:1;stroke:none;stroke-width:1.3317;stroke-linecap:butt;stroke-linejoin:miter;stroke-miterlimit:4;stroke-dasharray:none;stroke-dashoffset:0;stroke-opacity:1;-inkscape-stroke:none;stop-color:#000000;stop-opacity:1"
         x="72.227409"
         y="-27.956587"
         id="text17231"
         transform="scale(1,-1)"><tspan
           sodipodi:role="line"
           id="tspan17229"
           style="font-style:normal;font-variant:normal;font-weight:normal;font-stretch:normal;font-size:5.38669px;font-family:Ubuntu;-inkscape-font-specification:'Ubuntu, Normal';font-variant-ligatures:normal;font-variant-caps:normal;font-variant-numeric:normal;font-variant-east-asian:normal;font-variation-settings:normal;vector-effect:none;fill:#4f4c4c;fill-opacity:1;stroke:none;stroke-width:1.3317;stroke-linecap:butt;stroke-linejoin:miter;stroke-miterlimit:4;stroke-dasharray:none;stroke-dashoffset:0;stroke-opacity:1;-inkscape-stroke:none;stop-color:#000000;stop-opacity:1"
           x="72.227409"
           y="-27.956587">14ª edición</tspan></text><path
         inkscape:connector-curvature="0"
         id="path66"
         style="fill:url(#linearGradient60);fill-opacity:1;fill-rule:nonzero;stroke:none"
         d="m 43.442905,49.247198 c -0.0937,-0.2981 -0.2019,-0.5528 -0.307,-0.8594 -0.0504,-0.1469 -0.1086,-0.2891 -0.1492,-0.4231 -0.0789,-0.2589 -0.0965,-0.155 0.0156,-0.3281 -0.1754,-0.0578 -0.0313,0.175 -0.2672,-0.6121 -1.441,-4.8039 -1.9547,-10.0113 -0.8953,-14.9183 0.1836,-0.8512 0.4297,-1.8239 0.7156,-2.6422 0.5231,-1.4977 0.7602,-2.1782 1.484,-3.6192 0.1996,-0.3969 0.4144,-0.7527 0.607,-1.1426 0.0867,-0.2902 0.8434,-1.4519 1.0969,-1.7839 0.1535,-0.2012 0.218,-0.3731 0.375,-0.5844 0.5559,-0.7485 1.1066,-1.409 1.7625,-2.1297 0.7551,-0.8297 1.3301,-1.4133 1.9293,-1.9566 -4.8492,-2.0836 -18.2316,-1.6782 -22.2992,-0.5875 0.2558,0.6074 0.9789,2.0105 1.2781,2.6253 0.5816,1.1946 2.2855,5.2645 2.2848,6.2036 0.289,0.791 0.6527,2.7922 0.8496,3.6996 0.0894,0.414 0.1328,0.9816 0.1898,1.4164 0.3414,2.5926 0.3707,5.0418 0.2086,7.5285 -0.0269,0.4098 -0.0629,0.7262 -0.089,1.15 l -0.8352,5.216 c -0.043,0.1313 -0.0035,0.0484 -0.0586,0.1418 -0.0926,0.157 0.0707,-0.0289 -0.1062,0.1301 0.1796,0.184 0.1054,0.1695 0.0105,0.5398 -0.0539,0.2121 -0.0895,0.3825 -0.1406,0.5899 -0.0973,0.3941 -0.2172,0.7699 -0.3063,1.1613 0.3192,0.0582 0.6512,0.1027 0.9774,0.1668 0.2992,0.0586 0.6343,0.1836 0.9113,0.1918 0.0734,-0.3203 0.3152,-0.777 0.4437,-1.0691 l 0.3575,-0.7692 c 0.0914,-0.1281 0.0187,-0.0875 0.1871,-0.1371 0.0289,-0.3562 -0.4321,6.25 -0.2258,5.8293 0.1148,-0.234 0.2133,-0.4086 0.3254,-0.6207 l 1.6476,-3.0297 c 0.0364,-0.059 0.0696,-0.109 0.1,-0.1551 1.0848,2.8836 1.2329,-0.5531 2.6215,1.9258 0.1852,0.1004 2.5035,-0.3973 2.6016,-0.1508 0.3422,-0.0668 0.9699,-0.3882 1.3629,-0.5234 0.2133,-0.0738 0.4871,-0.1656 0.7039,-0.2273 0.589,-0.1688 0.5551,-0.0532 0.6324,-0.2465" /><path
         inkscape:connector-curvature="0"
         id="path82"
         style="fill:url(#linearGradient76);fill-opacity:1;fill-rule:nonzero;stroke:none"
         d="m 39.434705,49.515098 c -0.3695,0.0879 -0.6219,0.545 -0.9769,0.6946 -0.1356,-0.0672 -0.3989,-0.341 -0.5493,-0.4723 -0.9957,-0.8711 -1.8187,-1.432 -3.025,-1.9703 -0.2961,-0.1317 -1.1449,-0.525 -1.4425,-0.5211 -0.1528,0.0519 -0.4118,-0.2645 -0.4911,-0.1434 l -1.7812,-0.3882 c -1.1817,-0.234 -2.332,-0.0661 -3.4914,7e-4 -0.7961,0.0457 -2.7285,0.6715 -3.5297,1.025 -0.6254,0.2758 -1.393,0.6661 -1.9129,1.0387 -0.2973,0.2137 -0.5371,0.3652 -0.7957,0.5813 -0.7766,0.6488 -0.7324,0.5574 -1.4793,1.3449 -1.1769,1.2414 -1.9273,2.5851 -2.5492,4.1742 -1.0762,2.7496 -0.7442,6.4016 0.7379,9.0047 0.959,1.684 1.9597,2.6844 3.3859,3.7387 l 0.3047,0.2316 c 0.4391,0.3125 1.6996,0.9977 2.1945,1.1594 0.1493,0.8679 0.3559,1.4894 0.6352,2.1902 0.4469,1.1215 0.8633,1.6961 1.5051,2.5774 0.6711,0.9214 1.723,1.8906 2.6925,2.514 l 0.7508,0.4813 c 0.2446,0.1636 0.5129,0.2976 0.7942,0.4203 1.748,0.7629 2.7,1.0922 4.7328,1.2441 0.732,0.0547 1.3359,0.0625 2.2492,-0.0949 l 2.4547,-0.4227 c 0.5305,-0.1367 1.0828,-0.3558 2.0926,-0.8339 1.1851,-0.5614 2.2156,-1.3247 3.1406,-2.1977 l 0.9371,-1.0012 c 0.3801,-0.4664 0.7695,-0.9582 1.0625,-1.4836 0.2672,-0.4797 0.9578,-1.639 0.9852,-2.1097 17.1093,-4.7215 10.8324,-24.627 -2.3543,-23.2219 -0.9485,0.1379 -0.9649,0.0187 -2.2571,0.4289 -0.2554,0.0809 -1.1726,0.3414 -1.3754,0.4988 l -2.6445,1.5121" /><path
         inkscape:connector-curvature="0"
         id="path98"
         style="fill:url(#linearGradient92);fill-opacity:1;fill-rule:nonzero;stroke:none"
         d="m 27.357805,48.769398 h 7.2402 c 2.1773,0 3.959,-3.4039 3.959,-7.5629 v -3e-4 h -6.4739 c -0.2832,0 -0.5156,-0.2325 -0.5156,-0.5165 v 0 c 0,-0.2832 0.232,-0.516 0.5156,-0.516 h 11.6188 c 2.3258,0 4.2289,-3.6351 4.2289,-8.0781 v 0 c 0,-4.443 -1.9031,-8.0781 -4.2289,-8.0781 h -6.7262 c -0.8566,0 -1.5578,1.339 -1.5578,2.9758 v 0 c 0,1.6371 0.7012,2.9761 1.5578,2.9761 h 4.3043 c 0.4801,0 0.8727,0.8266 0.8727,1.8368 v 0 c 0,0.5738 -0.127,1.0886 -0.3246,1.4265 l -0.1996,0.2563 c -0.1071,0.0988 -0.225,0.1539 -0.3485,0.1539 h -13.9222 c -2.177,0 -3.9594,3.4035 -3.9594,7.5633 v 3e-4 c 0,4.1598 1.7816,7.5629 3.9594,7.5629" /><path
         inkscape:connector-curvature="0"
         id="path114"
         style="fill:url(#linearGradient108);fill-opacity:1;fill-rule:nonzero;stroke:none"
         d="m 41.444505,40.682298 c -0.2895,-2.7543 -0.2168,-5.539 0.3254,-8.2383 v -0.0019 h -9.5567 c 0.2457,2.2863 0.2531,4.4742 0.1086,6.6914 -0.0269,0.4098 -0.0629,0.7262 -0.089,1.15 l -0.0637,0.3988 h 9.2754" /><path
         inkscape:connector-curvature="0"
         id="path116"
         style="fill:#ffffff;fill-opacity:1;fill-rule:evenodd;stroke:none"
         d="m 34.198805,43.193698 c 0.807,0 1.4609,0.6539 1.4609,1.4609 0,0.8066 -0.6539,1.4609 -1.4609,1.4609 -0.8067,0 -1.4606,-0.6543 -1.4606,-1.4609 0,-0.807 0.6539,-1.4609 1.4606,-1.4609" /><text
         xml:space="preserve"
         style="font-style:normal;font-weight:normal;font-size:32px;line-height:1.25;font-family:sans-serif;fill:#000000;fill-opacity:1;stroke:none;stroke-width:0.8"
         x="148.13744"
         y="-62.074593"
         id="text24759"
         transform="scale(1,-1)"><tspan
           sodipodi:role="line"
           id="tspan24757"
           style="font-style:normal;font-variant:normal;font-weight:normal;font-stretch:normal;font-size:32px;font-family:Ubuntu;-inkscape-font-specification:'Ubuntu, Normal';font-variant-ligatures:normal;font-variant-caps:normal;font-variant-numeric:normal;font-variant-east-asian:normal;stroke-width:0.8"
           x="148.13744"
           y="-62.074593" /></text><text
         xml:space="preserve"
         style="font-style:normal;font-weight:normal;font-size:16.3383px;line-height:1.25;font-family:sans-serif;font-variation-settings:normal;opacity:1;vector-effect:none;fill:#231f20;fill-opacity:1;stroke:none;stroke-width:1.0179;stroke-linecap:butt;stroke-linejoin:miter;stroke-miterlimit:4;stroke-dasharray:none;stroke-dashoffset:0;stroke-opacity:1;-inkscape-stroke:none;stop-color:#000000;stop-opacity:1"
         x="101.05389"
         y="-62.302574"
         id="text67969"
         transform="scale(1,-1)"><tspan
           sodipodi:role="line"
           id="tspan67967"
           style="font-style:normal;font-variant:normal;font-weight:bold;font-stretch:normal;font-size:16.3383px;font-family:Ubuntu;-inkscape-font-specification:'Ubuntu, Bold';font-variant-ligatures:normal;font-variant-caps:normal;font-variant-numeric:normal;font-variant-east-asian:normal;font-variation-settings:normal;vector-effect:none;fill:#231f20;fill-opacity:1;stroke:none;stroke-width:1.0179;stroke-linecap:butt;stroke-linejoin:miter;stroke-miterlimit:4;stroke-dasharray:none;stroke-dashoffset:0;stroke-opacity:1;-inkscape-stroke:none;stop-color:#000000;stop-opacity:1"
           x="101.05389"
           y="-62.302574">22</tspan></text><text
         xml:space="preserve"
         style="font-style:normal;font-weight:normal;font-size:6.4123px;line-height:1.25;font-family:sans-serif;font-variation-settings:normal;opacity:1;vector-effect:none;fill:#7b7979;fill-opacity:1;stroke:none;stroke-width:0.200383;stroke-linecap:butt;stroke-linejoin:miter;stroke-miterlimit:4;stroke-dasharray:none;stroke-dashoffset:0;stroke-opacity:1;-inkscape-stroke:none;stop-color:#000000;stop-opacity:1"
         x="93.437584"
         y="-62.398758"
         id="text67969-2"
         transform="scale(1,-1)"><tspan
           sodipodi:role="line"
           id="tspan67967-2"
           style="font-style:normal;font-variant:normal;font-weight:normal;font-stretch:normal;font-size:6.4123px;font-family:Ubuntu;-inkscape-font-specification:'Ubuntu, Normal';font-variant-ligatures:normal;font-variant-caps:normal;font-variant-numeric:normal;font-variant-east-asian:normal;font-variation-settings:normal;vector-effect:none;fill:#7b7979;fill-opacity:1;stroke:none;stroke-width:0.200383;stroke-linecap:butt;stroke-linejoin:miter;stroke-miterlimit:4;stroke-dasharray:none;stroke-dashoffset:0;stroke-opacity:1;-inkscape-stroke:none;stop-color:#000000;stop-opacity:1"
           x="93.437584"
           y="-62.398758">20</tspan></text><text
         xml:space="preserve"
         style="font-style:normal;font-weight:normal;font-size:9.24096px;line-height:1.25;font-family:sans-serif;font-variation-settings:normal;opacity:1;vector-effect:none;fill:#231f20;fill-opacity:1;stroke:none;stroke-width:1;stroke-linecap:butt;stroke-linejoin:miter;stroke-miterlimit:4;stroke-dasharray:none;stroke-dashoffset:0;stroke-opacity:1;-inkscape-stroke:none;stop-color:#000000;stop-opacity:1"
         x="59.782673"
         y="-68.097435"
         id="text80659"
         transform="scale(1,-1)"><tspan
           sodipodi:role="line"
           id="tspan80657"
           style="font-style:normal;font-variant:normal;font-weight:normal;font-stretch:normal;font-size:9.24096px;font-family:Ubuntu;-inkscape-font-specification:'Ubuntu, Normal';font-variant-ligatures:normal;font-variant-caps:normal;font-variant-numeric:normal;font-variant-east-asian:normal;font-variation-settings:normal;vector-effect:none;fill:#231f20;fill-opacity:1;stroke:none;stroke-width:1;stroke-linecap:butt;stroke-linejoin:miter;stroke-miterlimit:4;stroke-dasharray:none;stroke-dashoffset:0;stroke-opacity:1;-inkscape-stroke:none;stop-color:#000000;stop-opacity:1"
           x="59.782673"
           y="-68.097435">Baradero</tspan></text></g></g></svg>
