<?xml version="1.0" encoding="UTF-8" standalone="no"?>
<svg
   xmlns:dc="http://purl.org/dc/elements/1.1/"
   xmlns:cc="http://creativecommons.org/ns#"
   xmlns:rdf="http://www.w3.org/1999/02/22-rdf-syntax-ns#"
   xmlns:svg="http://www.w3.org/2000/svg"
   xmlns="http://www.w3.org/2000/svg"
   xmlns:sodipodi="http://sodipodi.sourceforge.net/DTD/sodipodi-0.dtd"
   xmlns:inkscape="http://www.inkscape.org/namespaces/inkscape"
   id="svg2"
   version="1.1"
   inkscape:version="1.0.1 (3bc2e813f5, 2020-09-07)"
   xml:space="preserve"
   width="185.67841"
   height="119.02038"
   viewBox="0 0 185.67841 119.02038"
   sodipodi:docname="logo-pycamp.svg"><metadata
     id="metadata8"><rdf:RDF><cc:Work
         rdf:about=""><dc:format>image/svg+xml</dc:format><dc:type
           rdf:resource="http://purl.org/dc/dcmitype/StillImage" /><dc:title></dc:title></cc:Work></rdf:RDF></metadata><defs
     id="defs6"><clipPath
       clipPathUnits="userSpaceOnUse"
       id="clipPath20"><path
         d="m 643.191,1277.22 c 350.336,0 634.339,-284.001 634.339,-634.337 C 1277.53,292.547 993.527,8.54688 643.191,8.54688 292.855,8.54688 8.85156,292.547 8.85156,642.883 c 0,350.336 284.00344,634.337 634.33944,634.337 z"
         id="path22"
         inkscape:connector-curvature="0"
         style="clip-rule:evenodd" /></clipPath><clipPath
       clipPathUnits="userSpaceOnUse"
       id="clipPath32"><path
         d="m 452.039,582.723 c -0.937,-2.981 -2.019,-5.528 -3.07,-8.594 -0.504,-1.469 -1.086,-2.891 -1.492,-4.231 -0.789,-2.589 -0.965,-1.55 0.156,-3.281 -1.754,-0.578 -0.313,1.75 -2.672,-6.121 -14.41,-48.039 -19.547,-100.113 -8.953,-149.183 1.836,-8.512 4.297,-18.239 7.156,-26.422 5.231,-14.977 7.602,-21.782 14.84,-36.192 1.996,-3.969 4.144,-7.527 6.07,-11.426 0.867,-2.902 8.434,-14.519 10.969,-17.839 1.535,-2.012 2.18,-3.731 3.75,-5.844 5.559,-7.485 11.066,-14.09 17.625,-21.297 7.551,-8.297 13.301,-14.133 19.293,-19.566 -48.492,-20.836 -182.316,-16.782 -222.992,-5.875 2.558,6.074 9.789,20.105 12.781,26.253 5.816,11.946 22.855,52.645 22.848,62.036 2.89,7.91 6.527,27.922 8.496,36.996 0.894,4.14 1.328,9.816 1.898,14.164 3.414,25.926 3.707,50.418 2.086,75.285 -0.269,4.098 -0.629,7.262 -0.89,11.5 l -8.352,52.16 c -0.43,1.313 -0.035,0.484 -0.586,1.418 -0.926,1.57 0.707,-0.289 -1.062,1.301 1.796,1.84 1.054,1.695 0.105,5.398 -0.539,2.121 -0.895,3.825 -1.406,5.899 -0.973,3.941 -2.172,7.699 -3.063,11.613 3.192,0.582 6.512,1.027 9.774,1.668 2.992,0.586 6.343,1.836 9.113,1.918 0.734,-3.203 3.152,-7.77 4.437,-10.691 l 3.575,-7.692 c 0.914,-1.281 0.187,-0.875 1.871,-1.371 0.289,-3.562 -4.321,62.5 -2.258,58.293 1.148,-2.34 2.133,-4.086 3.254,-6.207 l 16.476,-30.297 c 0.364,-0.59 0.696,-1.09 1,-1.551 10.848,28.836 12.329,-5.531 26.215,19.258 1.852,1.004 25.035,-3.973 26.016,-1.508 3.422,-0.668 9.699,-3.882 13.629,-5.234 2.133,-0.738 4.871,-1.656 7.039,-2.273 5.89,-1.688 5.551,-0.532 6.324,-2.465 z"
         id="path34"
         inkscape:connector-curvature="0"
         style="clip-rule:evenodd" /></clipPath><linearGradient
       x1="463.83899"
       y1="154.711"
       x2="448.84799"
       y2="182.627"
       gradientUnits="userSpaceOnUse"
       gradientTransform="translate(-415.76099,-137.0251)"
       spreadMethod="pad"
       id="linearGradient36"><stop
         style="stop-opacity:1;stop-color:#336f9e"
         offset="0"
         id="stop38" /><stop
         style="stop-opacity:1;stop-color:#236194"
         offset="1"
         id="stop40" /></linearGradient><clipPath
       clipPathUnits="userSpaceOnUse"
       id="clipPath56"><path
         d="m 452.039,582.723 c -0.937,-2.981 -2.019,-5.528 -3.07,-8.594 -0.504,-1.469 -1.086,-2.891 -1.492,-4.231 -0.789,-2.589 -0.965,-1.55 0.156,-3.281 -1.754,-0.578 -0.313,1.75 -2.672,-6.121 -14.41,-48.039 -19.547,-100.113 -8.953,-149.183 1.836,-8.512 4.297,-18.239 7.156,-26.422 5.231,-14.977 7.602,-21.782 14.84,-36.192 1.996,-3.969 4.144,-7.527 6.07,-11.426 0.867,-2.902 8.434,-14.519 10.969,-17.839 1.535,-2.012 2.18,-3.731 3.75,-5.844 5.559,-7.485 11.066,-14.09 17.625,-21.297 7.551,-8.297 13.301,-14.133 19.293,-19.566 -48.492,-20.836 -182.316,-16.782 -222.992,-5.875 2.558,6.074 9.789,20.105 12.781,26.253 5.816,11.946 22.855,52.645 22.848,62.036 2.89,7.91 6.527,27.922 8.496,36.996 0.894,4.14 1.328,9.816 1.898,14.164 3.414,25.926 3.707,50.418 2.086,75.285 -0.269,4.098 -0.629,7.262 -0.89,11.5 l -8.352,52.16 c -0.43,1.313 -0.035,0.484 -0.586,1.418 -0.926,1.57 0.707,-0.289 -1.062,1.301 1.796,1.84 1.054,1.695 0.105,5.398 -0.539,2.121 -0.895,3.825 -1.406,5.899 -0.973,3.941 -2.172,7.699 -3.063,11.613 3.192,0.582 6.512,1.027 9.774,1.668 2.992,0.586 6.343,1.836 9.113,1.918 0.734,-3.203 3.152,-7.77 4.437,-10.691 l 3.575,-7.692 c 0.914,-1.281 0.187,-0.875 1.871,-1.371 0.289,-3.562 -4.321,62.5 -2.258,58.293 1.148,-2.34 2.133,-4.086 3.254,-6.207 l 16.476,-30.297 c 0.364,-0.59 0.696,-1.09 1,-1.551 10.848,28.836 12.329,-5.531 26.215,19.258 1.852,1.004 25.035,-3.973 26.016,-1.508 3.422,-0.668 9.699,-3.882 13.629,-5.234 2.133,-0.738 4.871,-1.656 7.039,-2.273 5.89,-1.688 5.551,-0.532 6.324,-2.465 z"
         id="path58"
         inkscape:connector-curvature="0"
         style="clip-rule:evenodd" /></clipPath><linearGradient
       x1="463.83899"
       y1="154.711"
       x2="448.84799"
       y2="182.627"
       gradientUnits="userSpaceOnUse"
       gradientTransform="translate(-415.76099,-137.0251)"
       spreadMethod="pad"
       id="linearGradient60"><stop
         style="stop-opacity:1;stop-color:#336f9e"
         offset="0"
         id="stop62" /><stop
         style="stop-opacity:1;stop-color:#236194"
         offset="1"
         id="stop64" /></linearGradient><clipPath
       clipPathUnits="userSpaceOnUse"
       id="clipPath72"><path
         d="m 411.957,585.402 c -3.695,0.879 -6.219,5.45 -9.769,6.946 -1.356,-0.672 -3.989,-3.41 -5.493,-4.723 -9.957,-8.711 -18.187,-14.32 -30.25,-19.703 -2.961,-1.317 -11.449,-5.25 -14.425,-5.211 -1.528,0.519 -4.118,-2.645 -4.911,-1.434 l -17.812,-3.882 c -11.817,-2.34 -23.32,-0.661 -34.914,0.007 -7.961,0.457 -27.285,6.715 -35.297,10.25 -6.254,2.758 -13.93,6.661 -19.129,10.387 -2.973,2.137 -5.371,3.652 -7.957,5.813 -7.766,6.488 -7.324,5.574 -14.793,13.449 -11.769,12.414 -19.273,25.851 -25.492,41.742 -10.762,27.496 -7.442,64.016 7.379,90.047 9.59,16.84 19.597,26.844 33.859,37.387 l 3.047,2.316 c 4.391,3.125 16.996,9.977 21.945,11.594 1.493,8.679 3.559,14.894 6.352,21.902 4.469,11.215 8.633,16.961 15.051,25.774 6.711,9.214 17.23,18.906 26.925,25.14 l 7.508,4.813 c 2.446,1.636 5.129,2.976 7.942,4.203 17.48,7.629 27,10.922 47.328,12.441 7.32,0.547 13.359,0.625 22.492,-0.949 l 24.547,-4.227 c 5.305,-1.367 10.828,-3.558 20.926,-8.339 11.851,-5.614 22.156,-13.247 31.406,-21.977 l 9.371,-10.012 c 3.801,-4.664 7.695,-9.582 10.625,-14.836 2.672,-4.797 9.578,-16.39 9.852,-21.097 171.093,-47.215 108.324,-246.27 -23.543,-232.219 -9.485,1.379 -9.649,0.187 -22.571,4.289 -2.554,0.809 -11.726,3.414 -13.754,4.988 z"
         id="path74"
         inkscape:connector-curvature="0"
         style="clip-rule:evenodd" /></clipPath><linearGradient
       x1="436.60001"
       y1="210.44"
       x2="469.995"
       y2="182.978"
       gradientUnits="userSpaceOnUse"
       gradientTransform="translate(-415.76099,-137.0251)"
       spreadMethod="pad"
       id="linearGradient76"><stop
         style="stop-opacity:1;stop-color:#239e4f"
         offset="0"
         id="stop78" /><stop
         style="stop-opacity:1;stop-color:#1f873f"
         offset="1"
         id="stop80" /></linearGradient><clipPath
       clipPathUnits="userSpaceOnUse"
       id="clipPath88"><path
         d="m 291.188,577.945 h 72.402 c 21.773,0 39.59,-34.039 39.59,-75.629 v -0.003 h -64.739 c -2.832,0 -5.156,-2.325 -5.156,-5.165 v 0 c 0,-2.832 2.32,-5.16 5.156,-5.16 h 31.262 33.102 51.824 c 23.258,0 42.289,-36.351 42.289,-80.781 v 0 c 0,-44.43 -19.031,-80.781 -42.289,-80.781 h -35.973 -9.324 -21.965 c -8.566,0 -15.578,13.39 -15.578,29.758 v 0 c 0,16.371 7.012,29.761 15.578,29.761 h 16.692 26.351 c 4.801,0 8.727,8.266 8.727,18.368 v 0 c 0,5.738 -1.27,10.886 -3.246,14.265 l -1.996,2.563 c -1.071,0.988 -2.25,1.539 -3.485,1.539 h -66.82 -18.129 -54.273 c -21.77,0 -39.594,34.035 -39.594,75.633 v 0.003 c 0,41.598 17.816,75.629 39.594,75.629 z"
         id="path90"
         inkscape:connector-curvature="0"
         style="clip-rule:evenodd" /></clipPath><linearGradient
       x1="462.535"
       y1="163.283"
       x2="442.168"
       y2="182.32401"
       gradientUnits="userSpaceOnUse"
       gradientTransform="translate(-415.76099,-137.0251)"
       spreadMethod="pad"
       id="linearGradient92"><stop
         style="stop-opacity:1;stop-color:#ffe773"
         offset="0"
         id="stop94" /><stop
         style="stop-opacity:1;stop-color:#ffd43b"
         offset="1"
         id="stop96" /></linearGradient><clipPath
       clipPathUnits="userSpaceOnUse"
       id="clipPath104"><path
         d="m 432.055,497.074 c -2.895,-27.543 -2.168,-55.39 3.254,-82.383 v -0.019 h -95.567 c 2.457,22.863 2.531,44.742 1.086,66.914 -0.269,4.098 -0.629,7.262 -0.89,11.5 l -0.637,3.988 z"
         id="path106"
         inkscape:connector-curvature="0"
         style="clip-rule:evenodd" /></clipPath><linearGradient
       x1="463.83899"
       y1="154.711"
       x2="448.84799"
       y2="182.627"
       gradientUnits="userSpaceOnUse"
       gradientTransform="translate(-415.76099,-137.0251)"
       spreadMethod="pad"
       id="linearGradient108"><stop
         style="stop-opacity:1;stop-color:#336f9e"
         offset="0"
         id="stop110" /><stop
         style="stop-opacity:1;stop-color:#236194"
         offset="1"
         id="stop112" /></linearGradient></defs><sodipodi:namedview
     pagecolor="#ffffff"
     bordercolor="#666666"
     borderopacity="1"
     objecttolerance="10"
     gridtolerance="10"
     guidetolerance="10"
     inkscape:pageopacity="0"
     inkscape:pageshadow="2"
     inkscape:window-width="2560"
     inkscape:window-height="1339"
     id="namedview4"
     showgrid="false"
     inkscape:zoom="3.634308"
     inkscape:cx="83.455224"
     inkscape:cy="24.87526"
     inkscape:window-x="0"
     inkscape:window-y="36"
     inkscape:window-maximized="1"
     inkscape:current-layer="g10"
     inkscape:document-rotation="0"
     lock-margins="true"
     fit-margin-top="20"
     fit-margin-left="20"
     fit-margin-right="20"
     fit-margin-bottom="20" /><g
     id="g10"
     inkscape:groupmode="layer"
     inkscape:label="ink_ext_XXXXXX"
     transform="matrix(1.25,0,0,-1.25,14.641665,118.0956)"><g
       id="g883"><path
         inkscape:connector-curvature="0"
         id="path14"
         style="fill:#4f4c4c;fill-opacity:1;fill-rule:nonzero;stroke:none"
         d="m 66.322605,39.954998 c 0,-0.9278 -0.3227,-1.6555 -0.9684,-2.1832 -0.6093,-0.5 -1.4007,-0.75 -2.3738,-0.75 -0.3184,0 -0.6367,0.0269 -0.9551,0.0816 v -3.8062 h -1.3097 v 9.2359 c 0.6914,0.1641 1.455,0.2461 2.2922,0.2461 0.964,0 1.7417,-0.223 2.3328,-0.6688 0.6547,-0.5 0.982,-1.2187 0.982,-2.1554 z m -1.3777,0.0269 c 0,1.0918 -0.6504,1.6375 -1.9508,1.6375 -0.2821,0 -0.6051,-0.032 -0.9688,-0.0957 v -3.2742 c 0.3637,-0.0547 0.6731,-0.082 0.9278,-0.082 0.6093,0 1.0937,0.1523 1.4527,0.457 0.3594,0.3047 0.5391,0.7574 0.5391,1.3574 z m 8.8953,0.1368 -2.4285,-7.1083 c -0.2454,-0.7089 -0.5778,-1.3187 -0.9957,-1.8281 -0.4821,-0.5816 -1.0188,-0.9547 -1.6102,-1.1187 l -0.5863,0.9144 c 0.973,0.3 1.6734,1.0414 2.1008,2.2235 -0.2911,0.064 -0.5137,0.2914 -0.6688,0.6824 l -2.5375,6.2348 h 1.3918 l 2.1418,-5.6618 h 0.0137 l 1.8691,5.6618 z m 7.8582,1.9781 -0.4914,-0.9688 c -0.7,0.3367 -1.3735,0.5051 -2.0192,0.5051 -1.0093,0 -1.8187,-0.3594 -2.4281,-1.0777 -0.573,-0.6825 -0.8598,-1.5375 -0.8598,-2.5653 0,-1.0273 0.2914,-1.8871 0.8731,-2.5785 0.6277,-0.7367 1.4508,-1.1047 2.4699,-1.1047 0.6,0 1.2274,0.1317 1.8824,0.3953 l 0.4094,-1.023 c -0.7914,-0.3547 -1.5965,-0.532 -2.4148,-0.532 -1.3641,0 -2.4786,0.4773 -3.3426,1.4324 -0.8367,0.9277 -1.2551,2.0781 -1.2551,3.4516 0,1.3824 0.425,2.5171 1.2754,3.4039 0.8504,0.8867 1.9625,1.3304 3.3359,1.3304 0.8188,0 1.6735,-0.223 2.5649,-0.6687 z m 6.5347,-8.4449 c -1.0457,-0.3368 -1.9507,-0.5047 -2.7148,-0.5047 -0.8641,0 -1.5461,0.1679 -2.0465,0.5047 -0.5367,0.3546 -0.8047,0.8546 -0.8047,1.5007 0,0.6731 0.25,1.1871 0.75,1.5414 0.3547,0.2551 0.8867,0.4547 1.5965,0.6004 0.7094,0.1457 1.1461,0.25 1.3094,0.3141 0.382,0.1543 0.5734,0.3773 0.5734,0.6684 0,0.6183 -0.4457,0.9277 -1.3371,0.9277 -0.5187,0 -1.1187,-0.1457 -1.8012,-0.4367 l -0.4226,0.955 c 0.773,0.3637 1.5418,0.5458 2.3055,0.5458 1.6644,0 2.4968,-0.7278 2.4968,-2.1829 v -3.5605 c 0,-0.1731 0.0317,-0.4641 0.0953,-0.8734 z m -1.2961,0.7914 c -0.0179,0.1273 -0.0273,0.2183 -0.0273,0.2726 v 2.1422 c -0.1727,-0.1367 -0.6273,-0.2867 -1.3641,-0.4504 -0.4914,-0.1094 -0.8414,-0.2273 -1.0507,-0.3547 -0.309,-0.191 -0.4637,-0.4593 -0.4637,-0.8051 0,-0.691 0.4957,-1.0367 1.4871,-1.0367 0.5,0 0.973,0.0774 1.4187,0.2321 z m 12.47,-1.1461 h -1.2282 v 4.3929 c 0,1.0094 -0.4636,1.5145 -1.3914,1.5145 -0.4273,0 -0.9414,-0.141 -1.5418,-0.4231 0.0911,-0.2453 0.1364,-0.5593 0.1364,-0.9414 v -4.5429 h -1.2278 v 4.4066 c 0,1.0004 -0.464,1.5008 -1.3914,1.5008 -0.4004,0 -0.8871,-0.1184 -1.4597,-0.3547 0.0179,-0.1637 0.0273,-0.282 0.0273,-0.3547 v -5.198 h -1.2277 v 5.4023 c 0,0.182 -0.0278,0.4777 -0.0821,0.8867 1.1731,0.4551 2.1329,0.6825 2.8786,0.6825 0.855,0 1.4871,-0.209 1.8964,-0.6278 0.8188,0.4188 1.5782,0.6278 2.2782,0.6278 0.7367,0 1.3102,-0.2 1.7192,-0.6004 0.409,-0.4004 0.614,-0.9731 0.614,-1.7188 z m 7.831005,3.4242 c 0,-1.0367 -0.316,-1.8918 -0.948,-2.5649 -0.632,-0.673 -1.44,-1.0093 -2.422,-1.0093 -0.4,0 -0.818,0.0769 -1.255,0.232 v -3.1516 H 101.385 v 8.6903 c 0,0.182 -0.027,0.4687 -0.082,0.8593 0.874,0.3278 1.69701,0.4915 2.47001,0.4915 1.073,0 1.919,-0.3297 2.537,-0.9891 0.619,-0.6594 0.928,-1.5121 0.928,-2.5582 z m -1.364,0 c 0,0.7187 -0.16,1.2965 -0.478,1.7328 -0.373,0.5 -0.914,0.7504 -1.623,0.7504 -0.401,0 -0.801,-0.0774 -1.201,-0.232 0,-0.009 0.007,-0.0524 0.021,-0.1297 0.013,-0.077 0.02,-0.1387 0.02,-0.184 v -4.2293 c 0.3,-0.1457 0.65,-0.2184 1.051,-0.2184 1.473,0 2.21,0.8367 2.21,2.5102" /><path
         inkscape:connector-curvature="0"
         id="path24"
         style="fill:#115f32;fill-opacity:1;fill-rule:evenodd;stroke:none"
         d="m 62.768305,21.324498 c 32.182,-0.0914 58.176705,-1.5215 58.060705,-3.1945 -0.116,-1.6731 -26.298605,-2.9559 -58.480605,-2.8653 -32.1824,0.0911 -58.1773705,1.5211 -58.0613505,3.1946 0.11601,1.6734 26.2988505,2.9562 58.4812505,2.8652" /><path
         inkscape:connector-curvature="0"
         id="path42"
         style="fill:url(#linearGradient36);fill-opacity:1;fill-rule:nonzero;stroke:none"
         d="m 43.442905,49.247198 c -0.0937,-0.2981 -0.2019,-0.5528 -0.307,-0.8594 -0.0504,-0.1469 -0.1086,-0.2891 -0.1492,-0.4231 -0.0789,-0.2589 -0.0965,-0.155 0.0156,-0.3281 -0.1754,-0.0578 -0.0313,0.175 -0.2672,-0.6121 -1.441,-4.8039 -1.9547,-10.0113 -0.8953,-14.9183 0.1836,-0.8512 0.4297,-1.8239 0.7156,-2.6422 0.5231,-1.4977 0.7602,-2.1782 1.484,-3.6192 0.1996,-0.3969 0.4144,-0.7527 0.607,-1.1426 0.0867,-0.2902 0.8434,-1.4519 1.0969,-1.7839 0.1535,-0.2012 0.218,-0.3731 0.375,-0.5844 0.5559,-0.7485 1.1066,-1.409 1.7625,-2.1297 0.7551,-0.8297 1.3301,-1.4133 1.9293,-1.9566 -4.8492,-2.0836 -18.2316,-1.6782 -22.2992,-0.5875 0.2558,0.6074 0.9789,2.0105 1.2781,2.6253 0.5816,1.1946 2.2855,5.2645 2.2848,6.2036 0.289,0.791 0.6527,2.7922 0.8496,3.6996 0.0894,0.414 0.1328,0.9816 0.1898,1.4164 0.3414,2.5926 0.3707,5.0418 0.2086,7.5285 -0.0269,0.4098 -0.0629,0.7262 -0.089,1.15 l -0.8352,5.216 c -0.043,0.1313 -0.0035,0.0484 -0.0586,0.1418 -0.0926,0.157 0.0707,-0.0289 -0.1062,0.1301 0.1796,0.184 0.1054,0.1695 0.0105,0.5398 -0.0539,0.2121 -0.0895,0.3825 -0.1406,0.5899 -0.0973,0.3941 -0.2172,0.7699 -0.3063,1.1613 0.3192,0.0582 0.6512,0.1027 0.9774,0.1668 0.2992,0.0586 0.6343,0.1836 0.9113,0.1918 0.0734,-0.3203 0.3152,-0.777 0.4437,-1.0691 l 0.3575,-0.7692 c 0.0914,-0.1281 0.0187,-0.0875 0.1871,-0.1371 0.0289,-0.3562 -0.4321,6.25 -0.2258,5.8293 0.1148,-0.234 0.2133,-0.4086 0.3254,-0.6207 l 1.6476,-3.0297 c 0.0364,-0.059 0.0696,-0.109 0.1,-0.1551 1.0848,2.8836 1.2329,-0.5531 2.6215,1.9258 0.1852,0.1004 2.5035,-0.3973 2.6016,-0.1508 0.3422,-0.0668 0.9699,-0.3882 1.3629,-0.5234 0.2133,-0.0738 0.4871,-0.1656 0.7039,-0.2273 0.589,-0.1688 0.5551,-0.0532 0.6324,-0.2465" /><path
         inkscape:connector-curvature="0"
         id="path44"
         style="fill:#231f20;fill-opacity:1;fill-rule:nonzero;stroke:none"
         d="m 74.526505,27.996798 h -0.5281 v 3.2847 l -0.7156,-0.3628 -0.1922,0.407 1.0011,0.4734 h 0.4348 z m 3.8957,1.8816 c 0,-0.5207 -0.0879,-0.95 -0.2637,-1.2875 -0.2238,-0.4367 -0.5722,-0.6551 -1.0457,-0.6551 -0.473,0 -0.8218,0.2184 -1.0453,0.6551 -0.1762,0.3375 -0.2644,0.7668 -0.2644,1.2875 0,0.5281 0.0863,0.9594 0.2589,1.2934 0.22,0.4328 0.5704,0.6492 1.0508,0.6492 0.4809,0 0.8313,-0.2164 1.0512,-0.6492 0.1723,-0.334 0.2582,-0.7653 0.2582,-1.2934 z m -0.5555,0 c 0,0.9832 -0.2515,1.4746 -0.7539,1.4746 -0.5027,0 -0.7539,-0.4914 -0.7539,-1.4746 0,-0.9828 0.2512,-1.4746 0.7539,-1.4746 0.5024,0 0.7539,0.4918 0.7539,1.4746 z m 2.3828,0.341 c -0.2492,-0.0765 -0.4843,-0.1152 -0.7042,-0.1152 -0.1946,0 -0.3579,0.0348 -0.4899,0.1047 -0.1652,0.0879 -0.2476,0.2199 -0.2476,0.3961 0,0.1906 0.0878,0.3301 0.264,0.4183 0.0695,0.0364 0.2352,0.0825 0.4953,0.1375 0.1762,0.0364 0.2641,0.0914 0.2641,0.1649 0,0.1027 -0.0938,0.1543 -0.2805,0.1543 -0.1539,0 -0.3062,-0.0332 -0.4566,-0.0992 l -0.1375,0.3027 c 0.2012,0.0918 0.4199,0.1375 0.6547,0.1375 0.4105,0 0.616,-0.1777 0.616,-0.534 v -0.8582 c 0,-0.0512 0.0074,-0.1211 0.0222,-0.2094 z m 0,-0.6765 h -1.3812 v 0.3023 h 1.3812 z m -0.4183,0.9246 v 0.4785 c -0.0293,-0.0293 -0.143,-0.068 -0.341,-0.1156 -0.1653,-0.0403 -0.2477,-0.1063 -0.2477,-0.1981 0,-0.1355 0.1028,-0.2035 0.3082,-0.2035 0.077,0 0.1703,0.0129 0.2805,0.0387 z m 4.6387,-0.9633 c 0,-0.0844 -0.009,-0.1852 -0.0278,-0.3027 h -1.832 c 0.0144,-0.2532 0.0953,-0.4528 0.2418,-0.5996 0.1543,-0.1579 0.3598,-0.2364 0.6164,-0.2364 0.2273,0 0.4461,0.0418 0.6547,0.1262 l 0.1543,-0.3738 c -0.2641,-0.1211 -0.5485,-0.1821 -0.8528,-0.1821 -0.4113,0 -0.7394,0.136 -0.9851,0.4075 -0.2457,0.2714 -0.3688,0.6164 -0.3688,1.0343 0,0.4036 0.0993,0.7356 0.2973,0.9961 0.2199,0.2899 0.5242,0.4348 0.9133,0.4348 0.3742,0 0.6695,-0.1266 0.8859,-0.3797 0.2016,-0.2348 0.3028,-0.543 0.3028,-0.9246 z m -0.5227,0.0992 c -0.0039,0.2203 -0.059,0.4016 -0.1652,0.5445 -0.1176,0.1583 -0.2825,0.2368 -0.495,0.2368 -0.2058,0 -0.3679,-0.0743 -0.4871,-0.2227 -0.1195,-0.1488 -0.1824,-0.3348 -0.1898,-0.5586 z m 3.3785,-1.4855 c -0.3156,-0.1211 -0.6383,-0.1821 -0.9687,-0.1821 -0.4215,0 -0.7668,0.136 -1.0344,0.4075 -0.2676,0.2714 -0.402,0.6183 -0.402,1.0402 0,0.4144 0.1067,0.75 0.3192,1.0066 0.2277,0.2789 0.5433,0.4184 0.9465,0.4184 0.2242,0 0.4293,-0.0496 0.6164,-0.1488 v 1.3757 h 0.4953 v -3.5875 c 0,-0.066 0.0094,-0.1761 0.0277,-0.33 z m -0.5172,0.33 c -0.0039,0.0293 -0.0058,0.0625 -0.0058,0.0989 v 1.6726 c -0.1539,0.1067 -0.3282,0.1598 -0.5227,0.1598 -0.2676,0 -0.473,-0.1008 -0.6164,-0.3023 -0.1281,-0.1797 -0.1922,-0.4075 -0.1922,-0.6825 0,-0.2898 0.0735,-0.53 0.2199,-0.7207 0.1579,-0.2058 0.3778,-0.3082 0.6606,-0.3082 0.1574,0 0.3098,0.0274 0.4566,0.0824 z m 1.92,3.2411 c 0,-0.0879 -0.0309,-0.1606 -0.0934,-0.2172 -0.0625,-0.0571 -0.1395,-0.0856 -0.2313,-0.0856 -0.0878,0 -0.1621,0.0285 -0.2226,0.0856 -0.0606,0.0566 -0.091,0.1293 -0.091,0.2172 0,0.0879 0.0304,0.1613 0.091,0.2199 0.0605,0.059 0.1348,0.0883 0.2226,0.0883 0.0883,0 0.1645,-0.0293 0.2286,-0.0883 0.064,-0.0586 0.0961,-0.132 0.0961,-0.2199 z m -0.0661,-3.6922 h -0.4953 v 2.7511 h 0.4953 z m 2.8836,0.1156 c -0.2496,-0.1141 -0.5117,-0.1707 -0.7871,-0.1707 -0.407,0 -0.7465,0.1266 -1.0179,0.3797 -0.2825,0.2676 -0.4235,0.618 -0.4235,1.0508 0,0.4257 0.1266,0.7715 0.3793,1.0375 0.2531,0.2656 0.5871,0.3988 1.0016,0.3988 0.2824,0 0.5648,-0.059 0.8476,-0.1762 l -0.1488,-0.4015 c -0.2531,0.0992 -0.4769,0.1484 -0.6711,0.1484 -0.2789,0 -0.4953,-0.1027 -0.6492,-0.3082 -0.1395,-0.1832 -0.2094,-0.4125 -0.2094,-0.6875 0,-0.3047 0.0918,-0.5523 0.2754,-0.743 0.1723,-0.1836 0.3867,-0.275 0.6438,-0.275 0.1796,0 0.3851,0.0438 0.616,0.1317 z m 1.2762,3.5766 c 0,-0.0879 -0.0309,-0.1606 -0.0934,-0.2172 -0.0625,-0.0571 -0.139,-0.0856 -0.2312,-0.0856 -0.0879,0 -0.1621,0.0285 -0.2227,0.0856 -0.0605,0.0566 -0.091,0.1293 -0.091,0.2172 0,0.0879 0.0305,0.1613 0.091,0.2199 0.0606,0.059 0.1348,0.0883 0.2227,0.0883 0.0883,0 0.1644,-0.0293 0.2285,-0.0883 0.0641,-0.0586 0.0961,-0.132 0.0961,-0.2199 z m -0.066,-3.6922 h -0.4949 v 2.7511 h 0.4949 z m 3.3293,1.3754 c 0,-0.4215 -0.1238,-0.7668 -0.3715,-1.0344 -0.2477,-0.2676 -0.5695,-0.402 -0.9656,-0.402 -0.3961,0 -0.7172,0.1344 -0.9629,0.402 -0.2461,0.2676 -0.3692,0.6129 -0.3692,1.0344 0,0.4218 0.1231,0.7668 0.3692,1.0343 0.2457,0.268 0.5668,0.402 0.9629,0.402 0.3961,0 0.7179,-0.134 0.9656,-0.402 0.2477,-0.2675 0.3715,-0.6125 0.3715,-1.0343 z m -0.5504,0 c 0,0.2898 -0.0641,0.5265 -0.1926,0.7097 -0.1394,0.1985 -0.3355,0.2973 -0.5887,0.2973 -0.2531,0 -0.4496,-0.0988 -0.5886,-0.2973 -0.1321,-0.1832 -0.1981,-0.4199 -0.1981,-0.7097 0,-0.2895 0.066,-0.5262 0.1981,-0.7098 0.139,-0.198 0.3355,-0.2969 0.5886,-0.2969 0.2532,0 0.4493,0.0989 0.5887,0.2969 0.1285,0.1836 0.1926,0.4203 0.1926,0.7098 z m -0.2199,2.3168 c 0,-0.0625 -0.0293,-0.1137 -0.0883,-0.1543 l -0.6711,-0.4567 -0.1762,0.2035 0.5446,0.6 c 0.0332,0.0368 0.0808,0.0551 0.1433,0.0551 0.066,0 0.1238,-0.0258 0.1735,-0.0773 0.0492,-0.0512 0.0742,-0.1082 0.0742,-0.1703 z m 3.6648,-3.6922 h -0.495 v 1.7719 c 0,0.407 -0.208,0.6105 -0.6226,0.6105 -0.2089,0 -0.4273,-0.0477 -0.6546,-0.143 0.0074,-0.0621 0.0113,-0.1082 0.0113,-0.1375 v -2.1019 h -0.4953 v 2.1625 c 0,0.0734 -0.0133,0.1961 -0.0387,0.3687 0.4879,0.1871 0.8844,0.2805 1.1887,0.2805 0.7372,0 1.1062,-0.3152 1.1062,-0.9465 v -1.8652" /><g
         id="g4289"
         transform="translate(21.474332,-30.821196)"><path
           d="m 42.306336,100.56157 c 0,-0.714399 -0.2848,-1.233999 -0.8535,-1.557799 -0.4567,-0.2645 -1.0684,-0.3969 -1.8356,-0.3969 -0.5621,0 -1.1078,0.0563 -1.6371,0.1688 v 6.657199 c 0.5754,0.119 1.1211,0.179 1.6371,0.179 1.6207,0 2.4309,-0.625 2.4309,-1.875 0,-0.344 -0.0961,-0.65 -0.2879,-0.918 -0.1918,-0.268 -0.4496,-0.458 -0.7738,-0.571 v -0.019 c 0.4167,-0.1 0.741,-0.295 0.9722,-0.586 0.2317,-0.2907 0.3477,-0.6516 0.3477,-1.0813 z m -1.2606,3.1553 c 0,0.714 -0.4593,1.071 -1.3789,1.071 -0.2383,0 -0.4828,-0.026 -0.7344,-0.079 v -2.094 h 0.7344 c 0.9196,0 1.3789,0.367 1.3789,1.102 z m 0.2582,-3.1158 c 0,0.7808 -0.5359,1.1708 -1.6074,1.1708 h -0.7641 v -2.262199 c 0.2317,-0.0395 0.4665,-0.0594 0.7047,-0.0594 1.111,0 1.6668,0.3836 1.6668,1.150799 z m 5.8934,-1.626999 c -0.7606,-0.2445 -1.4188,-0.3672 -1.9742,-0.3672 -0.6282,0 -1.1246,0.1227 -1.4883,0.3672 -0.3902,0.2578 -0.5856,0.6215 -0.5856,1.091399 0,0.4895 0.1821,0.8629 0.5457,1.1211 0.2582,0.1852 0.645,0.3309 1.161,0.4363 0.516,0.106 0.8332,0.182 0.9523,0.228 0.2778,0.113 0.4168,0.275 0.4168,0.486 0,0.45 -0.3238,0.675 -0.9722,0.675 -0.377,0 -0.8137,-0.106 -1.3098,-0.317 l -0.3074,0.694 c 0.5621,0.265 1.1211,0.397 1.6765,0.397 1.2106,0 1.8157,-0.529 1.8157,-1.588 v -2.588999 c 0,-0.1254 0.0234,-0.3371 0.0695,-0.6348 z m -0.9426,0.5754 c -0.0129,0.0926 -0.0199,0.1586 -0.0199,0.1984 v 1.557499 c -0.1254,-0.0989 -0.4563,-0.2082 -0.9918,-0.3274 -0.3574,-0.0793 -0.6121,-0.1652 -0.7641,-0.2578 -0.225,-0.1391 -0.3375,-0.334 -0.3375,-0.5855 0,-0.502399 0.3606,-0.753999 1.0817,-0.753999 0.3636,0 0.7078,0.0563 1.0316,0.1688 z m 5.0305,4.147399 -0.268,-0.784 c -0.1851,0.04 -0.3769,0.059 -0.5754,0.059 -0.3238,0 -0.6449,-0.056 -0.9625,-0.168 0.0071,-0.093 0.0102,-0.162 0.0102,-0.209 v -3.878599 h -0.893 v 3.858599 c 0,0.139 -0.0266,0.371 -0.0793,0.695 0.8,0.344 1.4817,0.516 2.0438,0.516 0.2449,0 0.4859,-0.029 0.7242,-0.089 z m 4.5043,-4.722799 c -0.7606,-0.2445 -1.4188,-0.3672 -1.9746,-0.3672 -0.6282,0 -1.1243,0.1227 -1.4879,0.3672 -0.3906,0.2578 -0.5856,0.6215 -0.5856,1.091399 0,0.4895 0.1821,0.8629 0.5457,1.1211 0.2578,0.1852 0.645,0.3309 1.161,0.4363 0.5156,0.106 0.8332,0.182 0.9523,0.228 0.2777,0.113 0.4168,0.275 0.4168,0.486 0,0.45 -0.3242,0.675 -0.9723,0.675 -0.3769,0 -0.8136,-0.106 -1.3097,-0.317 l -0.3074,0.694 c 0.5621,0.265 1.1211,0.397 1.6765,0.397 1.2106,0 1.8156,-0.529 1.8156,-1.588 v -2.588999 c 0,-0.1254 0.0231,-0.3371 0.0696,-0.6348 z m -0.9426,0.5754 c -0.0129,0.0926 -0.0199,0.1586 -0.0199,0.1984 v 1.557499 c -0.1254,-0.0989 -0.4563,-0.2082 -0.9922,-0.3274 -0.357,-0.0793 -0.6117,-0.1652 -0.7637,-0.2578 -0.225,-0.1391 -0.3375,-0.334 -0.3375,-0.5855 0,-0.502399 0.3606,-0.753999 1.0813,-0.753999 0.364,0 0.7078,0.0563 1.032,0.1688 z m 6.3004,-0.6152 c -0.5688,-0.218 -1.1512,-0.3274 -1.7461,-0.3274 -0.7609,0 -1.3828,0.2445 -1.8652,0.7344 -0.4829,0.4894 -0.7243,1.114399 -0.7243,1.874999 0,0.7476 0.1918,1.3526 0.5754,1.8156 0.4102,0.503 0.9789,0.754 1.7063,0.754 0.4039,0 0.7738,-0.089 1.1113,-0.268 v 2.481 h 0.893 v -6.469299 c 0,-0.1192 0.0164,-0.3176 0.0496,-0.5953 z m -0.9328,0.5953 c -0.0067,0.0531 -0.0098,0.1125 -0.0098,0.1785 v 3.015799 c -0.2777,0.192 -0.5918,0.288 -0.9426,0.288 -0.4828,0 -0.8531,-0.182 -1.1113,-0.546 -0.2316,-0.323 -0.3473,-0.734 -0.3473,-1.2297 0,-0.5226 0.1325,-0.9558 0.3969,-1.299999 0.2848,-0.3703 0.6817,-0.5555 1.1906,-0.5555 0.2848,0 0.559,0.0497 0.8235,0.1489 z m 6.3004,1.905099 c 0,-0.152 -0.0164,-0.334 -0.0496,-0.5458 h -3.3039 c 0.0265,-0.4566 0.1722,-0.8171 0.4367,-1.081599 0.2777,-0.2844 0.648,-0.4266 1.1109,-0.4266 0.4102,0 0.8039,0.0762 1.1809,0.2282 l 0.2777,-0.6746 c -0.4762,-0.218 -0.9887,-0.3274 -1.5379,-0.3274 -0.7406,0 -1.3328,0.2445 -1.7758,0.7344 -0.4429,0.4894 -0.6648,1.110899 -0.6648,1.865199 0,0.7274 0.1785,1.3264 0.5359,1.7954 0.3969,0.523 0.9457,0.784 1.6469,0.784 0.6746,0 1.207,-0.228 1.5973,-0.684 0.364,-0.424 0.5457,-0.979 0.5457,-1.6672 z m -0.9426,0.1782 c -0.0067,0.397 -0.1059,0.724 -0.2977,0.982 -0.2113,0.285 -0.509,0.427 -0.8929,0.427 -0.3703,0 -0.6629,-0.134 -0.8778,-0.402 -0.2152,-0.268 -0.3293,-0.603 -0.3425,-1.007 z m 4.8219,2.084 -0.2676,-0.784 c -0.1852,0.04 -0.377,0.059 -0.5754,0.059 -0.3242,0 -0.6449,-0.056 -0.9625,-0.168 0.0066,-0.093 0.0098,-0.162 0.0098,-0.209 v -3.878599 h -0.893 v 3.858599 c 0,0.139 -0.0262,0.371 -0.0793,0.695 0.8004,0.344 1.4816,0.516 2.0437,0.516 0.245,0 0.4864,-0.029 0.7243,-0.089 z m 5.2191,-2.5005 c 0,-0.7606 -0.2234,-1.382499 -0.6699,-1.865299 -0.4465,-0.4828 -1.027,-0.7242 -1.7414,-0.7242 -0.7145,0 -1.293,0.2414 -1.7364,0.7242 -0.4429,0.4828 -0.6644,1.104699 -0.6644,1.865299 0,0.7605 0.2215,1.3825 0.6644,1.8655 0.4434,0.483 1.0219,0.724 1.7364,0.724 0.7144,0 1.2949,-0.241 1.7414,-0.724 0.4465,-0.483 0.6699,-1.105 0.6699,-1.8655 z m -0.9926,0 c 0,0.5225 -0.1156,0.9495 -0.3472,1.2795 -0.2512,0.358 -0.6051,0.536 -1.0614,0.536 -0.4566,0 -0.8101,-0.178 -1.0617,-0.536 -0.2383,-0.33 -0.357,-0.757 -0.357,-1.2795 0,-0.5223 0.1187,-0.9489 0.357,-1.279699 0.2516,-0.3574 0.6051,-0.536 1.0617,-0.536 0.4563,0 0.8102,0.1786 1.0614,0.536 0.2316,0.330799 0.3472,0.757399 0.3472,1.279699"
           style="fill:#231f20;fill-opacity:1;fill-rule:nonzero;stroke:none"
           id="path46"
           inkscape:connector-curvature="0" /><path
           d="m 71.862536,93.152971 h -3.0461 v 0.3055 l 1.6668,1.8922 c 0.2758,0.3191 0.4668,0.5816 0.5742,0.789 0.1059,0.2075 0.1594,0.4082 0.1594,0.6039 0,0.3078 -0.0898,0.5508 -0.2699,0.7297 -0.1801,0.1789 -0.4285,0.2692 -0.7445,0.2692 -0.327,0 -0.5914,-0.1051 -0.793,-0.3137 -0.202,-0.2098 -0.3023,-0.4809 -0.3023,-0.8149 h -0.3977 c 0,0.2735 0.0613,0.5235 0.1855,0.7477 0.1231,0.2246 0.2989,0.4012 0.5282,0.5301 0.2277,0.1289 0.4875,0.1926 0.7793,0.1926 0.4449,0 0.7922,-0.1172 1.0433,-0.3508 0.2508,-0.234 0.3762,-0.552 0.3762,-0.9555 0,-0.2266 -0.0707,-0.4754 -0.2121,-0.7453 -0.1414,-0.2691 -0.391,-0.6055 -0.7469,-1.009 l -1.3562,-1.5355 h 2.5558 z m 3.6758,2.027 c 0,-0.6864 -0.1254,-1.2075 -0.3773,-1.5618 -0.2516,-0.3558 -0.6223,-0.5335 -1.1121,-0.5335 -0.4813,0 -0.8493,0.1746 -1.1047,0.5234 -0.2567,0.3488 -0.3875,0.8558 -0.3946,1.5215 v 0.8718 c 0,0.6852 0.1266,1.2032 0.3809,1.5551 0.2539,0.3524 0.6246,0.5278 1.1121,0.5278 0.4801,0 0.8484,-0.17 1.1016,-0.5094 0.2543,-0.3399 0.3851,-0.8402 0.3941,-1.5024 z m -0.4012,0.8707 c 0,0.5574 -0.0898,0.9781 -0.2711,1.2644 -0.1824,0.2848 -0.4562,0.4274 -0.8234,0.4274 -0.3609,0 -0.632,-0.1391 -0.8148,-0.4184 -0.1832,-0.2781 -0.277,-0.6898 -0.2805,-1.2336 v -0.9551 c 0,-0.555 0.0937,-0.9804 0.2816,-1.2746 0.1883,-0.2937 0.4617,-0.441 0.82,-0.441 0.3566,0 0.6265,0.1438 0.8101,0.4309 0.1836,0.2882 0.277,0.709 0.2781,1.2644 v 0.9356"
           style="fill:#7b7979;fill-opacity:1;fill-rule:nonzero;stroke:none"
           id="path48"
           inkscape:connector-curvature="0" /><path
           d="m 82.434436,93.295571 h -2.5328 v 8.040999 l -2.4895,-0.7344 v 1.9497 l 4.7895,1.658 h 0.2328 z m 9.0367,9.563299 -4.0781,-9.563299 h -2.6688 l 4.086,8.965299 h -5.2039 v 1.949 h 7.8648 v -1.351"
           style="fill:#231f20;fill-opacity:1;fill-rule:nonzero;stroke:none"
           id="path50"
           inkscape:connector-curvature="0" /></g><path
         inkscape:connector-curvature="0"
         id="path66"
         style="fill:url(#linearGradient60);fill-opacity:1;fill-rule:nonzero;stroke:none"
         d="m 43.442905,49.247198 c -0.0937,-0.2981 -0.2019,-0.5528 -0.307,-0.8594 -0.0504,-0.1469 -0.1086,-0.2891 -0.1492,-0.4231 -0.0789,-0.2589 -0.0965,-0.155 0.0156,-0.3281 -0.1754,-0.0578 -0.0313,0.175 -0.2672,-0.6121 -1.441,-4.8039 -1.9547,-10.0113 -0.8953,-14.9183 0.1836,-0.8512 0.4297,-1.8239 0.7156,-2.6422 0.5231,-1.4977 0.7602,-2.1782 1.484,-3.6192 0.1996,-0.3969 0.4144,-0.7527 0.607,-1.1426 0.0867,-0.2902 0.8434,-1.4519 1.0969,-1.7839 0.1535,-0.2012 0.218,-0.3731 0.375,-0.5844 0.5559,-0.7485 1.1066,-1.409 1.7625,-2.1297 0.7551,-0.8297 1.3301,-1.4133 1.9293,-1.9566 -4.8492,-2.0836 -18.2316,-1.6782 -22.2992,-0.5875 0.2558,0.6074 0.9789,2.0105 1.2781,2.6253 0.5816,1.1946 2.2855,5.2645 2.2848,6.2036 0.289,0.791 0.6527,2.7922 0.8496,3.6996 0.0894,0.414 0.1328,0.9816 0.1898,1.4164 0.3414,2.5926 0.3707,5.0418 0.2086,7.5285 -0.0269,0.4098 -0.0629,0.7262 -0.089,1.15 l -0.8352,5.216 c -0.043,0.1313 -0.0035,0.0484 -0.0586,0.1418 -0.0926,0.157 0.0707,-0.0289 -0.1062,0.1301 0.1796,0.184 0.1054,0.1695 0.0105,0.5398 -0.0539,0.2121 -0.0895,0.3825 -0.1406,0.5899 -0.0973,0.3941 -0.2172,0.7699 -0.3063,1.1613 0.3192,0.0582 0.6512,0.1027 0.9774,0.1668 0.2992,0.0586 0.6343,0.1836 0.9113,0.1918 0.0734,-0.3203 0.3152,-0.777 0.4437,-1.0691 l 0.3575,-0.7692 c 0.0914,-0.1281 0.0187,-0.0875 0.1871,-0.1371 0.0289,-0.3562 -0.4321,6.25 -0.2258,5.8293 0.1148,-0.234 0.2133,-0.4086 0.3254,-0.6207 l 1.6476,-3.0297 c 0.0364,-0.059 0.0696,-0.109 0.1,-0.1551 1.0848,2.8836 1.2329,-0.5531 2.6215,1.9258 0.1852,0.1004 2.5035,-0.3973 2.6016,-0.1508 0.3422,-0.0668 0.9699,-0.3882 1.3629,-0.5234 0.2133,-0.0738 0.4871,-0.1656 0.7039,-0.2273 0.589,-0.1688 0.5551,-0.0532 0.6324,-0.2465" /><path
         inkscape:connector-curvature="0"
         id="path82"
         style="fill:url(#linearGradient76);fill-opacity:1;fill-rule:nonzero;stroke:none"
         d="m 39.434705,49.515098 c -0.3695,0.0879 -0.6219,0.545 -0.9769,0.6946 -0.1356,-0.0672 -0.3989,-0.341 -0.5493,-0.4723 -0.9957,-0.8711 -1.8187,-1.432 -3.025,-1.9703 -0.2961,-0.1317 -1.1449,-0.525 -1.4425,-0.5211 -0.1528,0.0519 -0.4118,-0.2645 -0.4911,-0.1434 l -1.7812,-0.3882 c -1.1817,-0.234 -2.332,-0.0661 -3.4914,7e-4 -0.7961,0.0457 -2.7285,0.6715 -3.5297,1.025 -0.6254,0.2758 -1.393,0.6661 -1.9129,1.0387 -0.2973,0.2137 -0.5371,0.3652 -0.7957,0.5813 -0.7766,0.6488 -0.7324,0.5574 -1.4793,1.3449 -1.1769,1.2414 -1.9273,2.5851 -2.5492,4.1742 -1.0762,2.7496 -0.7442,6.4016 0.7379,9.0047 0.959,1.684 1.9597,2.6844 3.3859,3.7387 l 0.3047,0.2316 c 0.4391,0.3125 1.6996,0.9977 2.1945,1.1594 0.1493,0.8679 0.3559,1.4894 0.6352,2.1902 0.4469,1.1215 0.8633,1.6961 1.5051,2.5774 0.6711,0.9214 1.723,1.8906 2.6925,2.514 l 0.7508,0.4813 c 0.2446,0.1636 0.5129,0.2976 0.7942,0.4203 1.748,0.7629 2.7,1.0922 4.7328,1.2441 0.732,0.0547 1.3359,0.0625 2.2492,-0.0949 l 2.4547,-0.4227 c 0.5305,-0.1367 1.0828,-0.3558 2.0926,-0.8339 1.1851,-0.5614 2.2156,-1.3247 3.1406,-2.1977 l 0.9371,-1.0012 c 0.3801,-0.4664 0.7695,-0.9582 1.0625,-1.4836 0.2672,-0.4797 0.9578,-1.639 0.9852,-2.1097 17.1093,-4.7215 10.8324,-24.627 -2.3543,-23.2219 -0.9485,0.1379 -0.9649,0.0187 -2.2571,0.4289 -0.2554,0.0809 -1.1726,0.3414 -1.3754,0.4988 l -2.6445,1.5121" /><path
         inkscape:connector-curvature="0"
         id="path98"
         style="fill:url(#linearGradient92);fill-opacity:1;fill-rule:nonzero;stroke:none"
         d="m 27.357805,48.769398 h 7.2402 c 2.1773,0 3.959,-3.4039 3.959,-7.5629 v -3e-4 h -6.4739 c -0.2832,0 -0.5156,-0.2325 -0.5156,-0.5165 v 0 c 0,-0.2832 0.232,-0.516 0.5156,-0.516 h 11.6188 c 2.3258,0 4.2289,-3.6351 4.2289,-8.0781 v 0 c 0,-4.443 -1.9031,-8.0781 -4.2289,-8.0781 h -6.7262 c -0.8566,0 -1.5578,1.339 -1.5578,2.9758 v 0 c 0,1.6371 0.7012,2.9761 1.5578,2.9761 h 4.3043 c 0.4801,0 0.8727,0.8266 0.8727,1.8368 v 0 c 0,0.5738 -0.127,1.0886 -0.3246,1.4265 l -0.1996,0.2563 c -0.1071,0.0988 -0.225,0.1539 -0.3485,0.1539 h -13.9222 c -2.177,0 -3.9594,3.4035 -3.9594,7.5633 v 3e-4 c 0,4.1598 1.7816,7.5629 3.9594,7.5629" /><path
         inkscape:connector-curvature="0"
         id="path114"
         style="fill:url(#linearGradient108);fill-opacity:1;fill-rule:nonzero;stroke:none"
         d="m 41.444505,40.682298 c -0.2895,-2.7543 -0.2168,-5.539 0.3254,-8.2383 v -0.0019 h -9.5567 c 0.2457,2.2863 0.2531,4.4742 0.1086,6.6914 -0.0269,0.4098 -0.0629,0.7262 -0.089,1.15 l -0.0637,0.3988 h 9.2754" /><path
         inkscape:connector-curvature="0"
         id="path116"
         style="fill:#ffffff;fill-opacity:1;fill-rule:evenodd;stroke:none"
         d="m 34.198805,43.193698 c 0.807,0 1.4609,0.6539 1.4609,1.4609 0,0.8066 -0.6539,1.4609 -1.4609,1.4609 -0.8067,0 -1.4606,-0.6543 -1.4606,-1.4609 0,-0.807 0.6539,-1.4609 1.4606,-1.4609" /></g></g></svg>
