<?xml version="1.0" encoding="UTF-8" standalone="no"?>
<!-- Created with Inkscape (http://www.inkscape.org/) -->

<svg
   width="297mm"
   height="210mm"
   viewBox="0 0 297 210"
   version="1.1"
   id="svg5"
   inkscape:version="1.1.2 (0a00cf5339, 2022-02-04)"
   sodipodi:docname="logo pycamp - sin fuentes.svg"
   inkscape:export-filename="/home/ariadne/Documentos/Eventos/Viajes/PyCamp2023/logo v3.png"
   inkscape:export-xdpi="96.366798"
   inkscape:export-ydpi="96.366798"
   xmlns:inkscape="http://www.inkscape.org/namespaces/inkscape"
   xmlns:sodipodi="http://sodipodi.sourceforge.net/DTD/sodipodi-0.dtd"
   xmlns="http://www.w3.org/2000/svg"
   xmlns:svg="http://www.w3.org/2000/svg">
  <sodipodi:namedview
     id="namedview7"
     pagecolor="#ffffff"
     bordercolor="#666666"
     borderopacity="1.0"
     inkscape:pageshadow="2"
     inkscape:pageopacity="0.0"
     inkscape:pagecheckerboard="0"
     inkscape:document-units="mm"
     showgrid="false"
     showguides="true"
     inkscape:guide-bbox="true"
     inkscape:zoom="0.56123737"
     inkscape:cx="704.69292"
     inkscape:cy="488.20698"
     inkscape:window-width="1920"
     inkscape:window-height="1013"
     inkscape:window-x="0"
     inkscape:window-y="0"
     inkscape:window-maximized="1"
     inkscape:current-layer="layer2" />
  <defs
     id="defs2">
    <clipPath
       clipPathUnits="userSpaceOnUse"
       id="clipPath19792">
      <path
         d="M 0,595.28 H 841.89 V 0 H 0 Z"
         id="path19790" />
    </clipPath>
    <radialGradient
       id="ffflux-gradient"
       gradientTransform="scale(1.066369,0.93776167)"
       cx="328.2166"
       cy="373.22916"
       fx="328.2166"
       fy="373.22916"
       r="373.22916"
       gradientUnits="userSpaceOnUse">
      <stop
         offset="0%"
         stop-color="hsl(216, 77%, 45%)"
         id="stop26312" />
      <stop
         offset="100%"
         stop-color="hsl(126, 41%, 58%)"
         id="stop26314" />
    </radialGradient>
    <filter
       id="ffflux-filter"
       x="-0.068571429"
       y="0"
       width="1.1371429"
       height="1"
       filterUnits="objectBoundingBox"
       primitiveUnits="userSpaceOnUse"
       color-interpolation-filters="sRGB">
      <feTurbulence
         type="fractalNoise"
         baseFrequency="0.005 0.003"
         numOctaves="2"
         seed="251"
         stitchTiles="stitch"
         x="0%"
         y="0%"
         width="100%"
         height="100%"
         result="turbulence"
         id="feTurbulence26317" />
      <feGaussianBlur
         stdDeviation="20 0"
         x="0%"
         y="0%"
         width="100%"
         height="100%"
         in="turbulence"
         edgeMode="duplicate"
         result="blur"
         id="feGaussianBlur26319" />
      <feBlend
         mode="color-burn"
         x="0%"
         y="0%"
         width="100%"
         height="100%"
         in="SourceGraphic"
         in2="blur"
         result="blend"
         id="feBlend26321" />
    </filter>
  </defs>
  <g
     inkscape:label="Capa 1"
     inkscape:groupmode="layer"
     id="layer1">
    <path
       style="fill:#aa4400;stroke-width:0.315534"
       d="m 213.50261,43.629938 c -0.58001,-0.456228 -1.05936,-0.572191 -1.77428,-0.429209 -0.95149,0.190298 -1.00599,0.137604 -1.90229,-1.83913 -0.91997,-2.028968 -1.96553,-4.981664 -2.35807,-6.659394 -0.19029,-0.813224 -0.1554,-0.856691 0.43432,-0.541083 0.57354,0.306943 0.64084,0.25039 0.63749,-0.535645 -0.002,-0.483352 -0.21337,-1.659769 -0.46956,-2.61426 -0.74314,-2.768672 -0.5858,-5.048551 0.3484,-5.048551 1.08806,0 5.16177,4.673904 6.54596,7.510402 0.71696,1.469184 0.50316,1.934155 -0.8992,1.95563 -1.41887,0.02172 -1.56408,0.417162 -0.94509,2.573702 0.31598,1.100849 0.82573,2.886575 1.13274,3.968281 0.30705,1.081702 0.44261,2.038204 0.30127,2.125556 -0.14134,0.08735 -0.61461,-0.12248 -1.05169,-0.466299 z"
       id="path1097" />
    <path
       style="fill:#aa4400;stroke-width:0.315534"
       d="m 269.93982,48.602258 c -0.65356,-2.279459 -1.33665,-3.499655 -2.64352,-4.722073 -2.89895,-2.71163 -8.44034,-5.441295 -12.9883,-6.397993 -3.31684,-0.697718 -16.9906,-0.674772 -19.68734,0.03304 -1.45078,0.380779 -2.67338,0.4602 -4.85745,0.315534 -1.60529,-0.10633 -4.3031,-0.282899 -5.99515,-0.39237 -3.81348,-0.24673 -4.46714,-0.522302 -2.84995,-1.201484 0.81369,-0.341724 2.21553,-0.494663 4.57526,-0.499155 1.87117,-0.0035 5.53198,-0.214805 8.13514,-0.469434 5.53465,-0.541373 15.9106,-0.61424 19.70561,-0.138387 5.46626,0.685411 14.9223,5.274498 16.28055,7.901072 0.76863,1.486348 1.43206,4.326695 1.21377,5.196427 -0.20567,0.819515 -0.70118,1.028518 -0.88862,0.374822 z"
       id="path1095" />
    <path
       style="fill:#aa4400;stroke-width:0.315534"
       d="m 236.46833,48.952993 c -0.52065,-0.167736 -1.86955,-0.234925 -2.99759,-0.149311 -1.12803,0.08561 -3.04491,-0.01342 -4.25971,-0.220087 -1.87132,-0.318353 -2.20874,-0.471958 -2.20874,-1.005495 0,-0.52801 0.28528,-0.665374 1.76602,-0.850337 0.97132,-0.121333 2.58637,-0.583399 3.58903,-1.026819 1.00264,-0.443416 1.98778,-0.806215 2.18916,-0.806215 0.20141,0 0.82097,0.54987 1.37683,1.221932 0.61148,0.739317 1.38896,1.297594 1.96851,1.413506 1.06975,0.213948 1.58793,1.064316 0.91008,1.493522 -0.54075,0.342403 -1.10441,0.325324 -2.33359,-0.0707 z"
       id="path1093" />
    <path
       style="fill:#aa4400;stroke-width:0.315534"
       d="m 270.62833,60.151693 c -0.75714,-1.333256 -0.28186,-6.532903 0.6291,-6.882471 0.58779,-0.225555 1.23808,0.29554 1.85318,1.485015 0.45485,0.879571 0.4211,0.999118 -0.92875,3.289639 -0.7704,1.307293 -1.4695,2.255811 -1.55353,2.107817 z"
       id="path1091" />
    <path
       style="fill:#aa4400;stroke-width:0.315534"
       d="m 176.35902,70.042968 c 0,-1.055276 0.52607,-1.6031 4.0605,-4.228422 5.68352,-4.221637 10.8,-8.562829 17.62598,-14.955179 2.04272,-1.912956 4.01564,-3.647098 4.38427,-3.85365 0.36863,-0.206552 1.13173,-0.636808 1.69578,-0.956122 0.90776,-0.51389 1.07946,-0.526666 1.4949,-0.111231 0.41543,0.415435 0.14816,0.776088 -2.32687,3.139945 -6.01308,5.743012 -10.84382,9.956081 -12.46444,10.870701 -0.93273,0.52639 -2.64171,1.814253 -3.79776,2.861912 -1.15606,1.047659 -3.09604,2.485442 -4.31109,3.19507 -1.21506,0.709626 -2.61094,1.619429 -3.10198,2.021786 -2.4139,1.977968 -3.25929,2.50066 -3.25929,2.015188 z"
       id="path1089" />
    <path
       style="fill:#aa4400;stroke-width:0.315534"
       d="m 238.06387,85.212918 c -0.30612,-0.437057 -0.49118,-1.383947 -0.49118,-2.513172 0,-2.135738 3.1e-4,-2.13605 4.05491,-3.315025 2.04042,-0.593308 3.32624,-0.774174 5.09558,-0.71674 3.227,0.104744 5.83497,0.05768 9.95073,-0.179647 l 3.48227,-0.200783 0.77745,-1.449521 c 1.22608,-2.286 1.99155,-2.684453 5.05039,-2.628862 1.42931,0.02596 2.72101,0.122784 2.87044,0.215131 0.14941,0.09235 0.27167,0.656492 0.27167,1.253653 V 76.7637 h -1.68837 c -1.76499,0 -3.67572,0.500398 -3.67572,0.962638 0,0.366715 2.1141,0.928229 3.47088,0.921878 1.83947,-0.0085 3.58027,-1.0334 5.33293,-3.139412 3.12626,-3.756595 3.09505,-3.640181 4.31544,-16.099495 0.36954,-3.772922 0.71856,-5.871636 1.10192,-6.626221 l 0.56106,-1.10437 0.53206,1.256432 c 0.46826,1.105787 0.48768,1.597614 0.16195,4.101947 -0.83608,6.428208 -2.01227,13.025359 -2.57829,14.461378 -1.41656,3.593823 -5.12921,7.602798 -7.32765,7.912498 -0.54728,0.07709 -3.55087,0.36006 -6.67467,0.628806 -5.49354,0.472621 -10.99619,0.368667 -15.61895,-0.295062 -1.68711,-0.242236 -4.19329,0.178467 -6.73974,1.131361 l -1.84895,0.691895 0.18402,1.147622 c 0.10128,0.631196 0.27652,1.609097 0.38959,2.173115 0.24211,1.207563 -0.22946,1.36686 -0.95977,0.324208 z"
       id="path1087" />
    <path
       style="fill:#aa4400;stroke-width:0.315534"
       d="m 27.613282,127.59646 c -0.519425,-0.57396 -0.513354,-0.88849 0.120318,-6.23436 1.66155,-14.01738 2.533677,-17.30641 7.989283,-30.129767 3.616531,-8.50061 7.689554,-15.555716 12.031466,-20.840338 1.401784,-1.70614 3.230556,-3.987771 4.063924,-5.070288 3.134565,-4.071651 8.245662,-8.807677 11.579446,-10.729714 1.657924,-0.955838 7.825889,-2.813123 11.674781,-3.51547 4.172948,-0.761487 13.440703,-1.172333 17.835457,-0.790655 4.680456,0.40649 17.864573,2.568073 22.079633,3.620036 1.73544,0.433118 5.85316,1.722517 9.15048,2.86533 21.99152,7.621967 33.29149,10.991564 38.59788,11.509706 4.57203,0.446433 6.72013,0.245145 10.26671,-0.962046 2.16831,-0.738057 2.93619,-0.877163 3.41817,-0.619217 0.59231,0.316999 0.59575,0.361262 0.0729,0.939024 -0.85745,0.94747 -3.61948,2.120647 -5.84149,2.481177 -4.35696,0.706931 -11.56218,0.254696 -17.16944,-1.077639 -3.24362,-0.770708 -24.12066,-7.67613 -27.47018,-9.086212 -1.031,-0.434021 -3.08145,-1.295301 -4.55656,-1.913952 -4.42091,-1.854087 -8.9845,-2.851589 -22.876238,-5.00023 -4.01693,-0.6213 -5.902623,-0.730055 -12.463611,-0.718818 -8.696644,0.0149 -13.103003,0.601366 -17.580213,2.339869 -2.863029,1.111723 -10.051703,5.864321 -12.294737,8.128339 -2.119414,2.13925 -6.956147,8.600028 -11.641281,15.550136 -6.462231,9.586295 -11.360884,20.902065 -13.373728,30.892949 -0.565983,2.8093 -1.906862,14.72433 -1.90642,16.94049 1.07e-4,0.54731 -0.254687,1.20725 -0.579662,1.50134 -0.542298,0.49078 -0.615283,0.48562 -1.126872,-0.0796 z"
       id="path1085" />
    <path
       style="fill:#aa4400;stroke-width:0.315534"
       d="m 228.96763,130.04737 c -0.29999,-0.16788 -0.54544,-0.47966 -0.54544,-0.69284 0,-0.21317 0.78759,-2.37146 1.7502,-4.79621 2.22749,-5.61093 6.32292,-16.54259 8.03507,-21.4475 1.57374,-4.508401 2.12782,-9.150598 1.35581,-11.359238 -0.50894,-1.456024 -0.3142,-2.682042 0.42604,-2.682042 0.28126,0 0.67398,-0.222363 0.8727,-0.49414 0.29534,-0.403901 0.37052,-0.263852 0.41162,0.766923 0.0277,0.693585 0.34218,1.833229 0.69895,2.532542 0.9051,1.774171 0.82463,2.810846 -0.59301,7.638564 -1.77019,6.028281 -3.41701,10.677281 -7.0148,19.802881 -4.67317,11.85324 -4.39175,11.29369 -5.39714,10.73106 z"
       id="path1083" />
    <path
       style="fill:#aa4400;stroke-width:0.315534"
       d="m 96.720352,136.8472 c -0.507161,-1.32166 -0.108641,-2.06451 3.090396,-5.76076 3.348182,-3.86854 6.861342,-8.67015 8.002082,-10.93676 1.48159,-2.94388 2.02379,-5.49628 2.01083,-9.46604 -0.0178,-5.45842 -0.62832,-8.35912 -2.8903,-13.732343 -1.91092,-4.539304 -4.60572,-10.216974 -6.13478,-12.925425 -0.927074,-1.642099 -1.078839,-3.019642 -0.29977,-2.720684 0.27452,0.10534 0.55691,0.191527 0.62756,0.191527 0.31215,0 6.7235,13.667975 8.28858,17.669922 1.89543,4.846673 2.65909,10.681303 1.96286,14.997133 -1.06608,6.60862 -5.20691,14.22393 -11.1758,20.55311 -2.50377,2.6549 -3.132681,3.03971 -3.481658,2.13032 z"
       id="path1081" />
    <path
       style="fill:#aaaaff;stroke-width:0.338217"
       d="m 267.05948,127.62808 c -1.85795,0.32168 -5.37833,1.08651 -7.82303,1.69965 -2.44469,0.61311 -6.44509,1.43245 -8.88978,1.82074 -2.4447,0.38827 -7.40521,1.3347 -11.02335,2.10314 -6.49253,1.37895 -11.84536,2.38545 -16.35725,3.07571 -3.48343,0.53291 -19.44212,0.90194 -24.71361,0.57146 -6.88192,-0.43144 -13.33564,-1.36835 -21.8689,-3.17481 -18.43577,-3.90279 -21.91814,-4.32935 -35.02581,-4.29037 -13.27162,0.0395 -23.03879,1.03765 -29.50676,3.01552 -1.66228,0.50833 -4.26413,1.10465 -5.78193,1.32519 -1.51779,0.22056 -2.95965,0.53751 -3.20412,0.70434 -0.62011,0.42318 -0.55556,1.49295 0.10393,1.7219 0.30164,0.10461 2.82189,-0.32843 5.60057,-0.96252 5.83558,-1.33169 19.44787,-3.56229 24.73322,-4.05296 3.79316,-0.35214 17.72311,0.0413 21.22135,0.5994 0.97273,0.1552 4.24885,0.66463 7.28027,1.13205 7.40567,1.14195 13.09428,2.22917 18.74443,3.58246 7.19159,1.72247 10.04487,2.10669 16.99257,2.28812 7.57462,0.19783 22.32026,-0.35045 27.48068,-1.02178 3.8754,-0.50417 10.72932,-1.83046 16.61269,-3.2147 1.95577,-0.46015 5.55417,-1.04823 7.99644,-1.30686 5.70143,-0.60375 6.02826,-0.65741 11.73893,-1.92768 2.64026,-0.58727 6.19893,-1.31539 7.90813,-1.61804 3.42091,-0.60572 4.10121,-1.00642 3.48297,-2.05147 -0.47571,-0.80411 -1.1512,-0.8063 -5.70164,-0.0185 z"
       id="path2847" />
    <g
       transform="matrix(0.38883511,0,0,0.32293564,44.712304,133.78908)"
       id="g26639"
       style="opacity:0.3" />
    <g
       transform="matrix(0.53360452,0,0,0.44316965,213.09973,31.311287)"
       id="g26643"
       style="opacity:0.3" />
  </g>
  <g
     inkscape:groupmode="layer"
     id="layer2"
     inkscape:label="Capa 2">
    <g
       aria-label="Py"
       id="text2949"
       style="font-weight:bold;font-size:66.8828px;line-height:1.25;font-family:Palanquin;-inkscape-font-specification:'Palanquin Bold';text-align:center;text-anchor:middle;fill:#0055d4;fill-opacity:0.974113;stroke:#ffffff;stroke-width:1.13433">
      <path
         d="M 30.226259,124.48743 V 79.007125 h 14.246036 q 7.423991,0 12.707732,3.411022 5.283741,3.34414 5.283741,11.169427 -0.06688,7.758406 -5.751921,11.436956 -5.618155,3.61167 -12.841497,3.61167 h -5.01621 v 15.85123 z M 44.204764,86.230467 H 38.85414 v 15.249273 h 5.48439 q 3.879202,0 6.286983,-1.738948 2.40778,-1.805836 2.675311,-5.618155 0,-4.414265 -2.40778,-6.153218 -2.407781,-1.738952 -6.68828,-1.738952 z"
         id="path975" />
      <path
         d="m 75.639576,126.02573 1.538305,-3.81232 -11.570724,-28.96025 8.962294,-1.20389 7.490874,19.66354 7.089576,-19.66354 h 9.162944 l -12.774615,32.43816 -1.738952,4.2805 q -1.538305,3.94608 -5.417507,6.75516 -3.879202,2.80908 -8.159701,3.81232 l -3.076609,-7.15646 q 2.340898,-1.00324 4.949327,-2.47467 2.675312,-1.40453 3.544788,-3.67855 z"
         id="path977" />
    </g>
    <g
       aria-label="Camp"
       id="text5329"
       style="font-weight:bold;font-size:66.8828px;line-height:1.25;font-family:Palanquin;-inkscape-font-specification:'Palanquin Bold';text-align:center;text-anchor:middle;fill:#98c500;fill-opacity:0.996753;stroke:#ffffff;stroke-width:1.13433">
      <path
         d="m 132.86148,89.223806 q -2.94285,-0.869477 -4.81556,-1.337656 -1.87272,-0.535063 -4.81557,-0.535063 -5.4175,0 -8.36035,4.414265 -2.94284,4.414265 -2.94284,12.105788 0,6.6214 2.47467,11.43696 2.47466,4.81556 8.29346,4.81556 2.87596,0 5.35063,-0.60195 2.54154,-0.60194 4.61491,-1.47142 l 3.27726,6.42075 q -2.60843,1.33766 -6.28699,2.14025 -3.67855,0.80259 -6.48763,0.80259 -10.63436,0 -15.44992,-6.82204 -4.81557,-6.82205 -4.81557,-16.65382 0,-10.500598 5.28375,-17.188878 5.35062,-6.688279 15.31616,-6.688279 2.00648,0 5.55127,0.668827 3.54479,0.668828 6.48763,2.274016 z"
         id="path948" />
      <path
         d="m 149.38143,116.77952 q 0,1.40454 1.13701,2.54154 1.137,1.07013 3.00972,1.07013 1.80584,0 3.61167,-0.80259 1.87272,-0.8026 3.54479,-2.40779 v -4.94932 h -6.55451 q -2.27402,0 -3.54479,1.40454 -1.20389,1.40454 -1.20389,3.14349 z m 4.2805,10.5006 q -5.95257,0 -8.82853,-2.87596 -2.87596,-2.94285 -2.87596,-7.62464 0,-5.01621 3.41102,-7.69152 3.41102,-2.67532 8.89541,-2.67532 h 6.35387 q -0.0669,-2.47466 -1.47142,-3.81231 -1.33766,-1.40454 -3.74544,-1.40454 -2.27401,0 -4.94933,0.66882 -2.67531,0.60195 -4.48114,1.47143 l -2.3409,-7.223346 q 1.87272,-1.270773 5.68504,-2.073367 3.8792,-0.869476 5.95257,-0.869476 5.8188,0 9.96553,3.411022 4.14674,3.34414 4.14674,8.560997 v 21.33561 h -4.48115 l -2.14025,-2.74219 q -1.80584,1.40454 -4.2805,2.47466 -2.40778,1.07013 -4.81556,1.07013 z"
         id="path950" />
      <path
         d="m 205.29537,97.851687 q 2.07337,-2.340898 5.48439,-3.678554 3.4779,-1.404539 6.2201,-1.404539 6.62139,0 9.36359,3.879202 2.80908,3.879204 2.80908,9.497354 v 20.33237 h -8.76165 v -19.93107 q 0,-3.07661 -1.47142,-4.6818 -1.47142,-1.67207 -4.2805,-1.67207 -1.87272,0 -3.94608,1.00325 -2.07337,1.00324 -3.74544,2.27401 0.0669,0.66883 0.13376,1.33766 0.0669,0.66883 0.0669,1.33765 v 20.33237 h -8.76165 v -19.93107 q 0,-3.07661 -1.47142,-4.6818 -1.47142,-1.67207 -4.21362,-1.67207 -1.67207,0 -3.41102,0.73572 -1.67207,0.66882 -3.21037,1.73895 v 23.81027 h -8.69477 V 94.039367 h 4.54803 l 2.14025,2.942843 q 2.20713,-2.006484 5.28374,-3.076608 3.14349,-1.137008 5.61816,-1.137008 3.81232,0 6.35386,1.404539 2.54155,1.337656 3.94609,3.678554 z"
         id="path952" />
      <path
         d="m 251.97953,119.85613 q 4.48115,0 6.28699,-3.21038 1.80583,-3.27725 1.80583,-6.62139 0,-3.81232 -1.60518,-6.82205 -1.60519,-3.00973 -6.48764,-3.00973 -1.40453,0 -2.94284,0.53507 -1.47142,0.46818 -2.80908,1.33765 v 15.91811 q 1.33766,0.80259 2.80908,1.33765 1.53831,0.53507 2.94284,0.53507 z m -14.3798,-25.816763 h 4.41427 l 1.87272,2.407781 q 2.20713,-1.67207 5.14997,-2.675312 2.94284,-1.003242 5.21686,-1.003242 7.15646,0 10.96878,4.949327 3.81232,4.949329 3.81232,12.306439 0,7.3571 -3.94609,12.30643 -3.8792,4.94933 -10.83501,4.94933 -1.73895,0 -3.94609,-0.60195 -2.14025,-0.60194 -4.07985,-1.67207 v 15.44993 l -8.62788,0.66883 z"
         id="path954" />
    </g>
    <g
       aria-label="'23"
       transform="scale(0.89141853,1.1218075)"
       id="text7247"
       style="font-weight:bold;font-size:57.152px;line-height:1.25;font-family:Palanquin;-inkscape-font-specification:'Palanquin Bold';text-align:center;word-spacing:3.83467px;baseline-shift:baseline;text-anchor:middle;opacity:1;vector-effect:none;fill:#1a1a1a;fill-opacity:0.906899;stroke:#ffffff;stroke-width:1.15431;stop-color:#000000;stop-opacity:1">
      <path
         d="m 244.35013,124.45975 q 1.77171,0 3.02906,1.4288 1.31449,1.37165 1.31449,3.65773 0,3.20051 -2.17177,6.68678 -2.11463,3.48627 -5.37229,5.31514 l -1.60026,-3.48628 q 1.4288,-1.25734 2.40039,-2.34323 1.02873,-1.14304 1.4288,-2.9719 -0.97159,0 -2.11463,-1.25735 -1.08589,-1.25734 -1.08589,-2.80044 0,-1.48596 1.2002,-2.8576 1.20019,-1.37165 2.9719,-1.37165 z"
         style="baseline-shift:baseline;vector-effect:none;stop-color:#000000;stop-opacity:1"
         id="path1037" />
      <path
         d="m 262.52439,133.77552 q 6.57248,0 9.14432,3.25767 2.57184,3.20051 2.57184,7.08685 0,3.42912 -1.94317,6.28672 -1.88601,2.8576 -6.05811,6.28672 l -5.42944,4.515 h 14.11654 l 0.97159,5.65805 h -24.86112 v -4.97222 l 11.20179,-9.83015 q 3.20051,-2.80044 4.22925,-4.45785 1.08589,-1.71456 1.14304,-3.48627 0,-1.82887 -1.37165,-3.08621 -1.37165,-1.25735 -3.82918,-1.25735 -2.11463,0 -4.85792,1.54311 -2.7433,1.5431 -2.91476,1.60025 l -3.20051,-5.02937 q 1.60026,-1.25735 4.34355,-2.68615 2.7433,-1.4288 6.74394,-1.4288 z"
         style="baseline-shift:baseline;vector-effect:none;stop-color:#000000;stop-opacity:1"
         id="path1039" />
      <path
         d="m 292.75776,133.77552 q 6.00096,0 8.97287,2.97191 3.02905,2.9719 3.02905,6.97254 0,2.62899 -1.48595,4.74362 -1.48595,2.05747 -3.14336,2.80045 1.60026,0.40006 3.42912,2.80044 1.88602,2.34324 1.88602,5.88666 0,4.74362 -3.65773,8.00128 -3.65773,3.25766 -9.83014,3.25766 -3.14336,0 -6.51533,-1.14304 -3.31482,-1.08588 -5.94381,-2.45753 l 3.77203,-4.97223 q 2.28608,1.37165 4.2864,2.00032 2.00032,0.57152 4.51501,0.57152 2.51469,0 4.51501,-1.37164 2.05747,-1.37165 2.05747,-3.82919 0,-2.62899 -2.05747,-4.17209 -2.00032,-1.54311 -6.51533,-1.54311 h -2.40038 l -1.02874,-5.77235 h 3.77203 q 3.48627,0 5.48659,-1.25734 2.05748,-1.3145 2.05748,-3.42912 0,-1.65741 -1.48596,-2.8576 -1.4288,-1.2002 -3.88633,-1.2002 -2.57184,0 -4.80077,0.97159 -2.17178,0.91443 -3.71488,2.00032 l -3.48627,-4.97223 q 2.80045,-1.82886 5.77235,-2.91475 2.9719,-1.08589 6.40102,-1.08589 z"
         style="baseline-shift:baseline;vector-effect:none;stop-color:#000000;stop-opacity:1"
         id="path1041" />
    </g>
    <g
       aria-label="Corrientes"
       transform="scale(0.9191902,1.0879141)"
       id="text29415"
       style="font-weight:bold;font-size:43.5855px;line-height:1.25;font-family:Palanquin;-inkscape-font-specification:'Palanquin Bold';text-align:center;word-spacing:2.92441px;text-anchor:middle;fill-opacity:0.906899;stroke:#ffffff;stroke-width:0.880302">
      <path
         d="m 50.923858,145.59918 q -1.612663,-0.56661 -2.920228,-0.87171 -1.26398,-0.34868 -3.399669,-0.34868 -4.053452,0 -6.407069,3.3125 -2.353616,3.3125 -2.353616,8.67351 0,4.79441 2.004933,8.28125 2.004932,3.44325 6.407068,3.44325 2.135689,0 3.704767,-0.34868 1.569078,-0.39227 2.789472,-0.95888 l 1.612664,3.13815 q -1.481907,0.74096 -3.791939,1.2204 -2.266446,0.52302 -4.140622,0.52302 -6.842923,0 -9.893908,-4.4893 -3.050985,-4.5329 -3.050985,-10.76562 0,-6.66858 3.356083,-11.1143 3.356083,-4.48931 9.850323,-4.48931 1.307565,0 3.617596,0.43585 2.310032,0.39227 3.922695,1.35116 z"
         style="font-weight:500;-inkscape-font-specification:'Palanquin Medium'"
         id="path998" />
      <path
         d="m 66.440242,171.61973 q -4.794405,-0.0436 -7.278778,-3.13816 -2.484373,-3.13815 -2.484373,-8.06332 0.04359,-4.88157 2.702301,-7.93256 2.658715,-3.09457 7.45312,-3.13815 4.968747,0 7.496706,3.18174 2.571544,3.13815 2.571544,8.1069 0,4.92516 -2.789472,7.93256 -2.789472,3.0074 -7.671048,3.05099 z m 6.232727,-10.98355 q 0,-3.39967 -1.351151,-5.53536 -1.35115,-2.17927 -4.35855,-2.17927 -3.007399,0 -4.489306,2.04852 -1.481907,2.00493 -1.525492,5.4046 0,3.53042 1.263979,5.62253 1.307565,2.04852 4.314964,2.04852 2.963814,0 4.532892,-1.96135 1.569078,-1.96135 1.612664,-5.44819 z"
         style="font-weight:500;-inkscape-font-specification:'Palanquin Medium'"
         id="path1000" />
      <path
         d="m 82.174526,171.05312 v -21.13897 h 2.353617 l 1.35115,3.0074 q 1.220394,-1.04605 3.050985,-2.00493 1.874176,-1.00247 3.574011,-1.00247 l 0.915295,3.35608 q -1.74342,0 -3.661182,0.95888 -1.874176,0.9153 -3.399668,2.39721 v 14.4268 z"
         style="font-weight:500;-inkscape-font-specification:'Palanquin Medium'"
         id="path1002" />
      <path
         d="m 96.949956,171.05312 v -21.13897 h 2.353617 l 1.351147,3.0074 q 1.2204,-1.04605 3.05099,-2.00493 1.87418,-1.00247 3.57401,-1.00247 l 0.91529,3.35608 q -1.74341,0 -3.66118,0.95888 -1.87417,0.9153 -3.39967,2.39721 v 14.4268 z"
         style="font-weight:500;-inkscape-font-specification:'Palanquin Medium'"
         id="path1004" />
      <path
         d="m 113.86108,146.12221 q -1.08964,0 -1.83059,-0.74095 -0.74096,-0.78454 -0.74096,-1.87418 -0.0436,-1.08964 0.69737,-1.83059 0.78454,-0.78454 1.87418,-0.78454 1.08964,0 1.87417,0.78454 0.78454,0.74095 0.78454,1.83059 0,1.08964 -0.78454,1.87418 -0.78453,0.74095 -1.87417,0.74095 z m -2.09211,24.93091 v -21.13897 h 4.2278 v 21.13897 z"
         style="font-weight:500;-inkscape-font-specification:'Palanquin Medium'"
         id="path1006" />
      <path
         d="m 140.57897,161.42072 h -14.99342 q 0.21793,2.92023 1.83059,4.79441 1.61267,1.87417 4.838,1.87417 1.87417,0 3.13815,-0.39227 1.30757,-0.43585 2.61513,-1.04605 l 1.30757,3.05099 q -1.39474,0.95888 -3.57401,1.39473 -2.13569,0.47944 -3.48684,0.47944 -5.31744,0 -8.19408,-3.05098 -2.83306,-3.09457 -2.83306,-8.06332 0,-4.92516 2.65872,-8.01973 2.7023,-3.09457 7.45312,-3.09457 5.14309,0 7.19161,3.61759 2.04852,3.6176 2.04852,8.45559 z m -4.05346,-2.83306 q -0.39227,-2.61513 -1.65624,-4.14062 -1.26398,-1.52549 -3.66119,-1.52549 -2.44078,0 -3.83552,1.56908 -1.39474,1.52549 -1.69984,4.09703 z"
         style="font-weight:500;-inkscape-font-specification:'Palanquin Medium'"
         id="path1008" />
      <path
         d="m 149.25244,152.70362 q 1.35115,-1.48191 3.48684,-2.48437 2.13569,-1.00247 3.96628,-1.00247 3.87911,0 5.62253,2.26645 1.78701,2.22286 1.78701,5.62253 v 13.94736 h -4.18421 v -13.55509 q 0,-2.13569 -1.04605,-3.39967 -1.00247,-1.26398 -3.05099,-1.30757 -1.30756,0 -3.05098,0.82813 -1.74342,0.82812 -3.0074,2.17927 v 15.25493 h -4.18421 v -21.13897 h 2.35362 z"
         style="font-weight:500;-inkscape-font-specification:'Palanquin Medium'"
         id="path1010" />
      <path
         d="m 180.98268,170.87877 q -0.56661,0.3051 -1.61266,0.6102 -1.00247,0.3051 -1.96135,0.3051 -3.09457,0 -4.92516,-1.69984 -1.83059,-1.69983 -1.83059,-4.92516 V 153.3574 h -2.96382 l -0.0436,-3.18174 h 3.0074 v -5.27384 l 4.18421,-0.95888 v 6.23272 h 3.83552 l 1.30756,3.18174 h -5.14308 v 11.15789 q 0,1.61266 0.69736,2.65872 0.74096,1.00246 2.31003,1.00246 0.52303,0 1.04606,-0.13075 0.56661,-0.17435 1.00246,-0.34869 z"
         style="font-weight:500;-inkscape-font-specification:'Palanquin Medium'"
         id="path1012" />
      <path
         d="m 203.29838,161.42072 h -14.99341 q 0.21793,2.92023 1.83059,4.79441 1.61266,1.87417 4.83799,1.87417 1.87418,0 3.13815,-0.39227 1.30757,-0.43585 2.61513,-1.04605 l 1.30757,3.05099 q -1.39474,0.95888 -3.57401,1.39473 -2.13569,0.47944 -3.48684,0.47944 -5.31743,0 -8.19407,-3.05098 -2.83306,-3.09457 -2.83306,-8.06332 0,-4.92516 2.65871,-8.01973 2.7023,-3.09457 7.45312,-3.09457 5.14309,0 7.19161,3.61759 2.04852,3.6176 2.04852,8.45559 z m -4.05345,-2.83306 q -0.39227,-2.61513 -1.65625,-4.14062 -1.26398,-1.52549 -3.66118,-1.52549 -2.44079,0 -3.83553,1.56908 -1.39473,1.52549 -1.69983,4.09703 z"
         style="font-weight:500;-inkscape-font-specification:'Palanquin Medium'"
         id="path1014" />
      <path
         d="m 220.42744,154.35987 q -1.22039,-0.56661 -2.57154,-1.00247 -1.30757,-0.43585 -3.0074,-0.43585 -1.65625,0 -2.65872,0.69737 -0.95888,0.65378 -0.95888,1.787 0.0436,0.95888 1.13323,1.69984 1.13322,0.69736 3.05098,1.35115 2.61513,0.95888 4.88158,2.61513 2.26644,1.61266 2.26644,4.22779 0,2.96381 -2.22286,4.66365 -2.17927,1.65625 -6.36348,1.65625 -1.35115,0 -3.48684,-0.47944 -2.13569,-0.47944 -3.48684,-1.43832 l 1.30756,-3.09458 q 1.35115,0.65379 2.78948,1.04606 1.43832,0.39227 2.87664,0.39227 2.0921,0 3.22533,-0.65379 1.1768,-0.65378 1.1768,-1.87417 0,-1.2204 -1.26398,-2.09211 -1.22039,-0.91529 -3.26891,-1.56907 -2.48437,-0.82813 -4.70723,-2.31004 -2.22286,-1.4819 -2.22286,-4.05345 0,-2.87664 2.13569,-4.4893 2.17927,-1.65625 5.88404,-1.65625 1.35115,0 3.39967,0.52302 2.04852,0.52303 3.39967,1.48191 z"
         style="font-weight:500;-inkscape-font-specification:'Palanquin Medium'"
         id="path1016" />
    </g>
  </g>
</svg>
