<?xml version="1.0" encoding="UTF-8" standalone="no"?>
<svg
   xmlns:dc="http://purl.org/dc/elements/1.1/"
   xmlns:cc="http://creativecommons.org/ns#"
   xmlns:rdf="http://www.w3.org/1999/02/22-rdf-syntax-ns#"
   xmlns:svg="http://www.w3.org/2000/svg"
   xmlns="http://www.w3.org/2000/svg"
   xmlns:sodipodi="http://sodipodi.sourceforge.net/DTD/sodipodi-0.dtd"
   xmlns:inkscape="http://www.inkscape.org/namespaces/inkscape"
   version="1.1"
   id="PyAr"
   x="0px"
   y="0px"
   viewBox="0 0 250.6 311.8"
   sodipodi:docname="Blanco y negro vertical.svg"
   inkscape:export-filename="/home/facundo/devel/reps/asoc/isologos/pyar/Blanco y negro vertical.png"
   inkscape:export-xdpi="299"
   inkscape:export-ydpi="299"
   inkscape:version="0.92.3 (2405546, 2018-03-11)">
  <metadata
     id="metadata37">
    <rdf:RDF>
      <cc:Work
         rdf:about="">
        <dc:format>image/svg+xml</dc:format>
        <dc:type
           rdf:resource="http://purl.org/dc/dcmitype/StillImage" />
      </cc:Work>
    </rdf:RDF>
  </metadata>
  <defs
     id="defs35" />
  <sodipodi:namedview
     pagecolor="#ffffff"
     bordercolor="#666666"
     borderopacity="1"
     objecttolerance="10"
     gridtolerance="10"
     guidetolerance="10"
     inkscape:pageopacity="0"
     inkscape:pageshadow="2"
     inkscape:window-width="1920"
     inkscape:window-height="993"
     id="namedview33"
     showgrid="false"
     inkscape:zoom="0.75689548"
     inkscape:cx="125.3"
     inkscape:cy="155.89999"
     inkscape:window-x="0"
     inkscape:window-y="30"
     inkscape:window-maximized="1"
     inkscape:current-layer="PyAr" />
  <g
     id="g10">
    <path
       d="M41.6,83.5V25H60c6.4,0,11.8,1.5,16.4,4.4c4.5,2.9,6.8,7.7,6.8,14.4c-0.1,6.7-2.5,11.6-7.4,14.7   c-4.9,3.1-10.4,4.7-16.6,4.7h-6.5v20.4H41.6z M59.6,34.3h-6.9v19.6h7.1c3.3,0,6-0.8,8.1-2.3c2.1-1.5,3.2-3.9,3.4-7.2   c0-3.8-1-6.4-3.1-7.9C66.2,35,63.3,34.3,59.6,34.3z"
       id="path2" />
    <path
       d="M101.8,85.5l2-4.9L88.9,43.3l11.5-1.6l9.6,25.3l9.1-25.3h11.8l-16.5,41.8l-2.2,5.5c-1.3,3.4-3.6,6.3-7,8.7   c-3.3,2.4-6.8,4-10.5,4.9l-4-9.2c2-0.9,4.1-1.9,6.4-3.1C99.6,89.1,101.1,87.5,101.8,85.5z"
       id="path4" />
    <path
       d="M155.7,25l22.7,57l-11.2,1.6L162,69.8h-22.2l-5.2,13.8h-11.2L146.2,25H155.7z M150.7,40.3L143,60.7h15.5L150.7,40.3z"
       id="path6" />
    <path
       d="M207.2,41.8l2.2,9c-1.9,0-4.1,0.5-6.6,1.6c-2.5,1.1-5,2.7-7.4,4.8v26.4h-11.2V41.8h5.9l3.7,6.1c1.7-1.5,3.8-2.9,6.3-4.2   C202.6,42.4,205,41.8,207.2,41.8z"
       id="path8" />
  </g>
  <g
     class="st1"
     id="g30">
    <path
       d="M189.7,162.8c-0.6,14.2-8.2,27.3-20.2,34.9c12,7.6,19.6,20.7,20.2,34.9c11.9-7.5,19.2-20.7,19.2-34.9   C208.9,183.6,201.6,170.4,189.7,162.8z"
       id="path12" />
    <path
       d="M103.2,159.4c0.6-14.2,8.1-27.3,20.1-34.9c-5.9-3.1-12.5-4.7-19.2-4.7c-22.2,0-40.4,17.6-41.2,39.6c6.2-3.2,13.1-5,20.1-5   C90.1,154.4,97,156.1,103.2,159.4z"
       id="path14" />
    <path
       d="M105.2,159.4c6.2-3.3,13.1-5,20.1-5c7.6,0,15.1,2,21.6,5.8c12.8,7.4,21,21,21.6,35.7c11.9-7.5,19.2-20.7,19.2-34.9v0   c0-22.8-18.5-41.3-41.3-41.3c-7.2,0-14.4,1.9-20.6,5.5C113.6,132.4,105.8,145.3,105.2,159.4z"
       id="path16" />
    <path
       d="M103.2,236c-6.2,3.3-13.1,5-20.2,5c-7,0-13.9-1.7-20.1-5c0.9,22,19.1,39.6,41.2,39.6c6.7,0,13.3-1.6,19.1-4.7   C111.3,263.2,103.8,250.1,103.2,236z"
       id="path18" />
    <path
       d="M168.6,199.4c-0.6,14.7-8.8,28.3-21.6,35.7c-6.6,3.8-14,5.8-21.6,5.8c-7,0-13.9-1.7-20.1-5c0.6,14,8.4,27,20.6,34   c6.3,3.6,13.4,5.5,20.6,5.5c22.8,0,41.3-18.5,41.3-41.3h0C187.7,220.2,180.4,207,168.6,199.4z"
       id="path20" />
    <path
       d="M102.2,234.2c-12.5-7.9-20.1-21.8-20.1-36.6c0-14.8,7.7-28.7,20.1-36.6c-5.9-3.1-12.5-4.7-19.2-4.7   c-7.2,0-14.4,1.9-20.6,5.5c-12.7,7.4-20.6,21.1-20.6,35.7c0,14.7,7.9,28.4,20.6,35.7c6.3,3.6,13.4,5.5,20.6,5.5   C89.7,239,96.3,237.3,102.2,234.2z"
       id="path22" />
    <path
       d="M161.7,178.2c0.3,1.3,0.2,2.7-0.5,4c-1.4,2.5-4.6,3.4-7.1,1.9c-2.5-1.4-3.4-4.6-1.9-7.1s4.6-3.4,7.1-1.9   c0.4,0.3,0.8,0.6,1.1,0.9c-3.5-5.7-8.4-10.6-14.4-14.1c-6.3-3.6-13.4-5.5-20.6-5.5c-6.7,0-13.3,1.6-19.2,4.7   c12.3,7.8,19.9,21.4,20.1,36c5.3,3,11.3,4.7,17.4,5.2c0,0,0,0-0.1,0c-2.5-1.4-3.4-4.6-1.9-7.1c1.4-2.5,4.6-3.4,7.1-1.9   c2.5,1.4,3.4,4.6,1.9,7.1c-0.5,0.9-1.2,1.5-2.1,2c6.3-0.3,12.4-2.1,17.9-5.2C166.5,190.4,164.8,184,161.7,178.2z"
       id="path24" />
    <path
       d="M124.1,238.9c-0.5-0.1-1-0.3-1.4-0.5c-2.5-1.4-3.4-4.6-1.9-7.1s4.6-3.4,7.1-1.9c2.5,1.4,3.4,4.6,1.9,7.1   c-0.7,1.3-1.9,2.1-3.2,2.4c6.8-0.2,13.5-2.1,19.3-5.5c12.2-7.1,20-20,20.6-34c-6.2,3.2-13.1,5-20.1,5c-7.4,0-14.7-1.9-21.1-5.5   c-5.3,3.2-9.8,7.5-13.2,12.5c1.6-0.9,3.6-1.1,5.3-0.1c2.5,1.4,3.4,4.6,1.9,7.1c-1.4,2.5-4.6,3.4-7.1,1.9c-1.7-1-2.6-2.8-2.6-4.7   c-2.8,5.5-4.4,11.7-4.5,18.1C111,236.9,117.5,238.7,124.1,238.9z"
       id="path26" />
    <path
       d="M112.3,184.1c-2.5-1.4-3.4-4.6-1.9-7.1s4.6-3.4,7.1-1.9c0.1,0,0.1,0.1,0.2,0.1c-3.4-5.3-8.1-9.8-13.5-13   c-5.8,3.4-10.5,8.2-13.9,13.7c1.6-1.7,4.2-2.1,6.3-0.9c2.5,1.4,3.4,4.6,1.9,7.1s-4.6,3.4-7.1,1.9c-2.1-1.2-3-3.7-2.4-5.9   c-3.2,5.9-4.9,12.6-4.9,19.5c0,7.2,1.9,14.4,5.5,20.6c3.3,5.8,8,10.7,13.7,14.2c0.6-14.6,8.6-28,21.1-35.4   c-0.1-6.1-1.5-12.2-4.2-17.7c0,0.9-0.2,1.9-0.7,2.8C118,184.7,114.8,185.6,112.3,184.1z"
       id="path28" />
  </g>
</svg>
