<?xml version="1.0" encoding="UTF-8" standalone="no"?>
<svg
   xmlns:dc="http://purl.org/dc/elements/1.1/"
   xmlns:cc="http://creativecommons.org/ns#"
   xmlns:rdf="http://www.w3.org/1999/02/22-rdf-syntax-ns#"
   xmlns:svg="http://www.w3.org/2000/svg"
   xmlns="http://www.w3.org/2000/svg"
   xmlns:sodipodi="http://sodipodi.sourceforge.net/DTD/sodipodi-0.dtd"
   xmlns:inkscape="http://www.inkscape.org/namespaces/inkscape"
   version="1.1"
   id="PyAr"
   x="0px"
   y="0px"
   viewBox="0 0 543.1 228.3"
   sodipodi:docname="Blanco y negro horizontal.svg"
   inkscape:export-filename="/home/facundo/devel/reps/asoc/isologos/pyar/Blanco y negro horizontal.png"
   inkscape:export-xdpi="299"
   inkscape:export-ydpi="299"
   inkscape:version="0.92.3 (2405546, 2018-03-11)">
  <metadata
     id="metadata43">
    <rdf:RDF>
      <cc:Work
         rdf:about="">
        <dc:format>image/svg+xml</dc:format>
        <dc:type
           rdf:resource="http://purl.org/dc/dcmitype/StillImage" />
      </cc:Work>
    </rdf:RDF>
  </metadata>
  <defs
     id="defs41" />
  <sodipodi:namedview
     pagecolor="#ffffff"
     bordercolor="#666666"
     borderopacity="1"
     objecttolerance="10"
     gridtolerance="10"
     guidetolerance="10"
     inkscape:pageopacity="0"
     inkscape:pageshadow="2"
     inkscape:window-width="1920"
     inkscape:window-height="993"
     id="namedview39"
     showgrid="false"
     inkscape:zoom="0.72178239"
     inkscape:cx="271.54999"
     inkscape:cy="114.15"
     inkscape:window-x="0"
     inkscape:window-y="30"
     inkscape:window-maximized="1"
     inkscape:current-layer="PyAr" />
  <g
     id="g36">
    <g
       id="g12">
      <g
         id="g10">
        <path
           d="M250.9,155.7V72.4H277c9.1,0,16.8,2.1,23.3,6.2c6.5,4.1,9.7,11,9.7,20.5c-0.1,9.5-3.6,16.5-10.5,20.9     c-6.9,4.5-14.8,6.7-23.6,6.7h-9.2v29.1H250.9z M276.5,85.6h-9.8v28h10.1c4.7,0,8.6-1.1,11.5-3.2c2.9-2.2,4.6-5.6,4.9-10.2     c0-5.4-1.5-9.2-4.4-11.3C285.9,86.7,281.8,85.6,276.5,85.6z"
           id="path2" />
        <path
           d="M336.6,158.6l2.8-7l-21.2-53.1l16.4-2.2l13.7,36l13-36h16.8l-23.4,59.5l-3.2,7.8c-1.9,4.8-5.2,9-9.9,12.4     c-4.7,3.4-9.7,5.8-15,7l-5.6-13.1c2.9-1.2,5.9-2.7,9.1-4.5C333.4,163.6,335.6,161.3,336.6,158.6z"
           id="path4" />
        <path
           d="M413.3,72.4l32.4,81.2l-15.9,2.2l-7.5-19.6h-31.6l-7.4,19.6h-15.9l32.5-83.4H413.3z M406.1,94.2l-10.9,29.1h22.1     L406.1,94.2z"
           id="path6" />
        <path
           d="M486.6,96.3l3.2,12.8c-2.7,0-5.8,0.8-9.4,2.3c-3.6,1.6-7,3.8-10.5,6.9v37.5H454V96.3h8.3l5.3,8.7c2.5-2.1,5.4-4.1,9-5.9     C480,97.2,483.4,96.3,486.6,96.3z"
           id="path8" />
      </g>
    </g>
    <g
       id="g14" />
    <g
       id="g34">
      <path
         d="M189.7,79.3c-0.6,14.2-8.2,27.3-20.2,34.9c12,7.6,19.6,20.7,20.2,34.9c11.9-7.5,19.2-20.7,19.2-34.9    C208.9,100.1,201.6,86.9,189.7,79.3z"
         id="path16" />
      <path
         d="M103.2,75.9c0.6-14.2,8.1-27.3,20.1-34.9c-5.9-3.1-12.5-4.7-19.2-4.7c-22.2,0-40.4,17.6-41.2,39.6c6.2-3.2,13.1-5,20.1-5    C90.1,70.9,97,72.6,103.2,75.9z"
         id="path18" />
      <path
         d="M105.2,75.9c6.2-3.3,13.1-5,20.1-5c7.6,0,15.1,2,21.6,5.8c12.8,7.4,21,21,21.6,35.7c11.9-7.5,19.2-20.7,19.2-34.9l0,0    c0-22.8-18.5-41.3-41.3-41.3c-7.2,0-14.4,1.9-20.6,5.5C113.6,48.9,105.8,61.8,105.2,75.9z"
         id="path20" />
      <path
         d="M103.2,152.5c-6.2,3.3-13.1,5-20.2,5c-7,0-13.9-1.7-20.1-5c0.9,22,19.1,39.6,41.2,39.6c6.7,0,13.3-1.6,19.1-4.7    C111.3,179.7,103.8,166.6,103.2,152.5z"
         id="path22" />
      <path
         d="M168.6,115.9c-0.6,14.7-8.8,28.3-21.6,35.7c-6.6,3.8-14,5.8-21.6,5.8c-7,0-13.9-1.7-20.1-5c0.6,14,8.4,27,20.6,34    c6.3,3.6,13.4,5.5,20.6,5.5c22.8,0,41.3-18.5,41.3-41.3l0,0C187.7,136.7,180.4,123.5,168.6,115.9z"
         id="path24" />
      <path
         d="M102.2,150.7c-12.5-7.9-20.1-21.8-20.1-36.6c0-14.8,7.7-28.7,20.1-36.6c-5.9-3.1-12.5-4.7-19.2-4.7    c-7.2,0-14.4,1.9-20.6,5.5C49.7,85.7,41.8,99.4,41.8,114c0,14.7,7.9,28.4,20.6,35.7c6.3,3.6,13.4,5.5,20.6,5.5    C89.7,155.5,96.3,153.8,102.2,150.7z"
         id="path26" />
      <path
         d="M161.7,94.7c0.3,1.3,0.2,2.7-0.5,4c-1.4,2.5-4.6,3.4-7.1,1.9c-2.5-1.4-3.4-4.6-1.9-7.1s4.6-3.4,7.1-1.9    c0.4,0.3,0.8,0.6,1.1,0.9c-3.5-5.7-8.4-10.6-14.4-14.1c-6.3-3.6-13.4-5.5-20.6-5.5c-6.7,0-13.3,1.6-19.2,4.7    c12.3,7.8,19.9,21.4,20.1,36c5.3,3,11.3,4.7,17.4,5.2c0,0,0,0-0.1,0c-2.5-1.4-3.4-4.6-1.9-7.1c1.4-2.5,4.6-3.4,7.1-1.9    c2.5,1.4,3.4,4.6,1.9,7.1c-0.5,0.9-1.2,1.5-2.1,2c6.3-0.3,12.4-2.1,17.9-5.2C166.5,106.9,164.8,100.5,161.7,94.7z"
         id="path28" />
      <path
         d="M124.1,155.4c-0.5-0.1-1-0.3-1.4-0.5c-2.5-1.4-3.4-4.6-1.9-7.1s4.6-3.4,7.1-1.9c2.5,1.4,3.4,4.6,1.9,7.1    c-0.7,1.3-1.9,2.1-3.2,2.4c6.8-0.2,13.5-2.1,19.3-5.5c12.2-7.1,20-20,20.6-34c-6.2,3.2-13.1,5-20.1,5c-7.4,0-14.7-1.9-21.1-5.5    c-5.3,3.2-9.8,7.5-13.2,12.5c1.6-0.9,3.6-1.1,5.3-0.1c2.5,1.4,3.4,4.6,1.9,7.1c-1.4,2.5-4.6,3.4-7.1,1.9c-1.7-1-2.6-2.8-2.6-4.7    c-2.8,5.5-4.4,11.7-4.5,18.1C111,153.4,117.5,155.2,124.1,155.4z"
         id="path30" />
      <path
         d="M112.3,100.6c-2.5-1.4-3.4-4.6-1.9-7.1s4.6-3.4,7.1-1.9c0.1,0,0.1,0.1,0.2,0.1c-3.4-5.3-8.1-9.8-13.5-13    c-5.8,3.4-10.5,8.2-13.9,13.7c1.6-1.7,4.2-2.1,6.3-0.9c2.5,1.4,3.4,4.6,1.9,7.1s-4.6,3.4-7.1,1.9c-2.1-1.2-3-3.7-2.4-5.9    c-3.2,5.9-4.9,12.6-4.9,19.5c0,7.2,1.9,14.4,5.5,20.6c3.3,5.8,8,10.7,13.7,14.2c0.6-14.6,8.6-28,21.1-35.4    c-0.1-6.1-1.5-12.2-4.2-17.7c0,0.9-0.2,1.9-0.7,2.8C118,101.2,114.8,102.1,112.3,100.6z"
         id="path32" />
    </g>
  </g>
</svg>
