<?xml version="1.0" encoding="UTF-8" standalone="no"?>
<svg
   xmlns:dc="http://purl.org/dc/elements/1.1/"
   xmlns:cc="http://creativecommons.org/ns#"
   xmlns:rdf="http://www.w3.org/1999/02/22-rdf-syntax-ns#"
   xmlns:svg="http://www.w3.org/2000/svg"
   xmlns="http://www.w3.org/2000/svg"
   xmlns:sodipodi="http://sodipodi.sourceforge.net/DTD/sodipodi-0.dtd"
   xmlns:inkscape="http://www.inkscape.org/namespaces/inkscape"
   version="1.1"
   id="PyAr"
   x="0px"
   y="0px"
   viewBox="0 0 250.6 311.8"
   sodipodi:docname="Color vertical.svg"
   inkscape:export-filename="/home/facundo/devel/reps/asoc/isologos/pyar/Color vertical.png"
   inkscape:export-xdpi="299.88455"
   inkscape:export-ydpi="299.88455"
   inkscape:version="0.92.3 (2405546, 2018-03-11)">
  <metadata
     id="metadata69">
    <rdf:RDF>
      <cc:Work
         rdf:about="">
        <dc:format>image/svg+xml</dc:format>
        <dc:type
           rdf:resource="http://purl.org/dc/dcmitype/StillImage" />
      </cc:Work>
    </rdf:RDF>
  </metadata>
  <defs
     id="defs67" />
  <sodipodi:namedview
     pagecolor="#ffffff"
     bordercolor="#666666"
     borderopacity="1"
     objecttolerance="10"
     gridtolerance="10"
     guidetolerance="10"
     inkscape:pageopacity="0"
     inkscape:pageshadow="2"
     inkscape:window-width="1137"
     inkscape:window-height="880"
     id="namedview65"
     showgrid="false"
     inkscape:zoom="0.75689548"
     inkscape:cx="125.3"
     inkscape:cy="155.89999"
     inkscape:window-x="0"
     inkscape:window-y="30"
     inkscape:window-maximized="0"
     inkscape:current-layer="PyAr" />
  <style
     type="text/css"
     id="style2">
	.st0{fill:#FFFFFF;}
	.st1{fill:#00AEEF;}
	.st2{fill:#FFC709;}
	.st3{fill:#EC008C;}
</style>
  <g
     id="g62">
    <rect
       class="st0"
       width="250.6"
       height="311.8"
       id="rect4" />
    <g
       id="g16">
      <g
         id="g14">
        <path
           class="st1"
           d="M41.6,83.5V25H60c6.4,0,11.8,1.5,16.4,4.4c4.5,2.9,6.8,7.7,6.8,14.4c-0.1,6.7-2.5,11.6-7.4,14.7     c-4.9,3.1-10.4,4.7-16.6,4.7h-6.5v20.4H41.6z M59.6,34.3h-6.9v19.6h7.1c3.3,0,6-0.8,8.1-2.3c2.1-1.5,3.2-3.9,3.4-7.2     c0-3.8-1-6.4-3.1-7.9C66.2,35,63.3,34.3,59.6,34.3z"
           id="path6" />
        <path
           class="st1"
           d="M101.8,85.5l2-4.9L88.9,43.3l11.5-1.6l9.7,25.3l9.1-25.3h11.8l-16.5,41.8l-2.2,5.5c-1.3,3.4-3.6,6.3-7,8.7     c-3.3,2.4-6.8,4-10.5,4.9l-4-9.2c2-0.9,4.1-1.9,6.4-3.1C99.6,89.1,101.1,87.5,101.8,85.5z"
           id="path8" />
        <path
           class="st1"
           d="M155.7,25l22.7,57l-11.2,1.6L162,69.8h-22.2l-5.2,13.8h-11.2L146.2,25H155.7z M150.7,40.3L143,60.7h15.5     L150.7,40.3z"
           id="path10" />
        <path
           class="st1"
           d="M207.2,41.8l2.2,9c-1.9,0-4.1,0.5-6.6,1.6c-2.5,1.1-5,2.7-7.4,4.8v26.4h-11.2V41.8h5.9l3.7,6.1     c1.7-1.5,3.8-2.9,6.3-4.2C202.6,42.4,205,41.8,207.2,41.8z"
           id="path12" />
      </g>
    </g>
    <g
       id="g60">
      <path
         class="st2"
         d="M208.9,197.7c0-15.5-8.4-28.9-20.9-36.2c0,15.5-8.4,28.9-20.9,36.2c0,0,0,0,0,0c0,0,0,0,0,0    c12.5,7.2,20.9,20.7,20.9,36.2C200.5,226.6,208.9,213.1,208.9,197.7z"
         id="path18" />
      <path
         class="st1"
         d="M104.4,233.9C104.4,233.9,104.4,233.9,104.4,233.9c-6.1,3.6-13.3,5.6-20.9,5.6c-7.6,0-14.7-2-20.9-5.6    c0,0,0,0,0,0c0,23.1,18.7,41.8,41.8,41.8c7.6,0,14.7-2,20.9-5.6C112.8,262.8,104.4,249.3,104.4,233.9z"
         id="path20" />
      <path
         class="st3"
         d="M188,233.9c0-15.5-8.4-28.9-20.9-36.2c0,15.5-8.4,28.9-20.9,36.2l0,0l0,0c-6.1,3.6-13.3,5.6-20.9,5.6    s-14.7-2-20.9-5.6c0,0,0,0,0,0c0,0,0,0,0,0c0,15.5,8.4,29,20.9,36.2c6.1,3.6,13.3,5.6,20.9,5.6C169.3,275.6,188,256.9,188,233.9    C188,233.9,188,233.9,188,233.9z"
         id="path22" />
      <path
         class="st3"
         d="M104.4,161.5C104.4,161.5,104.4,161.5,104.4,161.5c0-15.5,8.4-29,20.9-36.2c-6.1-3.6-13.3-5.6-20.9-5.6    c-23.1,0-41.8,18.7-41.8,41.8c0,0,0,0,0,0c6.1-3.6,13.3-5.6,20.9-5.6C91.2,155.9,98.3,158,104.4,161.5z"
         id="path24" />
      <path
         class="st1"
         d="M146.2,119.7c-7.6,0-14.7,2-20.9,5.6c-12.5,7.2-20.9,20.7-20.9,36.2c0,0,0,0,0,0c0,0,0,0,0,0    c6.1-3.6,13.3-5.6,20.9-5.6s14.7,2,20.9,5.6l0,0l0,0c12.5,7.2,20.9,20.7,20.9,36.2c12.5-7.2,20.9-20.7,20.9-36.2c0,0,0,0,0,0    C188,138.4,169.3,119.7,146.2,119.7z"
         id="path26" />
      <path
         class="st2"
         d="M83.5,197.7C83.5,197.7,83.5,197.7,83.5,197.7C83.5,197.7,83.5,197.7,83.5,197.7c0-15.5,8.4-29,20.9-36.2l0,0    c-6.1-3.6-13.3-5.6-20.9-5.6c-7.6,0-14.7,2-20.9,5.6c-12.5,7.2-20.9,20.7-20.9,36.2c0,15.5,8.4,28.9,20.9,36.2    c6.1,3.6,13.3,5.6,20.9,5.6c7.6,0,14.7-2,20.9-5.6l0,0C92,226.6,83.6,213.2,83.5,197.7z"
         id="path28" />
      <g
         id="g38">
        <path
           class="st2"
           d="M167.1,197.7c-6.1,3.6-13.3,5.6-20.9,5.6c-7.6,0-14.7-2-20.9-5.6c0,0,0,0,0,0c0,0,0,0,0,0l0,0c0,0,0,0,0,0     c-12.5,7.2-20.9,20.7-20.9,36.2c0,0,0,0,0,0c6.1,3.6,13.3,5.6,20.9,5.6s14.7-2,20.9-5.6c0,0,0,0,0,0     C158.7,226.6,167.1,213.2,167.1,197.7C167.1,197.7,167.1,197.7,167.1,197.7z"
           id="path30" />
        <g
           id="g36">
          <ellipse
             transform="matrix(0.5 -0.866 0.866 0.5 -139.8701 225.4657)"
             class="st0"
             cx="125.3"
             cy="233.9"
             rx="5.2"
             ry="5.2"
             id="ellipse32" />
          <ellipse
             transform="matrix(0.5 -0.866 0.866 0.5 -129.4289 207.383)"
             class="st0"
             cx="114.9"
             cy="215.8"
             rx="5.2"
             ry="5.2"
             id="ellipse34" />
        </g>
      </g>
      <g
         id="g48">
        <path
           class="st1"
           d="M125.3,197.7C125.3,197.7,125.3,197.7,125.3,197.7c0-15.5-8.4-28.9-20.9-36.2c0,0,0,0,0,0     c-12.5,7.2-20.9,20.7-20.9,36.2c0,0,0,0,0,0c0,0,0,0,0,0c0,15.5,8.4,28.9,20.9,36.2C104.4,218.4,112.8,204.9,125.3,197.7     C125.3,197.7,125.3,197.7,125.3,197.7C125.3,197.7,125.3,197.7,125.3,197.7z"
           id="path40" />
        <g
           id="g46">
          <ellipse
             transform="matrix(0.5 -0.866 0.866 0.5 -98.103 189.297)"
             class="st0"
             cx="114.9"
             cy="179.6"
             rx="5.2"
             ry="5.2"
             id="ellipse42" />
          <ellipse
             transform="matrix(0.5 -0.866 0.866 0.5 -108.5461 171.2083)"
             class="st0"
             cx="94"
             cy="179.6"
             rx="5.2"
             ry="5.2"
             id="ellipse44" />
        </g>
      </g>
      <g
         id="g58">
        <path
           class="st3"
           d="M146.2,161.5C146.2,161.5,146.2,161.5,146.2,161.5c-6.1-3.6-13.3-5.6-20.9-5.6s-14.7,2-20.9,5.6     c12.5,7.2,20.9,20.7,20.9,36.2l0,0c0,0,0,0,0,0c0,0,0,0,0,0c6.1,3.6,13.3,5.6,20.9,5.6c7.6,0,14.7-2,20.9-5.6c0,0,0,0,0,0     C167.1,182.2,158.7,168.7,146.2,161.5z"
           id="path50" />
        <g
           id="g56">
          <ellipse
             transform="matrix(0.5 -0.866 0.866 0.5 -98.1045 225.4717)"
             class="st0"
             cx="146.2"
             cy="197.7"
             rx="5.2"
             ry="5.2"
             id="ellipse52" />
          <ellipse
             transform="matrix(0.5 -0.866 0.866 0.5 -77.2151 225.4752)"
             class="st0"
             cx="156.7"
             cy="179.6"
             rx="5.2"
             ry="5.2"
             id="ellipse54" />
        </g>
      </g>
    </g>
  </g>
</svg>
