<?xml version="1.0" encoding="UTF-8" standalone="no"?>
<svg
   xmlns:dc="http://purl.org/dc/elements/1.1/"
   xmlns:cc="http://creativecommons.org/ns#"
   xmlns:rdf="http://www.w3.org/1999/02/22-rdf-syntax-ns#"
   xmlns:svg="http://www.w3.org/2000/svg"
   xmlns="http://www.w3.org/2000/svg"
   xmlns:sodipodi="http://sodipodi.sourceforge.net/DTD/sodipodi-0.dtd"
   xmlns:inkscape="http://www.inkscape.org/namespaces/inkscape"
   version="1.1"
   id="PyAr"
   x="0px"
   y="0px"
   viewBox="0 0 543.1 228.3"
   sodipodi:docname="Color horizontal.svg"
   inkscape:export-filename="/home/facundo/devel/reps/asoc/isologos/pyar/Color horizontal.png"
   inkscape:export-xdpi="299.81604"
   inkscape:export-ydpi="299.81604"
   inkscape:version="0.92.3 (2405546, 2018-03-11)">
  <metadata
     id="metadata67">
    <rdf:RDF>
      <cc:Work
         rdf:about="">
        <dc:format>image/svg+xml</dc:format>
        <dc:type
           rdf:resource="http://purl.org/dc/dcmitype/StillImage" />
      </cc:Work>
    </rdf:RDF>
  </metadata>
  <defs
     id="defs65" />
  <sodipodi:namedview
     pagecolor="#ffffff"
     bordercolor="#666666"
     borderopacity="1"
     objecttolerance="10"
     gridtolerance="10"
     guidetolerance="10"
     inkscape:pageopacity="0"
     inkscape:pageshadow="2"
     inkscape:window-width="1920"
     inkscape:window-height="993"
     id="namedview63"
     showgrid="false"
     inkscape:zoom="1.4435648"
     inkscape:cx="236.97331"
     inkscape:cy="74.757896"
     inkscape:window-x="0"
     inkscape:window-y="30"
     inkscape:window-maximized="1"
     inkscape:current-layer="PyAr" />
  <style
     type="text/css"
     id="style2">
	.st1{fill:none;}
	.st0{fill:#00AEEF;}
	.st2{fill:#FFC709;}
	.st3{fill:#EC008C;}
	.st5{fill:#FFFFFF;}
</style>
  <g
     id="g60">
    <rect
       y="0"
       class="st1"
       width="543.1"
       height="228.3"
       id="rect4" />
    <g
       id="g14">
      <path
         class="st0"
         d="M250.9,155.7V72.4H277c9.1,0,16.8,2.1,23.3,6.2s9.7,11,9.7,20.5c-0.1,9.5-3.6,16.5-10.5,20.9    c-6.9,4.5-14.8,6.7-23.6,6.7h-9.2v29.1h-15.8V155.7z M276.5,85.6h-9.8v28h10.1c4.7,0,8.6-1.1,11.5-3.2c2.9-2.2,4.6-5.6,4.9-10.2    c0-5.4-1.5-9.2-4.4-11.3C285.8,86.7,281.8,85.6,276.5,85.6z"
         id="path6" />
      <path
         class="st0"
         d="M336.6,158.5l2.8-7l-21.2-53.1l16.4-2.2l13.7,36l13-36h16.8l-23.4,59.5l-3.2,7.8c-1.9,4.8-5.2,9-9.9,12.4    c-4.7,3.4-9.7,5.8-15,7l-5.6-13.1c2.9-1.2,5.9-2.7,9.1-4.5C333.4,163.6,335.5,161.3,336.6,158.5z"
         id="path8" />
      <path
         class="st0"
         d="M413.2,72.4l32.4,81.2l-15.9,2.2l-7.5-19.6h-31.6l-7.4,19.6h-15.9l32.5-83.4H413.2z M406.1,94.2l-10.9,29.1    h22.1L406.1,94.2z"
         id="path10" />
      <path
         class="st0"
         d="M486.5,96.3l3.2,12.8c-2.7,0-5.8,0.8-9.4,2.3c-3.6,1.6-7,3.8-10.5,6.9v37.5h-15.9V96.3h8.3l5.3,8.7    c2.5-2.1,5.4-4.1,9-5.9C480,97.2,483.4,96.3,486.5,96.3z"
         id="path12" />
    </g>
    <g
       id="g58">
      <path
         class="st2"
         d="M208.9,114c0-15.5-8.4-28.9-20.9-36.2c0,15.5-8.4,28.9-20.9,36.2l0,0l0,0c12.5,7.2,20.9,20.7,20.9,36.2    C200.5,142.9,208.9,129.4,208.9,114z"
         id="path16" />
      <path
         class="st0"
         d="M104.5,150.2L104.5,150.2c-6.1,3.6-13.3,5.6-20.9,5.6s-14.7-2-20.9-5.6l0,0c0,23.1,18.7,41.8,41.8,41.8    c7.6,0,14.7-2,20.9-5.6C112.9,179.1,104.5,165.6,104.5,150.2z"
         id="path18" />
      <path
         class="st3"
         d="M188,150.2c0-15.5-8.4-28.9-20.9-36.2c0,15.5-8.4,28.9-20.9,36.2l0,0l0,0c-6.1,3.6-13.3,5.6-20.9,5.6    s-14.7-2-20.9-5.6l0,0l0,0c0,15.5,8.4,29,20.9,36.2c6.1,3.6,13.3,5.6,20.9,5.6C169.3,191.9,188,173.2,188,150.2L188,150.2z"
         id="path20" />
      <path
         class="st3"
         d="M104.5,77.8L104.5,77.8c0-15.5,8.4-29,20.9-36.2c-6.1-3.6-13.3-5.6-20.9-5.6c-23.1,0-41.8,18.7-41.8,41.8l0,0    c6.1-3.6,13.3-5.6,20.9-5.6C91.2,72.2,98.3,74.3,104.5,77.8z"
         id="path22" />
      <path
         class="st0"
         d="M146.2,36c-7.6,0-14.7,2-20.9,5.6c-12.5,7.2-20.9,20.7-20.9,36.2l0,0l0,0c6.1-3.6,13.3-5.6,20.9-5.6    s14.7,2,20.9,5.6l0,0l0,0c12.5,7.2,20.9,20.7,20.9,36.2c12.5-7.2,20.9-20.7,20.9-36.2l0,0C188,54.7,169.3,36,146.2,36z"
         id="path24" />
      <path
         class="st2"
         d="M83.6,114L83.6,114L83.6,114c0-15.5,8.4-29,20.9-36.2l0,0c-6.1-3.6-13.3-5.6-20.9-5.6s-14.7,2-20.9,5.6    C50.2,85,41.8,98.5,41.8,114s8.4,28.9,20.9,36.2c6.1,3.6,13.3,5.6,20.9,5.6s14.7-2,20.9-5.6l0,0C92,142.9,83.6,129.4,83.6,114z"
         id="path26" />
      <g
         id="g36">
        <path
           class="st2"
           d="M167.1,114c-6.1,3.6-13.3,5.6-20.9,5.6c-7.6,0-14.7-2-20.9-5.6l0,0l0,0l0,0l0,0     c-12.5,7.2-20.9,20.7-20.9,36.2l0,0c6.1,3.6,13.3,5.6,20.9,5.6s14.7-2,20.9-5.6l0,0C158.7,142.9,167.1,129.4,167.1,114L167.1,114z     "
           id="path28" />
        <g
           id="g34">
          <ellipse
             transform="matrix(0.5 -0.866 0.866 0.5 -67.4158 183.6654)"
             class="st5"
             cx="125.4"
             cy="150.2"
             rx="5.2"
             ry="5.2"
             id="ellipse30" />
          <ellipse
             transform="matrix(0.5 -0.866 0.866 0.5 -56.9347 165.5669)"
             class="st5"
             cx="114.9"
             cy="132.1"
             rx="5.2"
             ry="5.2"
             id="ellipse32" />
        </g>
      </g>
      <g
         id="g46">
        <path
           class="st0"
           d="M125.3,114L125.3,114c0-15.5-8.4-28.9-20.9-36.2l0,0C92,85,83.6,98.5,83.6,114l0,0l0,0     c0,15.5,8.4,28.9,20.9,36.2C104.5,134.7,112.9,121.2,125.3,114L125.3,114L125.3,114z"
           id="path38" />
        <g
           id="g44">
          <ellipse
             transform="matrix(0.5 -0.866 0.866 0.5 -25.6086 147.4541)"
             class="st5"
             cx="114.9"
             cy="95.9"
             rx="5.2"
             ry="5.2"
             id="ellipse40" />
          <ellipse
             transform="matrix(0.5 -0.866 0.866 0.5 -36.0642 129.3656)"
             class="st5"
             cx="94"
             cy="95.9"
             rx="5.2"
             ry="5.2"
             id="ellipse42" />
        </g>
      </g>
      <g
         id="g56">
        <path
           class="st3"
           d="M146.2,77.8L146.2,77.8c-6.1-3.6-13.3-5.6-20.9-5.6s-14.7,2-20.9,5.6c12.5,7.2,20.9,20.7,20.9,36.2l0,0l0,0     l0,0c6.1,3.6,13.3,5.6,20.9,5.6s14.7-2,20.9-5.6l0,0C167.1,98.5,158.7,85,146.2,77.8z"
           id="path48" />
        <g
           id="g54">
          <ellipse
             transform="matrix(0.5 -0.866 0.866 0.5 -25.6386 183.6399)"
             class="st5"
             cx="146.2"
             cy="114"
             rx="5.2"
             ry="5.2"
             id="ellipse50" />
          <ellipse
             transform="matrix(0.5 -0.866 0.866 0.5 -4.6973 183.6329)"
             class="st5"
             cx="156.7"
             cy="95.9"
             rx="5.2"
             ry="5.2"
             id="ellipse52" />
        </g>
      </g>
    </g>
  </g>
</svg>
