<?xml version="1.0" encoding="UTF-8" standalone="no"?>
<svg
   xmlns:dc="http://purl.org/dc/elements/1.1/"
   xmlns:cc="http://creativecommons.org/ns#"
   xmlns:rdf="http://www.w3.org/1999/02/22-rdf-syntax-ns#"
   xmlns:svg="http://www.w3.org/2000/svg"
   xmlns="http://www.w3.org/2000/svg"
   xmlns:sodipodi="http://sodipodi.sourceforge.net/DTD/sodipodi-0.dtd"
   xmlns:inkscape="http://www.inkscape.org/namespaces/inkscape"
   version="1.1"
   id="PyAr"
   x="0px"
   y="0px"
   viewBox="0 0 543.1 228.3"
   sodipodi:docname="Grises horizontal.svg"
   inkscape:export-filename="/home/facundo/devel/reps/asoc/isologos/pyar/Grises horizontal.png"
   inkscape:export-xdpi="299"
   inkscape:export-ydpi="299"
   inkscape:version="0.92.3 (2405546, 2018-03-11)">
  <metadata
     id="metadata71">
    <rdf:RDF>
      <cc:Work
         rdf:about="">
        <dc:format>image/svg+xml</dc:format>
        <dc:type
           rdf:resource="http://purl.org/dc/dcmitype/StillImage" />
      </cc:Work>
    </rdf:RDF>
  </metadata>
  <defs
     id="defs69" />
  <sodipodi:namedview
     pagecolor="#ffffff"
     bordercolor="#666666"
     borderopacity="1"
     objecttolerance="10"
     gridtolerance="10"
     guidetolerance="10"
     inkscape:pageopacity="0"
     inkscape:pageshadow="2"
     inkscape:window-width="1920"
     inkscape:window-height="993"
     id="namedview67"
     showgrid="false"
     inkscape:zoom="0.72178239"
     inkscape:cx="271.54999"
     inkscape:cy="114.15"
     inkscape:window-x="0"
     inkscape:window-y="30"
     inkscape:window-maximized="1"
     inkscape:current-layer="PyAr" />
  <style
     type="text/css"
     id="style2">
	.st0{fill:#BCBEC0;}
	.st1{fill:#6D6E71;}
	.st2{fill:#939598;}
	.st4{fill:#FFFFFF;}
	.st5{fill:none;}
</style>
  <g
     id="g64">
    <g
       id="g46">
      <path
         class="st0"
         d="M208.9,114.2c0-15.5-8.4-28.9-20.9-36.2c0,15.5-8.4,28.9-20.9,36.2c0,0,0,0,0,0c0,0,0,0,0,0    c12.5,7.2,20.9,20.7,20.9,36.2C200.5,143.1,208.9,129.6,208.9,114.2z"
         id="path4" />
      <path
         class="st1"
         d="M104.5,150.3C104.5,150.3,104.5,150.3,104.5,150.3c-6.1,3.6-13.3,5.6-20.9,5.6c-7.6,0-14.7-2-20.9-5.6    c0,0,0,0,0,0c0,23.1,18.7,41.8,41.8,41.8c7.6,0,14.7-2,20.9-5.6C112.9,179.3,104.5,165.8,104.5,150.3z"
         id="path6" />
      <path
         class="st2"
         d="M188,150.3c0-15.5-8.4-28.9-20.9-36.2c0,15.5-8.4,28.9-20.9,36.2l0,0l0,0c-6.1,3.6-13.3,5.6-20.9,5.6    c-7.6,0-14.7-2-20.9-5.6c0,0,0,0,0,0c0,0,0,0,0,0c0,15.5,8.4,29,20.9,36.2c6.1,3.6,13.3,5.6,20.9,5.6    C169.3,192.1,188,173.4,188,150.3C188,150.3,188,150.3,188,150.3z"
         id="path8" />
      <path
         class="st2"
         d="M104.5,78C104.5,78,104.5,78,104.5,78c0-15.5,8.4-29,20.9-36.2c-6.1-3.6-13.3-5.6-20.9-5.6    c-23.1,0-41.8,18.7-41.8,41.8c0,0,0,0,0,0c6.1-3.6,13.3-5.6,20.9-5.6C91.2,72.4,98.3,74.4,104.5,78z"
         id="path10" />
      <path
         class="st1"
         d="M146.2,36.2c-7.6,0-14.7,2-20.9,5.6C112.9,49,104.5,62.5,104.5,78c0,0,0,0,0,0c0,0,0,0,0,0    c6.1-3.6,13.3-5.6,20.9-5.6c7.6,0,14.7,2,20.9,5.6l0,0l0,0c12.5,7.2,20.9,20.7,20.9,36.2C179.6,106.9,188,93.4,188,78c0,0,0,0,0,0    C188,54.9,169.3,36.2,146.2,36.2z"
         id="path12" />
      <path
         class="st0"
         d="M83.6,114.2C83.6,114.2,83.6,114.2,83.6,114.2C83.6,114.1,83.6,114.1,83.6,114.2c0-15.5,8.4-29,20.9-36.2l0,0    c-6.1-3.6-13.3-5.6-20.9-5.6c-7.6,0-14.7,2-20.9,5.6c-12.5,7.2-20.9,20.7-20.9,36.2c0,15.5,8.4,28.9,20.9,36.2    c6.1,3.6,13.3,5.6,20.9,5.6c7.6,0,14.7-2,20.9-5.6l0,0C92,143.1,83.6,129.6,83.6,114.2z"
         id="path14" />
      <g
         id="g24">
        <path
           class="st0"
           d="M167.1,114.1c-6.1,3.6-13.3,5.6-20.9,5.6c-7.6,0-14.7-2-20.9-5.6c0,0,0,0,0,0c0,0,0,0,0,0l0,0c0,0,0,0,0,0     c-12.5,7.2-20.9,20.7-20.9,36.2c0,0,0,0,0,0c6.1,3.6,13.3,5.6,20.9,5.6c7.6,0,14.7-2,20.9-5.6c0,0,0,0,0,0     C158.7,143.1,167.1,129.6,167.1,114.1C167.1,114.2,167.1,114.1,167.1,114.1z"
           id="path16" />
        <g
           id="g22">
          <ellipse
             transform="matrix(0.5 -0.866 0.866 0.5 -67.511 183.7183)"
             class="st4"
             cx="125.3"
             cy="150.3"
             rx="5.2"
             ry="5.2"
             id="ellipse18" />
          <ellipse
             transform="matrix(0.5 -0.866 0.866 0.5 -57.0698 165.6356)"
             class="st4"
             cx="114.9"
             cy="132.2"
             rx="5.2"
             ry="5.2"
             id="ellipse20" />
        </g>
      </g>
      <g
         id="g34">
        <path
           class="st1"
           d="M125.3,114.1C125.3,114.1,125.3,114.1,125.3,114.1c0-15.5-8.4-28.9-20.9-36.2c0,0,0,0,0,0     C92,85.2,83.6,98.7,83.6,114.1c0,0,0,0,0,0c0,0,0,0,0,0c0,15.5,8.4,28.9,20.9,36.2C104.5,134.9,112.9,121.4,125.3,114.1     C125.3,114.2,125.3,114.2,125.3,114.1C125.3,114.2,125.3,114.1,125.3,114.1z"
           id="path26" />
        <g
           id="g32">
          <ellipse
             transform="matrix(0.5 -0.866 0.866 0.5 -25.7439 147.5496)"
             class="st4"
             cx="114.9"
             cy="96.1"
             rx="5.2"
             ry="5.2"
             id="ellipse28" />
          <ellipse
             transform="matrix(0.5 -0.866 0.866 0.5 -36.1869 129.461)"
             class="st4"
             cx="94"
             cy="96.1"
             rx="5.2"
             ry="5.2"
             id="ellipse30" />
        </g>
      </g>
      <g
         id="g44">
        <path
           class="st2"
           d="M146.2,78C146.2,78,146.2,78,146.2,78c-6.1-3.6-13.3-5.6-20.9-5.6c-7.6,0-14.7,2-20.9,5.6     c12.5,7.2,20.9,20.7,20.9,36.2l0,0c0,0,0,0,0,0c0,0,0,0,0,0c6.1,3.6,13.3,5.6,20.9,5.6c7.6,0,14.7-2,20.9-5.6c0,0,0,0,0,0     C167.1,98.7,158.7,85.2,146.2,78z"
           id="path36" />
        <g
           id="g42">
          <ellipse
             transform="matrix(0.5 -0.866 0.866 0.5 -25.7453 183.7243)"
             class="st4"
             cx="146.2"
             cy="114.2"
             rx="5.2"
             ry="5.2"
             id="ellipse38" />
          <ellipse
             transform="matrix(0.5 -0.866 0.866 0.5 -4.856 183.7278)"
             class="st4"
             cx="156.7"
             cy="96.1"
             rx="5.2"
             ry="5.2"
             id="ellipse40" />
        </g>
      </g>
    </g>
    <g
       id="g58">
      <g
         id="g56">
        <path
           class="st1"
           d="M250.9,155.7V72.4H277c9.1,0,16.8,2.1,23.3,6.2c6.5,4.1,9.7,11,9.7,20.5c-0.1,9.5-3.6,16.5-10.5,20.9     c-6.9,4.5-14.8,6.7-23.6,6.7h-9.2v29.1H250.9z M276.5,85.6h-9.8v28h10.1c4.7,0,8.6-1.1,11.5-3.2c2.9-2.2,4.6-5.6,4.9-10.2     c0-5.4-1.5-9.2-4.4-11.3C285.9,86.7,281.8,85.6,276.5,85.6z"
           id="path48" />
        <path
           class="st1"
           d="M336.6,158.6l2.8-7l-21.2-53.1l16.4-2.2l13.7,36l13-36h16.8l-23.4,59.5l-3.2,7.8c-1.9,4.8-5.2,9-9.9,12.4     c-4.7,3.4-9.7,5.8-15,7l-5.6-13.1c2.9-1.2,5.9-2.7,9.1-4.5C333.4,163.6,335.6,161.3,336.6,158.6z"
           id="path50" />
        <path
           class="st1"
           d="M413.3,72.4l32.4,81.2l-15.9,2.2l-7.5-19.6h-31.6l-7.4,19.6h-15.9l32.5-83.4H413.3z M406.1,94.2l-10.9,29.1     h22.1L406.1,94.2z"
           id="path52" />
        <path
           class="st1"
           d="M486.6,96.3l3.2,12.8c-2.7,0-5.8,0.8-9.4,2.3c-3.6,1.6-7,3.8-10.5,6.9v37.5H454V96.3h8.3l5.3,8.7     c2.5-2.1,5.4-4.1,9-5.9C480,97.2,483.4,96.3,486.6,96.3z"
           id="path54" />
      </g>
    </g>
    <g
       id="g62">
      <rect
         y="0"
         class="st5"
         width="543.1"
         height="228.3"
         id="rect60" />
    </g>
  </g>
</svg>
